<svg width="200" height="100" viewBox="0 0 200 100" fill="none" xmlns="http://www.w3.org/2000/svg">
<g clip-path="url(#clip0_1_63)">
<path fill-rule="evenodd" clip-rule="evenodd" d="M20.5135 29.409C16.6911 30.4994 16.0355 31.3364 7.99534 45.3871C-0.030474 59.4132 0.198453 58.9271 0.195031 61.9562C0.190677 66.0013 2.39596 69.4074 6.15335 71.1591C8.24293 72.1331 37.5415 72.2382 39.6579 71.2794C44.744 68.9743 47.1708 63.8648 45.512 58.9519C44.7226 56.6138 31.4078 33.548 29.9916 32.0649C27.6855 29.6503 23.6404 28.5166 20.5135 29.409ZM65.07 35.8266C64.8998 36.3012 62.3857 42.975 59.4834 50.6569C56.5807 58.3389 54.1076 64.942 53.9873 65.3303C53.772 66.0246 53.8134 66.0365 56.4009 66.0365H59.0336L60.196 62.9763C60.8352 61.2933 61.5434 59.4544 61.7698 58.8897L62.1817 57.8637L68.9117 57.9481L75.6414 58.0328L77.1254 61.9562L78.6096 65.8796L81.3338 65.9709C83.4563 66.0418 84.0246 65.9728 83.9086 65.657C83.8268 65.4342 81.1935 58.4371 78.0572 50.1077L72.3549 34.9635H65.3798L65.07 35.8266ZM112.286 50.4843V66.0365H117.263V58.1898H124.725L127.293 62.1053L129.86 66.0208L132.893 66.0286C134.561 66.033 135.925 65.9759 135.925 65.9018C135.925 65.8278 134.654 63.9012 133.1 61.6204C130.11 57.2347 129.762 56.6204 130.26 56.6204C130.43 56.6204 131.281 55.9758 132.15 55.1876C138.167 49.7282 136.643 39.4418 129.311 36.0244L127.372 35.1204L119.829 35.0263L112.286 34.9324V50.4843ZM140.28 50.5V66.0365H161.431V61.3285H145.257V52.854H159.565V48.146H145.257V39.6715H161.431V34.9635H140.28V50.5ZM175.117 35.6779C160.643 40.6753 160.598 60.6634 175.051 65.308C177.064 65.9549 177.926 66.0365 182.749 66.0365H188.18V50.0292H183.204V61.4016L180.161 61.2782C168.442 60.8031 165.113 46.1294 175.461 40.5645C176.724 39.8856 177.257 39.8219 182.504 39.7258L188.18 39.6216V34.9635L182.659 34.9717C177.779 34.9789 176.904 35.0608 175.117 35.6779M194.712 50.5V66.0365H199.689V34.9635H194.712V50.5ZM88.1425 36.0351C84.8137 37.5215 85.8781 42.4964 89.525 42.4964C90.9341 42.4964 92.6905 40.7836 92.6905 39.4095C92.6905 36.7008 90.4218 35.0175 88.1425 36.0351ZM21.246 37.2391C20.8964 37.6276 17.6529 43.1266 14.0376 49.4595C6.97575 61.8313 6.73811 62.4129 8.18477 63.7848C9.2647 64.8083 36.9294 64.8664 37.9394 63.8473C39.5198 62.2525 39.8507 63.0444 31.5789 48.6168C24.726 36.6644 24.6327 36.5328 23.0171 36.5328C22.2348 36.5328 21.6837 36.7526 21.246 37.2391ZM117.263 46.3971V53.1679H121.867C126.415 53.1679 126.49 53.1566 127.895 52.2577C131.909 49.689 131.84 43.4069 127.767 40.6847C126.54 39.8639 126.295 39.8244 121.875 39.7274L117.263 39.6263V46.3971ZM68.4146 41.1112C66.851 45.2085 64.0747 52.7859 64.0747 52.9563C64.0747 53.0728 66.2442 53.1679 68.8958 53.1679C71.5474 53.1679 73.717 53.0646 73.717 52.9381C73.717 52.5379 69.2799 40.7833 69.0159 40.4835C68.8747 40.3231 68.6096 40.5996 68.4146 41.1112ZM86.7807 55.6788V66.0365H91.7574V45.3212H86.7807V55.6788ZM103.367 45.7728C100.624 46.6382 98.1857 48.8359 96.9614 51.5452C96.3692 52.8553 96.2862 53.7024 96.1782 59.5237L96.0576 66.0365H101.041L101.143 59.9707C101.243 53.9937 101.256 53.8857 102.079 52.6327C103.047 51.1576 105.087 50.0292 106.786 50.0292H107.932V45.3212L106.299 45.3422C105.401 45.3538 104.081 45.5475 103.367 45.7728Z" fill="#28ACE4"/>
</g>
<defs>
<clipPath id="clip0_1_63">
<rect width="200" height="43" fill="white" transform="translate(0 29)"/>
</clipPath>
</defs>
</svg>
