<svg width="200" height="100" viewBox="0 0 200 100" fill="none" xmlns="http://www.w3.org/2000/svg">
<g clip-path="url(#clip0_4_421)">
<path fill-rule="evenodd" clip-rule="evenodd" d="M28.7915 33.6845C27.3976 34.1942 25.9495 35.3653 25.1622 36.619C23.9056 38.6199 15.0428 54.5095 14.6614 55.4454C13.1511 59.1495 15.4807 64.128 19.2625 65.2791C21.3501 65.9143 41.2785 65.9286 43.3562 65.2963C46.57 64.3181 48.5641 61.2582 48.3382 57.6516L48.2116 55.6264L42.8705 46.0934C39.5975 40.251 37.0962 36.1065 36.4104 35.3881C34.5812 33.4733 31.3468 32.7498 28.7915 33.6845M58.6532 49.0064C56.3671 55.1729 54.4121 60.4402 54.3086 60.7115C54.1397 61.1546 54.3298 61.2051 56.1693 61.2051H58.2181L59.333 58.1731L60.4478 55.141H70.4901L71.6173 58.1731L72.7446 61.2051H74.7747C76.2811 61.2051 76.7727 61.1143 76.6807 60.8526C76.6128 60.6588 74.6624 55.3915 72.3466 49.1474L68.1363 37.7949H62.8096L58.6532 49.0064ZM100.826 38.2636C97.9537 39.8152 96.8094 43.4297 98.235 46.4474C98.9585 47.9792 99.3421 48.242 104.541 50.7684C106.887 51.9087 109.085 53.1438 109.426 53.5133C110.263 54.4215 110.244 55.8597 109.381 56.888L108.718 57.6795L103.327 57.7666L97.9361 57.8541V61.2051L103.646 61.1986C109.341 61.1919 109.361 61.1899 110.724 60.423C113.529 58.8441 114.659 54.9554 113.16 52.0385C112.31 50.3842 111.987 50.1606 106.65 47.5279C100.868 44.6761 100.208 43.8849 102.043 42.0039L102.847 41.1795H112.797V37.7949L107.224 37.8061C102.69 37.8155 101.497 37.9006 100.826 38.2636ZM116.925 49.5V61.2051H120.778V51.0513H131.786V61.2051H135.638V37.7949H131.786V47.6667H120.778V37.7949H116.925V49.5ZM140.317 49.5V61.2051H144.17V37.7949H140.317V49.5ZM154.765 38.1694C152.345 39.1417 150.892 40.5271 149.831 42.8718L149.129 44.4231L149.126 52.8141L149.123 61.2051H152.688L152.763 56.1987L152.838 51.1923L158.136 51.1156L163.434 51.0391V47.6667H152.701L152.707 46.609C152.714 45.3324 153.488 43.5225 154.388 42.6738C155.699 41.4387 156.837 41.1795 160.948 41.1795H164.81V37.7949L160.2 37.8163C157.368 37.8296 155.272 37.9658 154.765 38.1694M167.562 39.4872V41.1795H174.717V61.2051H178.57V41.1795H185.725V37.7949H167.562V39.4872ZM79.0725 39.0514C77.9123 40.2403 78.1668 42.3074 79.5646 43.0481C81.3421 43.9904 83.2005 42.8642 83.2005 40.845C83.2005 38.6385 80.5842 37.5018 79.0725 39.0514ZM30.5421 38.9978C29.8472 39.3659 19.5266 57.2719 19.5118 58.135C19.5077 58.3855 19.7608 58.925 20.0746 59.3337L20.6448 60.0769H31.3151C41.6585 60.0769 42.0006 60.0594 42.4866 59.5091C43.4311 58.4396 43.0923 57.6256 37.8404 48.3475C32.316 38.588 32.0235 38.2131 30.5421 38.9978M65.2225 42.3077C64.2453 44.5821 61.938 51.1934 62.0544 51.3861C62.2396 51.6935 69.0401 51.6817 69.0401 51.3739C69.0401 51.1841 66.9673 45.4015 65.7396 42.1667C65.536 41.6302 65.5106 41.6373 65.2225 42.3077M78.9473 53.3077V61.2051H82.5249V45.4103H78.9473V53.3077ZM91.5162 45.8144C89.0279 46.4998 86.8406 48.6378 86.1259 51.0829C85.9616 51.6444 85.8273 54.1516 85.8273 56.6545V61.2051H89.3565L89.4495 56.7414C89.5386 52.4576 89.5719 52.2317 90.2748 51.1444C91.0822 49.8946 92.469 49.0769 93.7808 49.0769H94.6337V45.4103L93.7393 45.4291C93.2472 45.4399 92.2472 45.613 91.5162 45.8144Z" fill="#28ACE4"/>
</g>
<defs>
<clipPath id="clip0_4_421">
<rect width="172" height="33" fill="white" transform="translate(14 33)"/>
</clipPath>
</defs>
</svg>
