<svg width="109" height="40" viewBox="0 0 109 40" fill="none" xmlns="http://www.w3.org/2000/svg">
<g clip-path="url(#clip0_212_1107)">
<path d="M99.3223 0H9.53468C9.16798 0 8.80568 0 8.43995 0.002C8.1338 0.004 7.83009 0.00981 7.521 0.0147C6.84951 0.0226018 6.17961 0.0816763 5.5171 0.19141C4.85552 0.303533 4.21467 0.514916 3.61622 0.81841C3.0185 1.12447 2.47235 1.52217 1.99757 1.99707C1.5203 2.47064 1.12246 3.01802 0.81935 3.61816C0.5154 4.21711 0.304641 4.85894 0.19435 5.52148C0.0830109 6.18318 0.0230984 6.85252 0.01515 7.52348C0.00587 7.83008 0.00489 8.1377 0 8.44434V31.5586C0.00489 31.8691 0.00587 32.1699 0.01515 32.4805C0.0231008 33.1514 0.0830134 33.8207 0.19435 34.4824C0.304336 35.1453 0.515108 35.7875 0.81935 36.3867C1.12233 36.9849 1.52022 37.5301 1.99757 38.001C2.47054 38.478 3.01705 38.876 3.61622 39.1797C4.21467 39.484 4.85545 39.6966 5.5171 39.8105C6.17972 39.9194 6.84956 39.9785 7.521 39.9873C7.83009 39.9941 8.1338 39.998 8.43995 39.998C8.80567 40 9.168 40 9.53468 40H99.3223C99.6817 40 100.047 40 100.406 39.998C100.711 39.998 101.023 39.9941 101.328 39.9873C101.998 39.9789 102.667 39.9198 103.328 39.8105C103.992 39.6958 104.635 39.4833 105.236 39.1797C105.835 38.8758 106.381 38.4778 106.854 38.001C107.33 37.5282 107.728 36.9835 108.035 36.3867C108.337 35.7871 108.546 35.1449 108.654 34.4824C108.766 33.8206 108.828 33.1515 108.84 32.4805C108.844 32.1699 108.844 31.8691 108.844 31.5586C108.852 31.1953 108.852 30.834 108.852 30.4648V9.53613C108.852 9.16992 108.852 8.80664 108.844 8.44434C108.844 8.1377 108.844 7.83008 108.84 7.52344C108.828 6.85242 108.766 6.18324 108.654 5.52144C108.546 4.85928 108.337 4.2175 108.035 3.61812C107.418 2.4152 106.439 1.43603 105.236 0.81832C104.635 0.515567 103.992 0.30424 103.328 0.19132C102.667 0.0811028 101.998 0.0220078 101.328 0.01456C101.023 0.00968 100.711 0.00382 100.406 0.00187C100.047 0 99.6817 0 99.3223 0Z" fill="#A6A6A6"/>
<path d="M8.44291 39.125C8.13823 39.125 7.84091 39.1211 7.53862 39.1143C6.91241 39.1061 6.28765 39.0516 5.66948 38.9512C5.09307 38.8519 4.53469 38.6673 4.01274 38.4033C3.49559 38.1415 3.0239 37.7983 2.61574 37.3867C2.20168 36.98 1.85696 36.5082 1.59523 35.9902C1.33062 35.4688 1.1475 34.9099 1.05223 34.333C0.949358 33.7131 0.893698 33.0863 0.885734 32.458C0.879394 32.2471 0.871094 31.5449 0.871094 31.5449V8.44434C0.871094 8.44434 0.879934 7.75293 0.885784 7.5498C0.89341 6.92248 0.948746 6.29665 1.05131 5.67773C1.14675 5.09925 1.33002 4.53875 1.59477 4.01563C1.85554 3.49794 2.19835 3.02586 2.60991 2.61768C3.02102 2.20562 3.49422 1.8606 4.01225 1.59521C4.533 1.33209 5.09033 1.14873 5.66557 1.05127C6.28577 0.949836 6.91269 0.894996 7.54108 0.88721L8.4434 0.875H100.399L101.313 0.8877C101.935 0.895099 102.556 0.94945 103.171 1.05029C103.752 1.14898 104.315 1.33362 104.842 1.59814C105.88 2.13299 106.724 2.97916 107.257 4.01807C107.517 4.53758 107.698 5.09351 107.792 5.667C107.896 6.291 107.954 6.92175 107.966 7.55421C107.969 7.83741 107.969 8.14161 107.969 8.44435C107.977 8.81935 107.977 9.17628 107.977 9.53614V30.4648C107.977 30.8281 107.977 31.1826 107.969 31.54C107.969 31.8652 107.969 32.1631 107.965 32.4697C107.953 33.0909 107.896 33.7104 107.794 34.3232C107.701 34.9043 107.519 35.4675 107.254 35.9932C106.99 36.5056 106.648 36.9733 106.238 37.3789C105.83 37.7927 105.357 38.1379 104.839 38.4014C104.314 38.6674 103.751 38.8527 103.171 38.9512C102.553 39.0522 101.928 39.1067 101.302 39.1143C101.009 39.1211 100.702 39.125 100.404 39.125L99.3204 39.127L8.44291 39.125Z" fill="black"/>
<path d="M41.1664 16.5546H37.1148L36.1418 19.4276H34.4258L38.2634 8.79834H40.0464L43.884 19.4276H42.1386L41.1664 16.5546ZM37.5344 15.2289H40.746L39.1628 10.5662H39.1185L37.5344 15.2289Z" fill="white"/>
<path d="M52.171 15.5531C52.171 17.9613 50.882 19.5086 48.9369 19.5086C48.4441 19.5343 47.9541 19.4208 47.5229 19.1811C47.0917 18.9413 46.7367 18.5849 46.4986 18.1527H46.4618V21.9912H44.8711V11.6779H46.4108V12.9669H46.4401C46.6891 12.5368 47.0501 12.1823 47.4846 11.941C47.9191 11.6998 48.4109 11.5809 48.9076 11.5969C50.8745 11.5968 52.171 13.1516 52.171 15.5531ZM50.536 15.5531C50.536 13.9841 49.7251 12.9526 48.488 12.9526C47.2726 12.9526 46.4551 14.0059 46.4551 15.5531C46.4551 17.1146 47.2726 18.1603 48.488 18.1603C49.7252 18.1603 50.5359 17.1363 50.5359 15.5531H50.536Z" fill="white"/>
<path d="M60.7026 15.5531C60.7026 17.9613 59.4132 19.5086 57.4681 19.5086C56.9754 19.5343 56.4854 19.4208 56.0541 19.1811C55.6229 18.9413 55.2679 18.5849 55.0298 18.1527H54.993V21.9912H53.4023V11.6779H54.9421V12.9669H54.9713C55.2204 12.5368 55.5814 12.1823 56.0159 11.941C56.4504 11.6998 56.9422 11.5809 57.4389 11.5969C59.4057 11.5968 60.7026 13.1516 60.7026 15.5531ZM59.0672 15.5531C59.0672 13.9841 58.2564 12.9526 57.0192 12.9526C55.8039 12.9526 54.9864 14.0059 54.9864 15.5531C54.9864 17.1146 55.8039 18.1603 57.0192 18.1603C58.2564 18.1603 59.0672 17.1363 59.0672 15.5531H59.0672Z" fill="white"/>
<path d="M66.3393 16.466C66.4571 17.52 67.4811 18.2121 68.8804 18.2121C70.2211 18.2121 71.1858 17.52 71.1858 16.5696C71.1858 15.7446 70.604 15.2506 69.2264 14.912L67.8489 14.5802C65.8971 14.1087 64.991 13.1959 64.991 11.7147C64.991 9.88073 66.5892 8.62109 68.8578 8.62109C71.1047 8.62109 72.6444 9.88078 72.6962 11.7147H71.0905C70.9943 10.654 70.1175 10.0137 68.8361 10.0137C67.5547 10.0137 66.6778 10.6616 66.6778 11.6044C66.6778 12.3559 67.2378 12.7981 68.6079 13.1366L69.779 13.4242C71.9598 13.9399 72.8651 14.8159 72.8651 16.3707C72.8651 18.3593 71.2819 19.6048 68.7625 19.6048C66.4053 19.6048 64.8138 18.3885 64.7109 16.466L66.3393 16.466Z" fill="white"/>
<path d="M76.2992 9.84406V11.6781H77.7729V12.9378H76.2992V17.21C76.2992 17.8737 76.5943 18.183 77.2421 18.183C77.4171 18.18 77.5917 18.1677 77.7654 18.1462V19.3984C77.4741 19.4528 77.1781 19.4775 76.8819 19.4719C75.3129 19.4719 74.701 18.8826 74.701 17.3797V12.9377H73.5742V11.678H74.701V9.84399L76.2992 9.84406Z" fill="white"/>
<path d="M78.625 15.5533C78.625 13.115 80.0611 11.5828 82.3004 11.5828C84.5473 11.5828 85.9767 13.115 85.9767 15.5533C85.9767 17.9983 84.5548 19.5237 82.3004 19.5237C80.0469 19.5238 78.625 17.9982 78.625 15.5533ZM84.3559 15.5533C84.3559 13.8806 83.5894 12.8934 82.3004 12.8934C81.0115 12.8934 80.245 13.8882 80.245 15.5533C80.245 17.2326 81.0115 18.2123 82.3004 18.2123C83.5894 18.2123 84.3559 17.2326 84.3559 15.5533Z" fill="white"/>
<path d="M87.2891 11.6779H88.8062V12.9969H88.843C88.9456 12.585 89.1869 12.2209 89.5264 11.9659C89.8658 11.711 90.2827 11.5806 90.707 11.5968C90.8903 11.5962 91.0731 11.6161 91.252 11.6562V13.144C91.0205 13.0733 90.7791 13.0409 90.5373 13.0479C90.3062 13.0385 90.0758 13.0793 89.8619 13.1674C89.6481 13.2554 89.4558 13.3887 89.2983 13.5581C89.1409 13.7275 89.0219 13.929 88.9496 14.1487C88.8774 14.3684 88.8535 14.6011 88.8797 14.8309V19.4275H87.2891V11.6779Z" fill="white"/>
<path d="M98.5843 17.1515C98.4095 17.8838 97.9749 18.5279 97.3613 18.9641C96.7476 19.4004 95.9966 19.5992 95.2474 19.5238C92.993 19.5238 91.5938 18.0133 91.5938 15.59C91.5938 13.1593 93.0006 11.5828 95.1806 11.5828C97.3246 11.5828 98.6729 13.0556 98.6729 15.4053V15.9503H93.1995V16.0464C93.1743 16.3316 93.21 16.619 93.3043 16.8893C93.3986 17.1596 93.5493 17.4068 93.7465 17.6144C93.9437 17.822 94.1828 17.9853 94.4479 18.0934C94.713 18.2016 94.9981 18.252 95.2842 18.2415C95.6601 18.2767 96.0374 18.1897 96.3598 17.9933C96.6823 17.7969 96.9327 17.5016 97.0739 17.1515L98.5843 17.1515ZM93.207 14.8386H97.0814C97.0957 14.5821 97.0568 14.3255 96.9672 14.0848C96.8776 13.8441 96.7392 13.6245 96.5607 13.4398C96.3822 13.2551 96.1675 13.1093 95.93 13.0116C95.6925 12.9138 95.4374 12.8662 95.1806 12.8717C94.9215 12.8702 94.6648 12.9199 94.4251 13.0181C94.1854 13.1164 93.9675 13.2611 93.784 13.4439C93.6005 13.6268 93.4551 13.8442 93.356 14.0835C93.257 14.3229 93.2064 14.5795 93.207 14.8386V14.8386Z" fill="white"/>
<path d="M36.4351 30.8116L36.501 29.9922C36.8082 30.0914 37.1289 30.1424 37.4517 30.1436C37.7437 30.1436 37.8564 30.1153 37.998 29.917C38.3423 29.1964 38.4915 28.398 38.4307 27.6016C38.4307 26.754 38.1675 26.5088 37.499 26.5088C37.3481 26.5088 37.1787 26.5186 36.9902 26.5284C36.6305 27.9905 36.0327 29.3834 35.2207 30.6514L34.439 30.2275C35.2016 29.1317 35.7597 27.9069 36.0864 26.6123C35.5706 26.6681 35.0584 26.7532 34.5522 26.8672L34.3828 26.0381C34.957 25.9346 35.644 25.8408 36.2842 25.7842C36.4158 25.1591 36.5133 24.5273 36.5762 23.8916L37.499 23.9951C37.414 24.5693 37.3106 25.1445 37.1787 25.709H37.5459C38.7417 25.709 39.3159 26.3018 39.3159 27.5635C39.3678 28.5262 39.1802 29.4868 38.77 30.3594C38.662 30.5599 38.4971 30.7241 38.2961 30.8313C38.0951 30.9385 37.8669 30.9839 37.6401 30.9619C37.2339 30.9592 36.8295 30.9088 36.4351 30.8116V30.8116ZM39.4663 25.7374L40.1538 25.2754C41.107 26.1949 41.6814 27.438 41.7637 28.7598L40.8599 28.9005C40.8532 28.3064 40.7263 27.7199 40.4868 27.1763C40.2473 26.6326 39.9001 26.1432 39.4663 25.7374V25.7374Z" fill="white"/>
<path d="M44.8865 30.9434L44.6985 30.0957C44.9338 30.1153 45.2444 30.124 45.4329 30.124C47.2966 30.124 48.0027 29.5977 48.0027 28.8155C48.0027 28.1944 47.5979 27.8369 46.6941 27.8369C45.7087 27.9273 44.7908 28.3763 44.1145 29.0987L43.3894 28.7783C43.2521 27.5451 43.534 26.3015 44.1897 25.248L45.0276 25.5205C44.5056 26.2255 44.2519 27.0935 44.3123 27.9687C45.0673 27.4363 45.9596 27.1322 46.8826 27.0927C48.1443 27.0927 48.9256 27.7421 48.9256 28.7968C48.9256 30.1337 47.8709 30.9531 45.3387 30.9531C45.2161 30.9532 45.0374 30.9434 44.8865 30.9434ZM44.011 24.6924L44.2463 23.8633C45.4988 24.0549 46.7356 24.3382 47.9465 24.7109L47.7205 25.5303C46.5117 25.1401 45.2701 24.8597 44.011 24.6924V24.6924Z" fill="white"/>
<path d="M51.6514 30.294C52.6222 29.9744 53.4943 29.41 54.1836 28.6553C53.6376 28.2027 53.048 27.8056 52.4233 27.4697L52.9409 26.8203C53.5707 27.1406 54.1694 27.5185 54.7295 27.9492C55.1793 27.2932 55.4931 26.5537 55.6523 25.7744H53.2515C52.6998 26.6681 52.0067 27.4662 51.1992 28.1377L50.5117 27.5449C51.6739 26.5862 52.5744 25.3489 53.1294 23.9483L54.0332 24.1651C53.9297 24.4287 53.8262 24.7012 53.7036 24.9561H56.0386L56.7071 25.2666C56.5449 26.5444 56.0401 27.7546 55.2462 28.7689C54.4523 29.7833 53.3988 30.564 52.1973 31.0283L51.6514 30.294ZM55.624 23.7227L56.1513 23.4678C56.419 23.8262 56.6434 24.2149 56.8198 24.626L56.2265 24.8994C56.0772 24.4828 55.8747 24.0873 55.624 23.7227V23.7227ZM56.8008 23.6279L57.3374 23.374C57.6087 23.7436 57.8392 24.1414 58.0249 24.5605L57.4316 24.8145C57.2739 24.3932 57.0618 23.9943 56.8008 23.6279H56.8008Z" fill="white"/>
<path d="M60.9189 30.9902L60.4389 30.2275C61.4092 30.0727 62.2867 29.5613 62.8997 28.7935C63.5126 28.0256 63.8169 27.0566 63.7529 26.0762H59.7988V27.9687H58.8477V25.2754H61.2109V23.8916H62.1616V25.2754H63.9223L64.7885 25.5205C64.6753 28.1943 63.7812 30.2373 60.9189 30.9902Z" fill="white"/>
<path d="M66.6211 25.3418L67.1484 24.5693C67.972 24.9458 68.749 25.4167 69.4639 25.9727L68.8613 26.7822C68.1754 26.2135 67.4232 25.7299 66.6211 25.3418ZM66.7998 29.9834C67.9517 29.8101 69.0456 29.3642 69.9905 28.6829C70.9355 28.0016 71.7041 27.1046 72.2324 26.0664L72.8535 26.7637C72.2798 27.8357 71.4682 28.7621 70.481 29.4719C69.4938 30.1817 68.3571 30.6559 67.1582 30.8584L66.7998 29.9834Z" fill="white"/>
<path d="M80.5703 30.4356H74.6484V24.833H80.5703L80.5703 30.4356ZM75.581 25.6992V29.5693H79.6289V25.6992H75.581Z" fill="white"/>
<path d="M89.0469 27.9209H82.3906V26.9609H89.0469V27.9209Z" fill="white"/>
<path d="M91.3125 23.9199H92.2441V26.3301C93.4832 26.8458 94.685 27.4468 95.8408 28.1289L95.3135 28.957C94.334 28.3301 93.3079 27.7793 92.2442 27.3095V30.9433H91.3125V23.9199ZM93.5244 24.4287L94.0801 24.165C94.3522 24.5642 94.5767 24.9939 94.749 25.4453L94.1367 25.7187C93.9894 25.264 93.7835 24.8304 93.5244 24.4287H93.5244ZM94.5976 24.0234L95.1631 23.7598C95.4489 24.1567 95.6859 24.5865 95.8691 25.04L95.2568 25.3134C95.0889 24.8589 94.8676 24.4259 94.5976 24.0234H94.5976Z" fill="white"/>
<path d="M24.77 20.3006C24.7807 19.4659 25.0024 18.6475 25.4145 17.9216C25.8265 17.1956 26.4154 16.5857 27.1265 16.1485C26.6748 15.5034 26.0788 14.9724 25.386 14.5979C24.6932 14.2233 23.9226 14.0155 23.1354 13.9908C21.4561 13.8146 19.8282 14.9957 18.9725 14.9957C18.1002 14.9957 16.7827 14.0083 15.364 14.0375C14.4463 14.0672 13.5519 14.334 12.7681 14.8121C11.9842 15.2901 11.3375 15.9631 10.891 16.7654C8.95705 20.1138 10.3996 25.0349 12.2522 27.7415C13.1791 29.0668 14.2624 30.5473 15.6799 30.4948C17.0669 30.4372 17.585 29.6103 19.2593 29.6103C20.918 29.6103 21.4041 30.4948 22.8503 30.4614C24.3387 30.4372 25.2764 29.1302 26.1708 27.7923C26.8368 26.8479 27.3492 25.8042 27.6892 24.6997C26.8245 24.334 26.0866 23.7218 25.5675 22.9395C25.0483 22.1572 24.771 21.2394 24.77 20.3006V20.3006Z" fill="white"/>
<path d="M22.0395 12.2108C22.8511 11.2366 23.2509 9.98445 23.154 8.72021C21.9142 8.85044 20.769 9.44299 19.9465 10.3798C19.5443 10.8375 19.2363 11.3699 19.0401 11.9467C18.8438 12.5235 18.7632 13.1333 18.8028 13.7412C19.4229 13.7476 20.0364 13.6132 20.5971 13.3481C21.1577 13.083 21.6509 12.6942 22.0395 12.2108Z" fill="white"/>
</g>
<defs>
<clipPath id="clip0_212_1107">
<rect width="108.852" height="40" fill="white"/>
</clipPath>
</defs>
</svg>
