<svg width="200" height="100" viewBox="0 0 200 100" fill="none" xmlns="http://www.w3.org/2000/svg">
<g clip-path="url(#clip0_1_84)">
<path d="M64.0926 68.3519C64.2824 67.9691 65.0412 66.2469 65.6103 63.1852C65.9897 61.0802 66.1794 58.784 66.1794 55.7222C66.1794 47.3025 64.6618 41.5617 63.3338 38.8827C62.0059 36.3951 59.9191 35.0556 56.3147 35.0556C55.1765 35.0556 53.4691 35.2469 52.1412 36.0123C51.0029 36.5864 50.0544 37.7346 49.1059 39.0741L48.7265 39.8395V38.8827L49.1059 23H40C40 24.9136 40.3794 37.3519 40.3794 47.6852C40.3794 57.6358 40 70.2654 40 72.3704H48.3471V68.5432V67.3951L48.9162 68.3519C49.8647 69.8827 51.0029 71.2222 52.3309 71.9877C53.6588 72.7531 55.1765 73.3272 56.8838 73.3272C58.7809 73.3272 60.1088 72.9444 61.2471 71.9877C62.3853 71.2222 63.5235 70.0741 64.0926 68.3519ZM58.0221 55.5309C58.0221 57.0617 57.8324 58.7839 57.6426 60.3148C57.4529 61.463 57.2632 62.6111 56.5044 63.5679C54.9868 65.8642 50.6235 65.0988 49.8647 62.6111C49.2956 60.8889 48.5368 57.6358 48.5368 51.7037C48.5368 49.5988 48.7265 47.1111 49.4853 45.1975C50.4338 42.7099 54.2279 41.5617 56.3147 43.6667C56.6941 44.0494 56.8838 44.6235 57.0735 45.1975C58.0221 48.0679 58.0221 51.321 58.0221 54.3827V55.5309V55.5309Z" fill="#4A4A4A"/>
<path d="M70.7324 47.6852C70.7324 54.7654 70.353 70.0741 70.353 72.3704H79.4588C79.4588 70.2654 79.0794 54.7654 79.0794 47.6852C79.0794 39.2654 79.4588 25.1049 79.4588 23H70.353C70.353 25.1049 70.7324 39.4568 70.7324 47.6852Z" fill="#4A4A4A"/>
<path d="M110.191 62.4198C110.191 62.2284 110.001 61.0802 110.191 55.9136C110.381 52.0864 110.571 47.3025 110.571 47.3025C110.76 44.4321 110.381 41.7531 109.812 40.2222C109.243 38.8827 108.484 38.1173 107.156 37.1605C106.018 36.3951 104.5 35.821 102.793 35.4383C101.275 35.0556 99.5676 34.8642 97.4809 34.8642C92.9279 34.8642 89.5132 35.821 87.2368 37.9259C85.15 39.8395 84.0118 42.3272 83.8221 46.3457H91.9794C91.9794 44.6235 92.3588 43.0926 92.9279 42.1358C93.6868 41.179 95.7735 40.6049 97.1015 40.6049C98.4294 40.6049 99.9471 41.179 100.516 41.9444C101.085 42.5185 101.465 43.858 101.275 45.1975C100.896 47.1111 99.1882 48.642 95.3941 49.9815C94.6353 50.3642 93.6868 50.7469 92.9279 50.9383C92.3588 51.1296 91.9794 51.321 91.6 51.5123C88.7544 52.6605 86.6676 54.1914 85.15 56.1049C83.8221 58.0185 83.0632 60.1235 83.0632 62.8025C83.0632 66.821 84.9603 71.0309 88.9441 72.179C91.2206 72.9444 94.4456 72.9444 96.7221 71.7963C98.2397 71.0309 100.326 69.6914 101.085 67.9691L101.465 67.0123V67.9691L101.275 72.179H110.571C110.381 71.4136 110.001 70.2654 109.812 68.7346C110.191 67.5864 110.191 64.716 110.191 62.4198ZM101.654 53.8086C101.654 56.1049 101.844 58.5926 101.275 60.8889C101.085 62.037 100.516 63.1852 99.7573 63.9506C98.4294 65.2901 95.9632 66.2469 94.2559 65.4815C92.7382 64.9074 91.7897 63.1852 91.7897 61.6543C91.7897 59.5494 93.1176 58.0185 94.6353 56.679C95.7735 55.5309 98.6191 54.3827 101.465 53.4259L101.844 53.2346L101.654 53.8086Z" fill="#4A4A4A"/>
<path d="M134.094 60.1234C136.371 48.4506 139.026 37.7346 139.596 35.6296H130.679L126.885 60.8889L126.696 62.6111L126.506 60.8889L122.712 35.6296H113.796C116.831 48.4506 117.59 51.7037 121.194 68.7346L121.574 70.6481C121.953 72.5617 121.953 73.9012 121.953 74.6667C121.763 75.6234 121.574 76.3889 121.004 76.7716C120.435 77.1543 119.487 77.537 118.349 77.537C117.969 77.537 117.21 77.537 116.641 77.537V84.6173C117.4 84.8086 118.159 84.8086 118.728 84.8086C119.297 84.8086 120.056 84.8086 120.625 84.8086C124.229 84.8086 126.696 83.8518 128.403 81.9383C130.11 80.216 130.679 79.4506 132.197 73.1358C131.628 73.3272 132.576 67.7778 134.094 60.1234Z" fill="#4A4A4A"/>
<path d="M160.843 35.6296C159.135 35.6296 157.428 35.821 156.1 36.7778C154.962 37.5432 153.444 38.3086 152.116 40.4136L151.547 41.3704V40.4136L151.926 35.821H143.39C143.39 37.5432 143.579 47.4938 143.579 53.8086C143.579 60.1235 143.39 70.8395 143.39 72.5617H151.926C151.926 71.2222 151.737 65.4815 151.737 59.1667C151.737 51.8951 151.737 51.1296 151.737 51.1296C151.737 47.6852 152.685 45.963 153.254 45.0062C153.824 43.858 155.341 43.0926 156.479 43.0926C157.618 43.0926 158.756 43.4753 159.135 44.2407C159.515 45.0062 159.894 46.1543 160.084 48.642C160.084 48.642 160.084 52.8518 160.084 58.5926V71.6049V72.3704H169C169 71.2222 168.81 66.0555 168.81 58.4012V46.1543C168.81 42.3272 168.051 38.3086 164.447 36.2037C163.499 36.0123 162.171 35.821 160.843 35.6296Z" fill="#4A4A4A"/>
</g>
<defs>
<clipPath id="clip0_1_84">
<rect width="129" height="62" fill="white" transform="translate(40 23)"/>
</clipPath>
</defs>
</svg>
