<svg width="24" height="24" viewBox="0 0 24 24" fill="none" xmlns="http://www.w3.org/2000/svg">
<path fill-rule="evenodd" clip-rule="evenodd" d="M5 3C4.44 3 4 3.44 4 4C4 4.55 4.44 5 5 5H19C19.55 5 20 4.55 20 4C20 3.44 19.55 3 19 3H5ZM10 10C10.55 10 11 9.55 11 9C11 8.44 10.55 8 10 8C9.44 8 9 8.44 9 9C9 9.55 9.44 10 10 10ZM12 16C10.89 16 10 16.89 10 18V21H14V18C14 16.89 13.1 16 12 16ZM11 13C11 13.55 10.55 14 10 14C9.44 14 9 13.55 9 13C9 12.44 9.44 12 10 12C10.55 12 11 12.44 11 13ZM14 14C14.55 14 15 13.55 15 13C15 12.44 14.55 12 14 12C13.44 12 13 12.44 13 13C13 13.55 13.44 14 14 14ZM15 9C15 9.55 14.55 10 14 10C13.44 10 13 9.55 13 9C13 8.44 13.44 8 14 8C14.55 8 15 8.44 15 9Z" fill="#1DD1A1" style="fill:#1DD1A1;fill:color(display-p3 0.1137 0.8196 0.6314);fill-opacity:1;"/>
<path fill-rule="evenodd" clip-rule="evenodd" d="M5 6V19.9512C5 20.5035 5.44772 20.9512 6 20.9512H9.98047L9.99023 17.9707C9.99023 16.8711 10.8809 15.9805 11.9902 15.9805C13.0898 15.9805 13.9902 16.8711 13.9902 17.9805V20.9707H17.9902C18.541 20.9707 18.9902 20.5293 18.9902 19.9805V4.99023H4.99023L5 6ZM10.9805 8.98047C10.9805 9.5293 10.5312 9.98047 9.98047 9.98047V9.96094C9.41992 9.96094 8.98047 9.51953 8.98047 8.9707C8.98047 8.41992 9.41992 7.98047 9.98047 7.98047C10.5312 7.98047 10.9805 8.41992 10.9805 8.98047ZM13.9805 9.9707C14.5312 9.9707 14.9805 9.5293 14.9805 8.98047V8.96094C14.9805 8.41016 14.5312 7.9707 13.9805 7.9707C13.7031 7.9707 13.4551 8.07812 13.2754 8.25586C13.0938 8.43555 12.9805 8.6875 12.9805 8.9707C12.9805 9.51953 13.4199 9.9707 13.9805 9.9707ZM10.9805 12.9707C10.9805 13.5195 10.5312 13.9707 9.98047 13.9707V13.9512C9.41992 13.9512 8.98047 13.5098 8.98047 12.9609C8.98047 12.4102 9.41992 11.9707 9.98047 11.9707C10.5312 11.9707 10.9805 12.4102 10.9805 12.9707ZM13.9805 13.9609C14.5312 13.9609 14.9805 13.5195 14.9805 12.9707V12.9512C14.9805 12.4004 14.5312 11.9609 13.9805 11.9609C13.4199 11.9609 12.9805 12.4004 12.9805 12.9609C12.9805 13.5098 13.4199 13.9609 13.9805 13.9609Z" fill="#1DD1A1" fill-opacity="0.4" style="fill:#1DD1A1;fill:color(display-p3 0.1137 0.8196 0.6314);fill-opacity:0.4;"/>
</svg>
