<svg viewBox="0 0 24 24" xmlns="http://www.w3.org/2000/svg"><path fill="#1DD1A1" fill-opacity=".4" fill-rule="evenodd" d="M7 11.11l-3.01 1.5v6.38h3v1c0 .54.44.99.99 1h-5c-.56 0-1.01-.45-1.01-1v-8c0-.38.21-.73.55-.9l4.45-2.23v2.23Z"/><path fill="#1DD1A1" fill-rule="evenodd" d="M16.5 2.125c.14-.09.33-.125.5-.125h3c.55 0 1 .44 1 1v17c0 .55-.45 1-1 1 -.01-.01-4.01-.02-4.01-.02v-1.01c0-.56-.45-1-1-1h-2c-.56 0-1 .44-1 1v1.01l-4 0c-.56 0-1-.45-1-1v-12c0-.37.18-.7.5-.88l9-5Zm-4.51 13.86c.55 0 1-.45 1-1 0-.56-.45-1-1-1 -.56 0-1 .44-1 1 0 .55.44 1 1 1Zm5-1c0 .55-.45 1-1 1 -.56 0-1-.45-1-1 0-.56.44-1 1-1 .55 0 1 .44 1 1Zm-1-3c.55 0 1-.45 1-1 0-.56-.45-1-1-1 -.56 0-1 .44-1 .99s.44 1 1 1Zm-3-1c0 .55-.45 1-1 1 -.56 0-1-.45-1-1 0-.56.44-1 1-1 .55 0 1 .44 1 .99Zm3-3c.55 0 1-.45 1-1 0-.56-.45-1-1-1 -.56 0-1 .44-1 1 0 .55.44 1 1 1Z"/></svg>