<svg width="24" height="24" viewBox="0 0 24 24" fill="none" xmlns="http://www.w3.org/2000/svg">
<path opacity="0.3" d="M20 13H4C2.9 13 2 12.1 2 11V5C2 4.4 2.4 4 3 4H21C21.6 4 22 4.4 22 5V11C22 12.1 21.1 13 20 13ZM13 10H11C10.5 10 10 10.4 10 11V14C10 14.5 10.4 15 11 15H13C13.6 15 14 14.6 14 14V11C14 10.4 13.6 10 13 10Z" fill="#1DD1A1"/>
<path d="M14 4V3H10V4H8V3C8 1.9 8.9 1 10 1H14C15.1 1 16 1.9 16 3V4H14ZM20 13H14V14C14 14.6 13.5 15 13 15H11C10.5 15 10 14.6 10 14V13H4C3.6 13 3.3 12.9 3 12.7V16C3 17.1 3.9 18 5 18H19C20.1 18 21 17.1 21 16V12.7C20.7 12.9 20.4 13 20 13Z" fill="#1DD1A1"/>
</svg>
