<svg width="200" height="100" viewBox="0 0 200 100" fill="none" xmlns="http://www.w3.org/2000/svg">
<path fill-rule="evenodd" clip-rule="evenodd" d="M35.81 29.4247C20.5609 31.8119 12.3935 49.3265 20.049 63.2232C20.6069 64.2358 22.2497 66.2779 23.7001 67.7609C35.8449 80.1816 56.1257 74.4545 60.5145 57.3648C61.0257 55.3743 61.1498 53.0802 61.3393 42.133L61.5621 29.2446L59.3025 31.3071C58.0599 32.4413 56.5451 33.9012 55.9362 34.5513L54.8288 35.7334L52.9962 34.1931C48.4833 30.4006 41.6632 28.5085 35.81 29.4247M100.653 35.657C100.653 41.259 100.624 41.5405 100.082 41.0521C98.9847 40.0639 96.8133 39.154 94.6162 38.762C80.1596 36.1819 71.2275 53.8568 81.2454 65.2204C85.6113 70.1725 94.2376 71.3743 99.411 67.7512C100.93 66.6873 100.98 66.6923 100.98 67.9099V68.9142H107.513V29.7468H100.653V35.657ZM114.862 30.5549C111.674 33.8212 115.982 38.5487 119.342 35.4719C120.208 34.6795 120.402 34.253 120.402 33.1426C120.402 30.2011 116.833 28.5343 114.862 30.5549M159.604 30.7651C158.883 31.5358 158.651 32.1025 158.651 33.0944C158.651 37.0118 164.263 37.7547 165.192 33.9601C166.025 30.5613 161.964 28.2397 159.604 30.7651ZM172.62 30.5546C171.835 31.2462 171.703 31.6121 171.703 33.0944C171.703 36.3138 175.106 37.7379 177.27 35.4237C180.199 32.2903 175.835 27.7208 172.62 30.5546M138.781 38.7971C137.13 39.2209 135.853 39.9233 134.468 41.1696L133.32 42.2023V39.1202H126.787V68.9142H133.32V60.9501C133.32 52.6333 133.609 50.2691 134.907 47.9931C136.593 45.0348 141.655 44.6384 143.702 47.3051C145.147 49.1872 145.407 51.176 145.407 60.3455V68.9142H152.307L152.205 57.9506L152.103 46.9871L151.179 44.9364C149.083 40.2895 143.582 37.5652 138.781 38.7971ZM113.72 54.0054V68.9142H120.587L120.502 54.1009L120.417 39.2876L117.068 39.1921L113.72 39.0967V54.0054ZM158.691 39.3435C158.571 39.466 158.473 46.1696 158.473 54.2405V68.9142H165.333V39.1202H162.121C160.354 39.1202 158.811 39.2206 158.691 39.3435ZM171.54 54.0054V68.9142H178.407L178.322 54.1009L178.237 39.2876L174.888 39.1921L171.54 39.0967V54.0054ZM35.9733 39.7495C23.9017 43.8179 24.3365 60.9746 36.5855 63.8954C48.1691 66.6578 56.0199 51.6119 47.5331 42.9147C44.8835 40.1991 39.2312 38.6515 35.9733 39.7495ZM88.9965 46.1509C83.5128 48.6496 82.3195 56.4958 86.8085 60.535C92.1257 65.3191 100.34 61.615 100.394 54.4085C100.442 47.9707 94.4809 43.6519 88.9965 46.1509" fill="#FBFBFB"/>
<path d="M35.81 29.4247C20.5609 31.8119 12.3935 49.3265 20.049 63.2232C20.6069 64.2358 22.2497 66.2779 23.7001 67.7609C35.8449 80.1816 56.1257 74.4545 60.5145 57.3648C61.0257 55.3743 61.1498 53.0802 61.3393 42.133L61.5621 29.2446L59.3025 31.3071C58.0599 32.4413 56.5451 33.9012 55.9362 34.5513L54.8288 35.7334L52.9962 34.1931C48.4833 30.4006 41.6632 28.5085 35.81 29.4247M114.862 30.5549C111.674 33.8212 115.982 38.5487 119.342 35.4719C120.208 34.6795 120.402 34.253 120.402 33.1426C120.402 30.2011 116.833 28.5343 114.862 30.5549M172.62 30.5546C171.835 31.2462 171.703 31.6121 171.703 33.0944C171.703 36.3138 175.106 37.7379 177.27 35.4237C180.199 32.2903 175.835 27.7208 172.62 30.5546M88.9965 46.1509C83.5128 48.6496 82.3195 56.4958 86.8085 60.535C92.1257 65.3191 100.34 61.615 100.394 54.4085C100.442 47.9707 94.4809 43.6519 88.9965 46.1509M100.653 35.657C100.653 41.259 100.624 41.5405 100.082 41.0521C98.9847 40.0639 96.8133 39.154 94.6162 38.762C80.1596 36.1819 71.2275 53.8568 81.2454 65.2204C85.6113 70.1725 94.2376 71.3743 99.411 67.7512C100.93 66.6873 100.98 66.6923 100.98 67.9099V68.9142H107.513V29.7468H100.653V35.657ZM159.604 30.7651C158.883 31.5358 158.651 32.1025 158.651 33.0944C158.651 37.0118 164.263 37.7547 165.192 33.9601C166.025 30.5613 161.964 28.2397 159.604 30.7651ZM138.781 38.7971C137.13 39.2209 135.853 39.9233 134.468 41.1696L133.32 42.2023V39.1202H126.787V68.9142H133.32V60.9501C133.32 52.6333 133.609 50.2691 134.907 47.9931C136.593 45.0348 141.655 44.6384 143.702 47.3051C145.147 49.1872 145.407 51.176 145.407 60.3455V68.9142H152.307L152.205 57.9506L152.103 46.9871L151.179 44.9364C149.083 40.2895 143.582 37.5652 138.781 38.7971ZM113.72 54.0054V68.9142H120.587L120.502 54.1009L120.417 39.2876L117.068 39.1921L113.72 39.0967V54.0054ZM158.691 39.3435C158.571 39.466 158.473 46.1696 158.473 54.2405V68.9142H165.333V39.1202H162.121C160.354 39.1202 158.811 39.2206 158.691 39.3435ZM171.54 54.0054V68.9142H178.407L178.322 54.1009L178.237 39.2876L174.888 39.1921L171.54 39.0967V54.0054ZM35.9733 39.7495C23.9017 43.8179 24.3365 60.9746 36.5855 63.8954C48.1691 66.6578 56.0199 51.6119 47.5331 42.9147C44.8835 40.1991 39.2312 38.6515 35.9733 39.7495Z" stroke="#FBFBFB"/>
<path fill-rule="evenodd" clip-rule="evenodd" d="M33.3613 30.1261C21.8371 33.2956 14.77 45.9172 17.9576 57.6356C23.8517 79.3049 53.336 79.8167 60.1836 58.3691C60.9025 56.1171 60.9365 55.5102 61.0473 42.8026L61.1629 29.5794L57.9596 32.8209L54.7566 36.0624L53.236 34.6367C48.4249 30.1251 40.1736 28.2524 33.3613 30.1261M100.653 35.6279V41.509L99.686 40.8034C93.2337 36.0949 82.5191 39.15 78.8062 46.7568C71.8802 60.9454 87.3018 76.1032 99.8121 67.403L100.98 66.5909V68.9142H107.513V29.7468H100.653V35.6279ZM114.958 30.7169C114.081 31.5197 113.898 31.9294 113.898 33.0944C113.898 36.0454 117.282 37.5297 119.298 35.4635C122.312 32.3757 118.135 27.8078 114.958 30.7169M159.755 30.7253C156.742 33.8132 160.919 38.381 164.096 35.4719C164.972 34.6691 165.155 34.2594 165.155 33.0944C165.155 30.1435 161.771 28.6591 159.755 30.7253M172.651 30.885C170.577 33.0097 172.005 36.4421 174.962 36.4421C176.709 36.4421 178.073 34.9738 178.073 33.0944C178.073 29.9607 174.839 28.6427 172.651 30.885ZM137.24 39.461C136.431 39.8459 135.219 40.7106 134.545 41.3825L133.32 42.6037V39.4549H126.787V68.9142H133.32V60.7827C133.32 48.0825 134.335 45.6481 139.632 45.6481C144.687 45.6481 145.201 46.8941 145.34 59.4571L145.444 68.9142H152.315L152.199 58.118C152.066 45.7083 151.908 44.8781 149.134 41.9519C146.326 38.9916 140.699 37.8132 137.24 39.461ZM36.4633 39.5892C25.1459 42.445 23.4878 57.8763 33.9356 63.1137C36.8511 64.5753 41.4642 64.5083 44.5362 62.9597C51.8186 59.289 53.5637 49.4624 48.0263 43.3061C45.006 39.948 40.6237 38.5394 36.4633 39.5892ZM113.72 54.1845V68.9142H120.58V39.4549H113.72V54.1845ZM158.8 54.1845V68.9142H165.333V39.4549H158.8V54.1845ZM171.54 54.1845V68.9142H178.073V39.4549H171.54V54.1845ZM88.7166 46.2731C82.458 49.2595 82.4041 58.6623 88.6267 61.9156C94.8285 65.1578 101.77 59.4661 100.323 52.3246C99.2052 46.807 93.6581 43.915 88.7166 46.2731" fill="#DC6C45"/>
<path d="M33.3613 30.1261C21.8371 33.2956 14.77 45.9172 17.9576 57.6356C23.8517 79.3049 53.336 79.8167 60.1836 58.3691C60.9025 56.1171 60.9365 55.5102 61.0473 42.8026L61.1629 29.5794L57.9596 32.8209L54.7566 36.0624L53.236 34.6367C48.4249 30.1251 40.1736 28.2524 33.3613 30.1261M114.958 30.7169C114.081 31.5197 113.898 31.9294 113.898 33.0944C113.898 36.0454 117.282 37.5297 119.298 35.4635C122.312 32.3757 118.135 27.8078 114.958 30.7169M159.755 30.7253C156.742 33.8132 160.919 38.381 164.096 35.4719C164.972 34.6691 165.155 34.2594 165.155 33.0944C165.155 30.1435 161.771 28.6591 159.755 30.7253M88.7166 46.2731C82.458 49.2595 82.4041 58.6623 88.6267 61.9156C94.8285 65.1578 101.77 59.4661 100.323 52.3246C99.2052 46.807 93.6581 43.915 88.7166 46.2731M100.653 35.6279V41.509L99.686 40.8034C93.2337 36.0949 82.5191 39.15 78.8062 46.7568C71.8802 60.9454 87.3018 76.1032 99.8121 67.403L100.98 66.5909V68.9142H107.513V29.7468H100.653V35.6279ZM172.651 30.885C170.577 33.0097 172.005 36.4421 174.962 36.4421C176.709 36.4421 178.073 34.9738 178.073 33.0944C178.073 29.9607 174.839 28.6427 172.651 30.885ZM137.24 39.461C136.431 39.8459 135.219 40.7106 134.545 41.3825L133.32 42.6037V39.4549H126.787V68.9142H133.32V60.7827C133.32 48.0825 134.335 45.6481 139.632 45.6481C144.687 45.6481 145.201 46.8941 145.34 59.4571L145.444 68.9142H152.315L152.199 58.118C152.066 45.7083 151.908 44.8781 149.134 41.9519C146.326 38.9916 140.699 37.8132 137.24 39.461ZM36.4633 39.5892C25.1459 42.445 23.4878 57.8763 33.9356 63.1137C36.8511 64.5753 41.4642 64.5083 44.5362 62.9597C51.8186 59.289 53.5637 49.4624 48.0263 43.3061C45.006 39.948 40.6237 38.5394 36.4633 39.5892ZM113.72 54.1845V68.9142H120.58V39.4549H113.72V54.1845ZM158.8 54.1845V68.9142H165.333V39.4549H158.8V54.1845ZM171.54 54.1845V68.9142H178.073V39.4549H171.54V54.1845Z" stroke="#DC6C45"/>
<path fill-rule="evenodd" clip-rule="evenodd" d="M100.653 35.5744V41.4019L98.4082 40.2215C92.0722 36.8903 83.8924 39.1382 79.7163 45.3588C76.8283 49.6599 76.3301 55.9598 78.508 60.6341C80.1393 64.1347 82.4283 66.5725 85.5852 68.1717C90.0034 70.4092 96.3675 69.9161 100.245 67.0351C100.97 66.4965 100.98 66.5055 100.98 67.7016V68.9142H107.513V29.7468H100.653V35.5744ZM115.68 30.1729C114.418 30.816 113.554 32.8812 114.043 34.089C115.688 38.1587 121.009 36.3768 120.085 32.0657C119.697 30.2566 117.428 29.2818 115.68 30.1729M160.469 30.1974C157.326 32.0496 159.164 37.0751 162.695 36.2804C164.87 35.7906 165.779 32.7038 164.272 30.9258C163.389 29.8847 161.586 29.5392 160.469 30.1974ZM173.617 30.0789C171.89 30.7929 171.292 33.5946 172.524 35.1994C173.827 36.8973 176.638 36.6416 177.599 34.7378C179.051 31.8605 176.506 28.8838 173.617 30.0789M137.864 39.2855C137.039 39.557 135.679 40.3966 134.842 41.1519L133.32 42.5247V39.4549H126.787V68.9142H133.348L133.296 60.6288C133.215 47.8458 134.412 45.1754 140.056 45.5436C144.814 45.8543 145.718 48.3402 145.728 61.1309L145.733 68.9142H152.267L152.257 59.9592C152.242 47.0688 151.792 44.705 148.783 41.731C146.218 39.1955 141.411 38.1189 137.864 39.2855ZM113.72 54.1845V68.9142H120.253V39.4549H113.72V54.1845ZM158.8 54.1845V68.9142H165.333V39.4549H158.8V54.1845ZM171.867 54.1845V68.9142H178.073V39.4549H171.867V54.1845ZM90.6332 45.5008C83.6102 46.8971 81.4565 56.6477 87.1865 61.1055C92.8996 65.5501 100.447 61.6156 100.464 54.1845C100.477 48.3309 96.0532 44.4232 90.6332 45.5008Z" fill="#2C2C2C"/>
<path d="M115.68 30.1729C114.418 30.816 113.554 32.8812 114.043 34.089C115.688 38.1587 121.009 36.3768 120.085 32.0657C119.697 30.2566 117.428 29.2818 115.68 30.1729M173.617 30.0789C171.89 30.7929 171.292 33.5946 172.524 35.1994C173.827 36.8973 176.638 36.6416 177.599 34.7378C179.051 31.8605 176.506 28.8838 173.617 30.0789M100.653 35.5744V41.4019L98.4082 40.2215C92.0722 36.8903 83.8924 39.1382 79.7163 45.3588C76.8283 49.6599 76.3301 55.9598 78.508 60.6341C80.1393 64.1347 82.4283 66.5725 85.5852 68.1717C90.0034 70.4092 96.3675 69.9161 100.245 67.0351C100.97 66.4965 100.98 66.5055 100.98 67.7016V68.9142H107.513V29.7468H100.653V35.5744ZM160.469 30.1974C157.326 32.0496 159.164 37.0751 162.695 36.2804C164.87 35.7906 165.779 32.7038 164.272 30.9258C163.389 29.8847 161.586 29.5392 160.469 30.1974ZM137.864 39.2855C137.039 39.557 135.679 40.3966 134.842 41.1519L133.32 42.5247V39.4549H126.787V68.9142H133.348L133.296 60.6288C133.215 47.8458 134.412 45.1754 140.056 45.5436C144.814 45.8543 145.718 48.3402 145.728 61.1309L145.733 68.9142H152.267L152.257 59.9592C152.242 47.0688 151.792 44.705 148.783 41.731C146.218 39.1955 141.411 38.1189 137.864 39.2855ZM113.72 54.1845V68.9142H120.253V39.4549H113.72V54.1845ZM158.8 54.1845V68.9142H165.333V39.4549H158.8V54.1845ZM171.867 54.1845V68.9142H178.073V39.4549H171.867V54.1845ZM90.6332 45.5008C83.6102 46.8971 81.4565 56.6477 87.1865 61.1055C92.8996 65.5501 100.447 61.6156 100.464 54.1845C100.477 48.3309 96.0532 44.4232 90.6332 45.5008Z" stroke="#2C2C2C"/>
</svg>
