<svg width="22" height="22" viewBox="0 0 22 22" fill="none" xmlns="http://www.w3.org/2000/svg">
<g clip-path="url(#clip0_1356_2916)">
<path opacity="0.3" d="M19.5997 3.52344H2.39639C2.09618 3.53047 1.8003 3.59658 1.52565 3.718C1.25101 3.83941 1.00298 4.01375 0.79573 4.23106C0.588484 4.44837 0.426087 4.70438 0.317815 4.98447C0.209544 5.26456 0.157521 5.56324 0.164719 5.86344C0.157521 6.16364 0.209544 6.46232 0.317815 6.74241C0.426087 7.0225 0.588484 7.27851 0.79573 7.49581C1.00298 7.71312 1.25101 7.88746 1.52565 8.00888C1.8003 8.1303 2.09618 8.19641 2.39639 8.20344H19.5997C19.8999 8.19641 20.1958 8.1303 20.4704 8.00888C20.7451 7.88746 20.9931 7.71312 21.2004 7.49581C21.4076 7.27851 21.57 7.0225 21.6783 6.74241C21.7866 6.46232 21.8386 6.16364 21.8314 5.86344C21.8386 5.56324 21.7866 5.26456 21.6783 4.98447C21.57 4.70438 21.4076 4.44837 21.2004 4.23106C20.9931 4.01375 20.7451 3.83941 20.4704 3.718C20.1958 3.59658 19.8999 3.53047 19.5997 3.52344Z" fill="#1DD1A1" fill-opacity="0.8"/>
<path d="M2.39453 8.20312L4.01953 18.3106C4.15644 19.1445 4.58173 19.9038 5.22121 20.4562C5.8607 21.0085 6.6738 21.3189 7.5187 21.3331H14.5712C15.4215 21.3197 16.2395 21.0055 16.8801 20.4463C17.5207 19.887 17.9424 19.1188 18.0704 18.2781L19.5979 8.20312H2.39453ZM9.28453 16.3173C9.28453 16.5328 9.19893 16.7394 9.04656 16.8918C8.89418 17.0442 8.68752 17.1298 8.47203 17.1298C8.25654 17.1298 8.04988 17.0442 7.89751 16.8918C7.74513 16.7394 7.65953 16.5328 7.65953 16.3173V12.4064C7.65953 12.191 7.74513 11.9843 7.89751 11.8319C8.04988 11.6795 8.25654 11.5939 8.47203 11.5939C8.68752 11.5939 8.89418 11.6795 9.04656 11.8319C9.19893 11.9843 9.28453 12.191 9.28453 12.4064V16.3173ZM14.322 16.3173C14.322 16.5328 14.2364 16.7394 14.0841 16.8918C13.9317 17.0442 13.725 17.1298 13.5095 17.1298C13.294 17.1298 13.0874 17.0442 12.935 16.8918C12.7826 16.7394 12.697 16.5328 12.697 16.3173V12.4064C12.697 12.191 12.7826 11.9843 12.935 11.8319C13.0874 11.6795 13.294 11.5939 13.5095 11.5939C13.725 11.5939 13.9317 11.6795 14.0841 11.8319C14.2364 11.9843 14.322 12.191 14.322 12.4064V16.3173Z" fill="#1DD1A1" fill-opacity="0.8"/>
<path d="M17.3895 4.87706C17.2529 4.87727 17.1185 4.84254 16.999 4.77618C16.8796 4.70982 16.7791 4.61403 16.707 4.4979L14.5945 1.2479C14.488 1.07014 14.4544 0.858014 14.5009 0.656033C14.5473 0.454052 14.6702 0.277912 14.8437 0.164567C15.0215 0.0621596 15.2311 0.0298326 15.4315 0.0739188C15.6319 0.118005 15.8086 0.235328 15.927 0.4029L18.0395 3.70706C18.1434 3.8855 18.1755 4.09679 18.1292 4.29801C18.0829 4.49923 17.9618 4.67528 17.7904 4.7904C17.6659 4.85176 17.5282 4.88153 17.3895 4.87706Z" fill="#1DD1A1" fill-opacity="0.8"/>
<path d="M4.49988 4.88606C4.34679 4.89036 4.19591 4.84887 4.06655 4.76689C3.89514 4.65178 3.77399 4.47573 3.72771 4.2745C3.68143 4.07328 3.71349 3.86199 3.81738 3.68356L5.98405 0.433558C6.09739 0.260044 6.27353 0.137169 6.47551 0.0907131C6.6775 0.0442575 6.88962 0.0778313 7.06738 0.184391C7.23676 0.301182 7.35627 0.477156 7.40239 0.67766C7.4485 0.878165 7.41788 1.08867 7.31655 1.26773L5.20405 4.51773C5.12881 4.63503 5.0243 4.73069 4.90082 4.79529C4.77733 4.85988 4.63914 4.89116 4.49988 4.88606Z" fill="#1DD1A1" fill-opacity="0.8"/>
</g>
<defs>
<clipPath id="clip0_1356_2916">
<rect width="22" height="22" fill="white"/>
</clipPath>
</defs>
</svg>
