<svg width="136" height="40" viewBox="0 0 136 40" fill="none" xmlns="http://www.w3.org/2000/svg">
<path fill-rule="evenodd" clip-rule="evenodd" d="M130.961 40H5.03889C2.26175 40 0 37.7456 0 35V5C0 2.24439 2.26175 0 5.03889 0H130.961C133.736 0 136 2.24439 136 5V35C136 37.7456 133.736 40 130.961 40Z" fill="black"/>
<path fill-rule="evenodd" clip-rule="evenodd" d="M130.961 0.800499C133.29 0.800499 135.197 2.68828 135.197 5V35C135.197 37.3117 133.303 39.1995 130.961 39.1995H5.03889C2.70959 39.1995 0.80312 37.3117 0.80312 35V5C0.80312 2.68828 2.69708 0.800499 5.03889 0.800499C5.03889 0.800499 130.961 0.800499 130.961 0.800499ZM130.961 0H5.03889C2.26175 0 0 2.25436 0 5V35C0 37.7556 2.26175 40 5.03889 40H130.961C133.736 40 136 37.7556 136 35V5C136 2.25436 133.736 0 130.961 0Z" fill="#A6A6A6"/>
<path fill-rule="evenodd" clip-rule="evenodd" d="M10.4696 7.53364C10.1793 7.84536 10.0117 8.32167 10.0117 8.94511V31.0573C10.0117 31.6808 10.1793 32.1571 10.4796 32.4563L10.5571 32.5237L22.9867 20.1346V19.8578L10.5471 7.46631L10.4696 7.53364Z" fill="url(#paint0_linear_212_1051)"/>
<path fill-rule="evenodd" clip-rule="evenodd" d="M27.1223 24.2768L22.9766 20.1446V19.8553L27.1223 15.7231L27.2123 15.778L32.1161 18.5561C33.5197 19.3441 33.5197 20.6458 32.1161 21.4438L27.2123 24.2219L27.1223 24.2768Z" fill="url(#paint1_linear_212_1051)"/>
<path fill-rule="evenodd" clip-rule="evenodd" d="M27.2117 24.2219L22.9759 20L10.4688 32.4663C10.9266 32.9551 11.6947 33.01 12.5529 32.5337L27.2117 24.2219Z" fill="url(#paint2_linear_212_1051)"/>
<path fill-rule="evenodd" clip-rule="evenodd" d="M27.2117 15.7779L12.5529 7.47869C11.6947 6.98992 10.9241 7.05725 10.4688 7.54603L22.9759 19.9999L27.2117 15.7779Z" fill="url(#paint3_linear_212_1051)"/>
<path opacity="0.2" fill-rule="evenodd" clip-rule="evenodd" d="M27.1194 24.1321L12.5607 32.3765C11.7475 32.8428 11.022 32.8104 10.5541 32.3865L10.4766 32.4638L10.5541 32.5311C11.022 32.9525 11.7475 32.9875 12.5607 32.5211L27.2195 24.2219L27.1194 24.1321Z" fill="black"/>
<path opacity="0.12" fill-rule="evenodd" clip-rule="evenodd" d="M32.1157 21.2993L27.1094 24.1322L27.1994 24.2219L32.1032 21.4439C32.8063 21.0449 33.1515 20.5212 33.1515 20C33.109 20.4788 32.7512 20.9327 32.1157 21.2993Z" fill="black"/>
<path opacity="0.25" fill-rule="evenodd" clip-rule="evenodd" d="M12.5537 7.62354L32.1163 18.7008C32.7518 19.0575 33.1096 19.5238 33.1646 20.0001C33.1646 19.4789 32.8193 18.9552 32.1163 18.5562L12.5537 7.4789C11.1501 6.6784 10.0117 7.34673 10.0117 8.94523V9.08987C10.0117 7.48888 11.1501 6.83301 12.5537 7.62354Z" fill="white"/>
<path d="M99.3708 18.1333H101.013V7.11229H99.3708V18.1232V18.1333ZM114.17 11.0815L112.286 15.8566H112.225L110.271 11.0815H108.508L111.44 17.7505L109.767 21.4578H111.48L115.993 11.0815H114.17ZM104.841 16.8842C104.297 16.8842 103.552 16.6122 103.552 15.9473C103.552 15.1011 104.488 14.7686 105.294 14.7686C105.842 14.7543 106.383 14.8939 106.856 15.1716C106.783 15.652 106.539 16.0899 106.169 16.4046C105.798 16.7193 105.327 16.8897 104.841 16.8842ZM105.043 10.8397C104.442 10.7961 103.842 10.933 103.32 11.2327C102.797 11.5325 102.376 11.9815 102.111 12.5221L103.562 13.1366C103.705 12.8694 103.924 12.65 104.191 12.5051C104.457 12.3602 104.76 12.296 105.063 12.3206C105.48 12.2812 105.897 12.4083 106.221 12.6743C106.546 12.9403 106.752 13.3237 106.795 13.7411V13.8519C106.268 13.5728 105.68 13.4275 105.083 13.4288C103.511 13.4288 101.91 14.2951 101.91 15.9069C101.925 16.2472 102.008 16.5809 102.154 16.8884C102.301 17.1959 102.507 17.4709 102.762 17.6973C103.016 17.9236 103.314 18.0966 103.636 18.2061C103.959 18.3156 104.3 18.3594 104.64 18.3348C105.053 18.3579 105.465 18.2702 105.834 18.0807C106.202 17.8912 106.513 17.6068 106.735 17.2569H106.856V18.1031H108.437V13.882C108.437 11.9277 106.987 10.8598 105.103 10.8598L105.043 10.8397ZM94.8878 12.4213H92.5506V8.64357H94.8878C95.1475 8.6246 95.4083 8.65931 95.6539 8.74564C95.8995 8.83197 96.1247 8.96805 96.3154 9.14531C96.5061 9.32256 96.6582 9.53719 96.7622 9.77586C96.8662 10.0145 96.9198 10.2721 96.9198 10.5325C96.9198 10.7928 96.8662 11.0503 96.7622 11.289C96.6582 11.5277 96.5061 11.7424 96.3154 11.9196C96.1247 12.0969 95.8995 12.2329 95.6539 12.3192C95.4083 12.4055 95.1475 12.4403 94.8878 12.4213ZM94.8878 7.11229H90.9589V18.1232H92.601V13.9627H94.8878C95.3526 13.9879 95.8176 13.9181 96.2545 13.7577C96.6914 13.5972 97.091 13.3493 97.4289 13.0293C97.7668 12.7092 98.036 12.3236 98.22 11.8961C98.4039 11.4685 98.4987 11.008 98.4987 10.5425C98.4987 10.0771 98.4039 9.61652 98.22 9.18896C98.036 8.76141 97.7668 8.37582 97.4289 8.05575C97.091 7.73568 96.6914 7.48786 96.2545 7.32738C95.8176 7.16689 95.3526 7.09714 94.8878 7.12238V7.11229ZM73.42 16.8741C72.8436 16.8357 72.3035 16.5796 71.9088 16.1578C71.5142 15.736 71.2946 15.18 71.2946 14.6024C71.2946 14.0247 71.5142 13.4687 71.9088 13.0469C72.3035 12.6251 72.8436 12.3691 73.42 12.3307C73.7043 12.3432 73.9831 12.4131 74.2397 12.5359C74.4964 12.6587 74.7256 12.8321 74.9137 13.0456C75.1018 13.2591 75.2449 13.5083 75.3345 13.7784C75.424 14.0485 75.4581 14.3339 75.4348 14.6175C75.4567 14.8992 75.4214 15.1825 75.331 15.4503C75.2406 15.718 75.097 15.9648 74.9088 16.1756C74.7206 16.3864 74.4916 16.5569 74.2357 16.6769C73.9799 16.797 73.7024 16.8641 73.42 16.8741ZM75.3139 11.696H75.2535C74.9987 11.4184 74.6864 11.1998 74.3384 11.0553C73.9904 10.9109 73.6151 10.8442 73.2387 10.8598C72.2797 10.9096 71.3764 11.3257 70.7152 12.0221C70.054 12.7185 69.6853 13.6421 69.6853 14.6024C69.6853 15.5627 70.054 16.4863 70.7152 17.1827C71.3764 17.8791 72.2797 18.2951 73.2387 18.3449C73.6161 18.3614 73.9926 18.294 74.3409 18.1477C74.6893 18.0013 75.001 17.7797 75.2535 17.4987H75.3139V18.0326C75.3564 18.3157 75.3351 18.6047 75.2517 18.8785C75.1683 19.1523 75.0249 19.4041 74.8319 19.6155C74.6388 19.8269 74.401 19.9925 74.1359 20.1003C73.8707 20.2081 73.5849 20.2555 73.2991 20.2388C72.8855 20.2359 72.4829 20.1056 72.1459 19.8659C71.8089 19.6262 71.5538 19.2886 71.4153 18.899L69.9747 19.4933C70.2453 20.1516 70.7063 20.7142 71.2985 21.109C71.8907 21.5038 72.5873 21.713 73.2991 21.7096C75.2333 21.7096 76.8552 20.5813 76.8552 17.811V11.1419H75.3038V11.7564L75.3139 11.696ZM78.0037 18.1232H79.6558V7.11229H78.0138V18.1232H78.0037ZM82.0333 14.4865C82.0113 14.2129 82.0454 13.9376 82.1336 13.6777C82.2218 13.4177 82.3622 13.1785 82.5461 12.9747C82.7301 12.771 82.9537 12.607 83.2034 12.4927C83.453 12.3785 83.7233 12.3165 83.9978 12.3105C84.2806 12.2937 84.5622 12.3589 84.8088 12.4983C85.0554 12.6377 85.2566 12.8453 85.388 13.0963L82.0333 14.4865ZM87.1409 13.2373C86.9156 12.5601 86.4874 11.9685 85.9142 11.5432C85.341 11.1178 84.6508 10.8792 83.9373 10.8598C83.4559 10.8633 82.9801 10.9642 82.5387 11.1565C82.0974 11.3488 81.6995 11.6284 81.3691 11.9786C81.0387 12.3288 80.7826 12.7422 80.6163 13.194C80.45 13.6458 80.3768 14.1266 80.4013 14.6074C80.3918 15.0991 80.4814 15.5878 80.6645 16.0442C80.8477 16.5006 81.1209 16.9155 81.4677 17.2642C81.8145 17.6129 82.2279 17.8883 82.6834 18.0739C83.1388 18.2596 83.6269 18.3518 84.1187 18.3449C84.7351 18.3484 85.3428 18.1994 85.8877 17.9111C86.4326 17.6229 86.8977 17.2043 87.2417 16.6927L85.9622 15.8364C85.7678 16.149 85.4959 16.406 85.1729 16.5825C84.8498 16.759 84.4867 16.849 84.1187 16.8438C83.7371 16.8578 83.3602 16.7567 83.0368 16.5537C82.7135 16.3507 82.4586 16.0552 82.3053 15.7055L87.3424 13.6403L87.1711 13.2071L87.1409 13.2373ZM47.2476 12.0083V13.6H51.0455C50.9945 14.3507 50.6888 15.0614 50.1791 15.6148C49.8 16.0047 49.3431 16.3103 48.8379 16.5117C48.3328 16.713 47.7909 16.8056 47.2476 16.7834C46.1254 16.7834 45.0492 16.3377 44.2557 15.5442C43.4622 14.7507 43.0164 13.6745 43.0164 12.5523C43.0164 11.4302 43.4622 10.354 44.2557 9.56047C45.0492 8.76698 46.1254 8.32119 47.2476 8.32119C48.3143 8.30695 49.3432 8.71634 50.1086 9.45957L51.2369 8.3413C50.7064 7.8185 50.0764 7.4074 49.3843 7.13228C48.6922 6.85715 47.9519 6.72362 47.2072 6.73956C46.4439 6.73956 45.688 6.8899 44.9828 7.18202C44.2776 7.47414 43.6368 7.90232 43.0971 8.44208C42.5573 8.98184 42.1291 9.6226 41.837 10.3278C41.5449 11.0331 41.3945 11.789 41.3945 12.5523C41.3945 13.3157 41.5449 14.0715 41.837 14.7767C42.1291 15.482 42.5573 16.1227 43.0971 16.6625C43.6368 17.2023 44.2776 17.6304 44.9828 17.9226C45.688 18.2147 46.4439 18.365 47.2072 18.365C47.956 18.3921 48.702 18.2608 49.3964 17.9796C50.0909 17.6983 50.718 17.2735 51.2369 16.733C52.161 15.7241 52.6529 14.3932 52.607 13.0258C52.6095 12.6883 52.5825 12.3512 52.5264 12.0184L47.2476 12.0083ZM56.9993 16.8741C56.5431 16.9065 56.0876 16.8007 55.6924 16.5706C55.2972 16.3404 54.9804 15.9966 54.7834 15.5838C54.5864 15.1711 54.5182 14.7086 54.5879 14.2566C54.6575 13.8045 54.8616 13.3839 55.1736 13.0496C55.4857 12.7152 55.8913 12.4826 56.3374 12.3821C56.7836 12.2815 57.2497 12.3176 57.675 12.4857C58.1003 12.6538 58.4651 12.9462 58.722 13.3246C58.9788 13.703 59.1157 14.1501 59.1148 14.6074C59.1269 14.8957 59.0816 15.1835 58.9815 15.4541C58.8813 15.7247 58.7284 15.9726 58.5315 16.1836C58.3347 16.3945 58.0978 16.5642 57.8348 16.6827C57.5717 16.8013 57.2877 16.8663 56.9993 16.8741ZM56.9993 10.8296C56.2585 10.8316 55.5349 11.0531 54.9199 11.4661C54.305 11.8791 53.8263 12.4651 53.5442 13.15C53.2621 13.835 53.1893 14.5882 53.335 15.3144C53.4807 16.0407 53.8384 16.7075 54.3629 17.2306C54.8874 17.7537 55.5552 18.1097 56.2819 18.2535C57.0086 18.3973 57.7616 18.3225 58.4458 18.0385C59.1299 17.7546 59.7147 17.2743 60.126 16.6582C60.5374 16.0421 60.7569 15.3179 60.7569 14.5772C60.7637 14.0823 60.6711 13.5911 60.4845 13.1327C60.298 12.6743 60.0213 12.258 59.6708 11.9085C59.3204 11.559 58.9034 11.2834 58.4445 11.0981C57.9855 10.9128 57.4941 10.8215 56.9993 10.8296ZM65.1996 16.8741C64.7434 16.9065 64.288 16.8007 63.8927 16.5706C63.4975 16.3404 63.1807 15.9966 62.9837 15.5838C62.7867 15.1711 62.7186 14.7086 62.7882 14.2566C62.8578 13.8045 63.0619 13.3839 63.374 13.0496C63.686 12.7152 64.0915 12.4826 64.5377 12.3821C64.9838 12.2815 65.45 12.3176 65.8753 12.4857C66.3007 12.6538 66.6654 12.9462 66.9223 13.3246C67.1791 13.703 67.316 14.1501 67.3151 14.6074C67.3272 14.8957 67.2819 15.1835 67.1817 15.4541C67.0816 15.7247 66.9286 15.9726 66.7318 16.1836C66.5349 16.3945 66.2981 16.5642 66.035 16.6827C65.7719 16.8013 65.488 16.8663 65.1996 16.8741ZM65.1996 10.8296C64.4588 10.8316 63.7352 11.0531 63.1203 11.4661C62.5053 11.8791 62.0265 12.4651 61.7444 13.15C61.4623 13.835 61.3896 14.5882 61.5353 15.3144C61.681 16.0407 62.0387 16.7075 62.5632 17.2306C63.0877 17.7537 63.7555 18.1097 64.4822 18.2535C65.2089 18.3973 65.9619 18.3225 66.6461 18.0385C67.3303 17.7546 67.915 17.2743 68.3263 16.6582C68.7377 16.0421 68.9572 15.3179 68.9572 14.5772C68.964 14.0823 68.8713 13.5911 68.6848 13.1327C68.4982 12.6743 68.2216 12.258 67.8711 11.9085C67.5207 11.559 67.1037 11.2834 66.6448 11.0981C66.1859 10.9128 65.6944 10.8215 65.1996 10.8296Z" fill="white"/>
<path d="M48.9698 27.3916L48.5065 27.6032C48.2852 27.1615 48.0256 26.7402 47.7307 26.3439L48.1841 26.1424C48.4743 26.5403 48.7369 26.9577 48.9698 27.3916V27.3916ZM47.9624 27.7744L47.4991 27.996C47.2867 27.5495 47.0374 27.1215 46.7536 26.7166L47.217 26.5151C47.4926 26.9182 47.7416 27.3389 47.9624 27.7744V27.7744ZM42.1094 25.2458C42.6937 25.1854 44.3962 25.0242 46.0484 24.8831C47.0558 24.8026 47.8718 24.7521 48.4661 24.7219V25.4473C47.8745 25.4253 47.2824 25.476 46.7032 25.5984C46.1232 25.8183 45.6218 26.2059 45.263 26.7119C44.9042 27.2179 44.7041 27.8192 44.6884 28.4393C44.6884 30.1821 46.3204 30.7362 47.7811 30.7966L47.5192 31.5522C45.8569 31.4817 43.963 30.5448 43.963 28.5904C43.9694 27.9875 44.1256 27.3956 44.4175 26.8681C44.7094 26.3405 45.1279 25.8938 45.6353 25.5682C44.8395 25.6588 42.3915 25.9006 41.4244 26.092L41.3438 25.2962C41.6863 25.2962 41.9684 25.2962 42.1396 25.2962L42.1094 25.2458Z" fill="white"/>
<path d="M48.9708 27.3914V27.3007L48.4974 27.5123L48.5477 27.6029H48.6384C48.4138 27.1546 48.1509 26.7266 47.8526 26.3235L47.772 26.384V26.4746L48.2254 26.2732V26.1825L48.1448 26.2328C48.3563 26.535 48.7089 27.0891 48.9306 27.482H49.0112V27.3914V27.482H49.1018C48.8595 27.0482 48.5938 26.6278 48.306 26.2227L48.2556 26.1523L47.7317 26.394H47.6209L47.6915 26.4948C47.9817 26.8887 48.2378 27.3066 48.4571 27.7439V27.8346L49.0213 27.5727L49.1119 27.5223V27.4316H49.0213L48.9708 27.3914ZM47.9634 27.7742V27.6835L47.5001 27.9052V27.9958H47.5907C47.3789 27.5405 47.126 27.1056 46.8351 26.6963L46.7546 26.7567V26.8474L47.218 26.656V26.5552L47.1373 26.6156C47.4081 27.0164 47.6537 27.4336 47.8728 27.8648H47.9634V27.7742V27.8648H48.0541C47.8284 27.4267 47.5761 27.0029 47.2986 26.5955L47.2482 26.525L46.7143 26.7567H46.6035L46.674 26.8574C46.9507 27.2579 47.1965 27.6789 47.4094 28.1167V28.2074L47.9634 27.9555L48.0541 27.9052V27.8145H47.9634V27.7742ZM42.1104 25.2456V25.3463C42.6947 25.2859 44.3972 25.1247 46.0494 24.9836C47.0568 24.9031 47.8728 24.8527 48.4671 24.8225V24.7217H48.3664V25.4471H48.4671V25.3463C47.8688 25.3248 47.2702 25.3756 46.6841 25.4974C46.0788 25.7216 45.5541 26.1213 45.1773 26.6453C44.8004 27.1694 44.5884 27.7939 44.5685 28.439C44.5512 28.816 44.6357 29.1907 44.8129 29.5239C44.9901 29.8571 45.2536 30.1366 45.5759 30.333C46.2321 30.6991 46.9703 30.8931 47.7217 30.8971V30.7964H47.6209L47.359 31.562H47.4597V31.4613C46.624 31.4398 45.8111 31.1851 45.1125 30.7259C44.7657 30.4916 44.4828 30.1745 44.2893 29.8034C44.0958 29.4323 43.9979 29.0188 44.0043 28.6003C44.0096 28.0139 44.1606 27.4381 44.4437 26.9246C44.7268 26.4111 45.1332 25.976 45.6262 25.6586L46.0292 25.4168H45.5558C44.77 25.5075 42.3219 25.7493 41.3448 25.9508V26.0414H41.4455L41.375 25.2456H41.2743V25.3463C41.6168 25.3463 41.8989 25.3463 42.0802 25.3463V25.1449C41.9089 25.1449 41.6268 25.1449 41.2843 25.1449H41.1836L41.2743 26.0616V26.1724H41.3851C42.3925 25.981 44.7901 25.7392 45.586 25.6486V25.5478L45.5255 25.4672C45.0023 25.8012 44.5713 26.2613 44.272 26.8051C43.9728 27.349 43.8149 27.9593 43.8129 28.5801C43.8049 29.0312 43.9105 29.4771 44.12 29.8767C44.3295 30.2764 44.6361 30.6169 45.0117 30.8669C45.7381 31.3514 46.5869 31.6203 47.4597 31.6426H47.5403L47.8224 30.8065L47.8728 30.6755H47.7317C47.0268 30.6634 46.3354 30.4801 45.7169 30.1416C45.4173 29.9677 45.1708 29.7155 45.0039 29.4119C44.8371 29.1083 44.7562 28.7651 44.77 28.4189C44.79 27.811 44.9931 27.2233 45.3526 26.7326C45.712 26.2419 46.2112 25.8711 46.7848 25.6687V25.578V25.6687C47.3548 25.5539 47.9364 25.5066 48.5175 25.5277H48.6183V24.6008H48.4269C47.8224 24.6008 46.9762 24.6815 45.999 24.762C44.3469 24.9031 42.6443 25.0643 42.06 25.1247V25.2254L42.1104 25.2456Z" fill="white"/>
<path d="M57.9752 28.9629H54.2578V30.9777C54.2578 31.4612 54.1168 31.6627 53.7844 31.7735C53.1668 31.8882 52.5374 31.9255 51.9106 31.8844C51.8403 31.6518 51.7422 31.4285 51.6184 31.2194C52.3841 31.2194 53.0893 31.2194 53.3008 31.2194C53.5124 31.2194 53.5829 31.1489 53.5829 30.9575V28.9427H49.8555V28.2677H53.5829V26.7969H50.4398V26.1522H53.5627V24.7519C52.5553 24.8627 51.5479 24.9231 50.6009 24.9735C50.5666 24.7695 50.5092 24.5701 50.4297 24.3792C52.4955 24.3333 54.5512 24.0768 56.5648 23.6135L57.0685 24.1474C56.1409 24.4017 55.1942 24.5803 54.2377 24.6814V26.1522H57.4916V26.7969H54.278V28.2677H57.9953V28.9226L57.9752 28.9629Z" fill="white"/>
<path d="M57.9789 28.9628V28.8621H54.1608V30.9776C54.1761 31.1453 54.141 31.3136 54.0601 31.4612C53.9897 31.5674 53.8817 31.643 53.7578 31.6728C53.2823 31.7808 52.794 31.8215 52.3072 31.7936H51.9243V31.8944H52.0251C51.9477 31.6532 51.8465 31.4204 51.7229 31.1992H51.6322V31.3H53.3146C53.415 31.306 53.5145 31.2775 53.5967 31.2194C53.6662 31.1424 53.7024 31.041 53.6974 30.9374V28.8319H49.97V28.3785H53.6974V26.7063H50.5744V26.2529H53.6974V24.6411H53.5866C52.5792 24.7519 51.5718 24.8123 50.6349 24.8627V24.9634H50.7356C50.698 24.7525 50.6371 24.5464 50.5543 24.3489H50.4636V24.4396C52.5367 24.4022 54.5999 24.1456 56.6189 23.6739V23.5833L56.5383 23.6538L57.0521 24.1877L57.1226 24.1172V24.0165C56.2044 24.2815 55.2634 24.4602 54.312 24.5504H54.2213V26.2529H57.4349V26.6962H54.2213V28.3684H57.9386V28.9226H58.0393H58.1401V28.167H54.4228V26.8977H57.6364V26.0514H54.4228V24.6814H54.322V24.7821C55.2851 24.6808 56.2385 24.5022 57.173 24.2482H57.3342L56.7095 23.5933H56.6491C54.6458 24.0574 52.6 24.314 50.5442 24.359H50.4032V24.4899C50.4768 24.6752 50.5308 24.8677 50.5644 25.0642V25.1548H50.6551C51.5919 25.1548 52.6094 25.044 53.6168 24.9332V24.8325H53.4657V26.132H50.3428V26.9782H53.4657V28.2476H49.7383V29.1039H53.4657V31.0078V31.1388C53.4161 31.1516 53.3641 31.1516 53.3146 31.1388H51.4509L51.5516 31.3C51.6642 31.5063 51.7587 31.7221 51.8337 31.9448V32.0152H52.2871C52.7976 32.0375 53.309 31.9935 53.8082 31.8843V31.8843C53.9758 31.8381 54.1218 31.7347 54.2213 31.5922C54.3251 31.4123 54.3709 31.2047 54.3522 30.9978V29.0837H58.0696V28.983L57.9789 28.9628Z" fill="white"/>
<path d="M62.4388 25.1147C63.6671 25.2558 64.9076 25.2558 66.136 25.1147V25.8602C64.909 25.9609 63.6758 25.9609 62.4488 25.8602V25.1147H62.4388ZM62.7914 28.7817C62.7201 29.0479 62.6829 29.3221 62.6806 29.5977C62.6806 30.0107 62.9526 30.4137 64.1816 30.4137C64.9305 30.4173 65.6773 30.3362 66.4079 30.1719V30.9375C65.6666 31.0693 64.9143 31.1301 64.1614 31.1189C62.6604 31.1189 61.9855 30.6151 61.9855 29.779C61.9947 29.4184 62.0453 29.0601 62.1365 28.7111L62.7813 28.7817H62.7914ZM60.7766 24.4196C60.7262 24.5808 60.6356 24.8729 60.6053 25.0341C60.3655 26.1651 60.2206 27.3142 60.1721 28.4694C60.1654 28.8802 60.189 29.291 60.2426 29.6984L60.7362 28.4089L61.1291 28.7011C60.8836 29.3615 60.6718 30.034 60.4945 30.7159C60.481 30.8499 60.481 30.9849 60.4945 31.1189V31.4311L59.8397 31.4815C59.6089 30.539 59.5005 29.5706 59.5173 28.6003C59.5627 27.3899 59.6973 26.1844 59.9202 24.9938C59.9202 24.7822 59.9807 24.5505 59.9807 24.3591L60.7967 24.4196H60.7766Z" fill="white"/>
<path d="M62.4417 25.1145V25.2152C63.0261 25.2935 63.6152 25.3306 64.2047 25.3261C64.8579 25.3318 65.5107 25.2948 66.1591 25.2152V25.1145H66.0584V25.86H66.1591V25.7593C65.6856 25.7593 65.0106 25.8298 64.3357 25.8298C63.6607 25.8298 62.9757 25.8298 62.4922 25.7593V25.86H62.5929V25.1145H62.4922H62.3914V25.9507H62.4821C62.9757 25.9507 63.6607 26.0212 64.3458 26.0212C65.0308 26.0212 65.6957 26.0212 66.1893 25.9507H66.28V24.9433H66.1591C65.5209 25.0233 64.8781 25.0603 64.235 25.0541C63.6555 25.0587 63.0764 25.0217 62.5022 24.9433H62.3813V25.0642L62.4417 25.1145ZM62.7944 28.7815H62.7037C62.6245 29.0566 62.5839 29.3414 62.5828 29.6277C62.5757 29.755 62.6028 29.882 62.6613 29.9954C62.7197 30.1087 62.8074 30.2044 62.9153 30.2724C63.3026 30.4855 63.744 30.5801 64.1846 30.5445C64.9401 30.5484 65.6937 30.4673 66.4311 30.3027V30.2019H66.3304V30.9676H66.4311V30.8668C65.6965 30.9988 64.9509 31.0595 64.2047 31.0482C63.6528 31.0817 63.1023 30.9632 62.6131 30.7056C62.46 30.6126 62.3346 30.4806 62.2496 30.323C62.1646 30.1654 62.1231 29.988 62.1295 29.8091C62.1434 29.4695 62.1906 29.132 62.2705 28.8017H62.1799V28.9024L62.8246 28.9628V28.8721H62.7339H62.8246V28.7714L62.1799 28.7009H62.0892V28.7916C62.0021 29.1482 61.9514 29.5127 61.938 29.8795C61.9313 30.0923 61.9808 30.3031 62.0816 30.4907C62.1824 30.6782 62.331 30.8357 62.5123 30.9474C63.0341 31.2276 63.6237 31.3567 64.2148 31.3202C64.9744 31.3307 65.7332 31.27 66.4815 31.1388H66.5621V30.1314H66.4412C65.7174 30.2958 64.9772 30.3769 64.235 30.3732C63.8333 30.4104 63.4297 30.3261 63.0764 30.1314C62.9968 30.082 62.9322 30.0118 62.8896 29.9284C62.8469 29.8449 62.8279 29.7514 62.8347 29.6579C62.8378 29.389 62.875 29.1216 62.9455 28.8621V28.7512H62.8246V28.852L62.7944 28.7815ZM60.7796 24.4194H60.6889C60.6178 24.6244 60.5573 24.8328 60.5075 25.044V25.044C60.2665 26.1816 60.1216 27.3375 60.0744 28.4994C60.068 28.9169 60.0916 29.3344 60.1449 29.7486V30.1516L60.2859 29.7687C60.4371 29.3557 60.6385 28.8319 60.7896 28.4793H60.6889L60.6284 28.5699L61.0213 28.852L61.0818 28.7714H60.9911C60.7401 29.4309 60.5249 30.1035 60.3464 30.7862H60.4471H60.3464C60.3328 30.9269 60.3328 31.0686 60.3464 31.2093V31.2093V31.431H59.8023V31.5317H59.9031C59.6726 30.5994 59.5642 29.641 59.5807 28.6807C59.6291 27.4777 59.7604 26.2794 59.9737 25.0943V25.0943C60.0121 24.8813 60.0356 24.6659 60.0442 24.4497H59.9434V24.5504L60.7594 24.6108V24.5101H60.6688H60.7594V24.4093L59.9434 24.3489H59.8326V24.4597C59.8326 24.641 59.8326 24.8728 59.7722 25.0843C59.5481 26.2782 59.4134 27.487 59.3692 28.7009C59.3506 29.6818 59.4624 30.6608 59.7016 31.6123V31.6828H60.437H60.5378V31.2597C60.5195 31.1327 60.5195 31.0039 60.5378 30.8769C60.7109 30.1949 60.9193 29.5224 61.1624 28.8621V28.7916L60.709 28.449L60.6083 28.3785V28.4994L60.1046 29.7889H60.2053H60.3061C60.2525 29.3849 60.2289 28.9774 60.2355 28.5699C60.284 27.4214 60.4289 26.279 60.6688 25.1548H60.568H60.6688C60.7105 24.9536 60.7643 24.7552 60.8299 24.5605V24.4295H60.699V24.5302L60.7796 24.4194Z" fill="white"/>
<path d="M72.1998 24.2383C72.1116 25.6588 72.4155 27.0763 73.0782 28.3359C73.7408 29.5955 74.7369 30.6488 75.9575 31.3808C75.754 31.5424 75.5713 31.7285 75.4134 31.9349C74.5023 31.3848 73.7133 30.6541 73.0948 29.7879C72.4764 28.9217 72.0415 27.9382 71.817 26.8979C71.5786 27.9367 71.135 28.9175 70.5122 29.7825C69.8894 30.6475 69.1 31.3793 68.1904 31.9349C68.005 31.7394 67.8028 31.5607 67.5859 31.4009C69.6008 30.3935 70.7089 28.5399 71.2629 26.0012L71.6558 26.0617C71.5977 25.6778 71.5608 25.2911 71.545 24.9031H69.3086V24.2383H72.1998Z" fill="white"/>
<path d="M72.2025 24.2382H72.1018C72.0126 25.6756 72.3207 27.11 72.9924 28.384C73.664 29.658 74.6734 30.7226 75.9098 31.4613L75.9602 31.3807L75.8997 31.29C75.6917 31.4644 75.5026 31.6603 75.3356 31.8743L75.4161 31.9348L75.4666 31.8542C74.5625 31.3004 73.7808 30.5682 73.1694 29.7021C72.558 28.836 72.1296 27.8544 71.9104 26.8171L71.8298 26.4343L71.719 26.807C71.4919 27.8439 71.0582 28.8243 70.4437 29.6898C69.8293 30.5552 69.0467 31.2879 68.1427 31.8441V31.9247L68.2233 31.8542C68.0337 31.6526 67.8245 31.4703 67.5987 31.3102L67.5382 31.3907L67.5886 31.4814C69.6034 30.474 70.7518 28.56 71.316 26.0112H71.2153V26.1018L71.6183 26.1724H71.7492V26.0314C71.6907 25.651 71.6536 25.2675 71.6384 24.8829V24.7922H69.412V24.3188H72.2025V24.2382V24.1375H69.1803V25.0139H71.5981V24.9131H71.4974C71.5108 25.305 71.5512 25.6954 71.6183 26.0817H71.7089V25.981L71.306 25.9205H71.2153V26.0112C70.6612 28.5398 69.5632 30.3229 67.5987 31.3505L67.4375 31.4311L67.5886 31.5318C67.7992 31.6841 67.9948 31.8562 68.1729 32.0456L68.2333 32.106H68.3039C69.2217 31.5373 70.0175 30.7922 70.6452 29.9137C71.273 29.0352 71.7201 28.0409 71.9607 26.9884H71.8701H71.7693C71.9975 28.0445 72.4385 29.043 73.0655 29.9229C73.6926 30.8028 74.4924 31.5456 75.4161 32.106L75.4968 32.1564V32.0758C75.6479 31.8762 75.8239 31.6967 76.0206 31.5419L76.1415 31.4512L76.0105 31.3706C74.805 30.6486 73.8213 29.6087 73.1674 28.3649C72.5135 27.121 72.2146 25.7212 72.3033 24.3188V24.218H72.2025V24.3188V24.2382Z" fill="white"/>
<path d="M84.794 30.5042C84.5825 30.7327 84.3273 30.9164 84.0435 31.0445C83.7597 31.1725 83.4531 31.2424 83.1419 31.2498C82.5475 31.2498 82.1345 30.8569 82.1345 30.1114C82.1345 29.104 82.4669 27.6332 82.4669 26.7668C82.4669 26.243 82.205 26.0314 81.7517 26.0314C80.7028 26.2974 79.7734 26.9075 79.1123 27.7641C79.1123 28.1469 79.1123 28.4995 79.1123 28.7715C79.1123 29.5875 79.1123 30.1316 79.1123 30.9375C79.1123 31.0987 79.1123 31.3203 79.1123 31.4815H78.3164C78.3164 31.3606 78.3164 31.0986 78.3164 30.9475C78.3164 30.0912 78.3164 29.648 78.3164 28.6507C78.3164 28.56 78.3164 28.4391 78.3164 28.2981C77.8731 28.963 77.309 29.8293 76.8556 30.4237L76.4023 29.7991C76.896 29.1745 77.9336 27.7843 78.4172 27.069C78.4172 26.7769 78.4172 26.4847 78.4172 26.2027L76.6643 26.4343L76.5938 25.6788C76.7916 25.6937 76.9902 25.6937 77.1881 25.6788C77.4702 25.6788 78.0041 25.6083 78.4675 25.5377C78.4675 25.1045 78.4675 24.7923 78.4675 24.6915C78.4872 24.467 78.4872 24.2412 78.4675 24.0166H79.3238C79.3238 24.2382 79.2029 24.7419 79.1425 25.3665H79.1928L79.4548 25.6788C79.3439 25.84 79.1929 26.0918 79.0518 26.3034C78.9108 26.5149 79.0518 26.6358 79.0518 26.8172C79.7816 26.0353 80.7413 25.5061 81.7919 25.3061C81.9585 25.2845 82.1278 25.3005 82.2875 25.3527C82.4471 25.405 82.5931 25.4922 82.7147 25.608C82.8363 25.7239 82.9306 25.8654 82.9905 26.0223C83.0505 26.1792 83.0747 26.3475 83.0613 26.515C83.0613 27.4115 82.7288 28.963 82.7288 29.8696C82.7288 30.1819 82.88 30.4136 83.1923 30.4136C83.4552 30.3841 83.7097 30.303 83.9414 30.1751C84.173 30.0472 84.3771 29.875 84.5421 29.6681L84.663 30.4539L84.794 30.5042Z" fill="white"/>
<path d="M84.7953 30.5043L84.7248 30.4339C84.5229 30.6534 84.2787 30.8298 84.0069 30.9528C83.7351 31.0757 83.4414 31.1424 83.1432 31.1491C82.6092 31.1491 82.2566 30.8166 82.2466 30.1417C82.2466 29.1343 82.579 27.6836 82.579 26.7971C82.5975 26.6849 82.5893 26.5699 82.5552 26.4615C82.521 26.353 82.4618 26.2541 82.3824 26.1727C82.303 26.0914 82.2055 26.0298 82.098 25.993C81.9904 25.9562 81.8756 25.9452 81.763 25.961C80.6862 26.2248 79.7307 26.8464 79.0531 27.7239V27.7239C79.0531 28.1067 79.0531 28.4593 79.0531 28.7313C79.0531 29.5473 79.0531 30.0913 79.0531 30.9073C79.0531 31.0584 79.0531 31.2901 79.0531 31.4513H79.1538V31.3506H78.358V31.4513H78.4587C78.4587 31.3203 78.4587 31.0584 78.4587 30.9073C78.4587 30.051 78.4587 29.6078 78.4587 28.6105C78.4587 28.5198 78.4587 28.3989 78.4587 28.2578V27.9254L78.2673 28.2075C77.8341 28.8623 77.2599 29.7286 76.8166 30.323L76.8972 30.3834L76.9778 30.323L76.5245 29.6984L76.4439 29.7589L76.5144 29.8193C77.0181 29.1947 78.0558 27.8045 78.5292 27.0792C78.5292 26.7971 78.5292 26.5049 78.5292 26.2228V26.102H78.4083L76.6555 26.3337V26.4344H76.7562L76.6857 25.6789H76.5849V25.7796H76.8267H77.1894C77.4916 25.7796 78.0155 25.7091 78.4789 25.6386H78.5594V25.5681C78.5594 25.1349 78.5594 24.8225 78.5594 24.7117V24.5204C78.579 24.3531 78.579 24.184 78.5594 24.0167H78.4688V24.1174H79.3351V24.0167H79.2344C79.2344 24.2484 79.1135 24.7521 79.0531 25.3767V25.5479L79.174 25.4875L79.3956 25.7494L79.4762 25.6889L79.3855 25.6386C79.2747 25.7998 79.1236 26.0415 78.9927 26.2632C78.9927 26.4344 78.9927 26.6057 78.9927 26.777V27.0389L79.1841 26.8575C79.902 26.0978 80.8385 25.5803 81.8637 25.3767C82.6697 25.3767 83.0222 25.7897 83.0323 26.4848C83.0323 27.3612 82.6999 28.9126 82.6999 29.8395C82.6941 30.0007 82.7399 30.1596 82.8309 30.2928C82.884 30.3553 82.9505 30.405 83.0256 30.4381C83.1006 30.4712 83.1821 30.487 83.2641 30.4842C83.5416 30.4601 83.8111 30.3788 84.0556 30.2453C84.3001 30.1118 84.5142 29.929 84.6845 29.7085L84.614 29.638H84.5132L84.6341 30.4137H84.7348L84.6643 30.3432L84.7348 30.4137H84.8356L84.7147 29.638V29.4265L84.5737 29.5775C84.419 29.7762 84.2261 29.9418 84.0064 30.0647C83.7866 30.1875 83.5445 30.2651 83.2943 30.2928C83.0424 30.2928 82.9417 30.1316 82.9316 29.8495C82.9316 28.963 83.2641 27.4116 83.2641 26.4949C83.2728 26.3222 83.2471 26.1495 83.1882 25.9869C83.1294 25.8242 83.0387 25.675 82.9215 25.5479C82.7859 25.4239 82.6271 25.328 82.4541 25.2657C82.2812 25.2035 82.0977 25.1761 81.9141 25.1852C80.8388 25.3854 79.8547 25.9215 79.1035 26.7165L79.174 26.7971H79.2747C79.2747 26.6157 79.2747 26.4445 79.2747 26.2833H79.174H79.2646C79.3956 26.0718 79.5467 25.83 79.6575 25.6688V25.5983L79.3452 25.2255V25.1752H79.2243V25.2659H79.3251C79.3855 24.6413 79.4661 24.1375 79.5064 23.926V23.8152H78.499H78.368V23.9361C78.383 24.0902 78.383 24.2453 78.368 24.3994V24.5908C78.368 24.6815 78.368 25.0039 78.368 25.427H78.4688V25.3263C78.0155 25.3968 77.4614 25.4572 77.1994 25.4673H76.8569H76.6353L76.7159 26.3337V26.4344H76.8267L78.5695 26.2027V26.2531H78.4688C78.4688 26.5352 78.4688 26.8172 78.4184 27.1094H78.5191L78.4285 27.0489C77.9853 27.7541 76.9476 29.1544 76.4137 29.779L76.3633 29.8395L76.867 30.5245L76.9476 30.6353L77.0282 30.5245C77.4614 29.92 78.0356 29.0638 78.489 28.3989L78.4083 28.3384H78.3076C78.3076 28.4694 78.3076 28.5903 78.3076 28.691C78.3076 29.6984 78.3076 30.1417 78.3076 30.998C78.3076 31.139 78.3076 31.4009 78.3076 31.5319V31.6327H79.315V31.5218C79.315 31.3606 79.315 31.139 79.315 30.9879C79.315 30.182 79.315 29.638 79.315 28.822C79.315 28.5097 79.315 28.1571 79.315 27.8146H79.2143L79.2848 27.8851C79.932 27.052 80.8343 26.454 81.8537 26.1826C82.0203 26.1706 82.1854 26.2209 82.3171 26.3236C82.4299 26.4622 82.4841 26.6393 82.4682 26.8172C82.4682 27.6635 82.1358 29.1444 82.1358 30.1618C82.1191 30.4944 82.2268 30.8211 82.438 31.0786C82.5415 31.1839 82.6655 31.267 82.8024 31.3224C82.9393 31.3779 83.0861 31.4046 83.2338 31.4009C83.5585 31.395 83.8786 31.3232 84.1747 31.1899C84.4709 31.0566 84.7369 30.8645 84.9565 30.6253V30.6253H84.8557L84.7953 30.5043Z" fill="white"/>
<path d="M89.2366 29.4263C88.9484 29.3663 88.6547 29.3359 88.3602 29.3356C87.4334 29.3356 86.9095 29.658 86.9095 30.1416C86.9095 30.6251 87.4031 30.9173 88.2695 30.9173C88.9243 30.9173 89.2769 30.605 89.2769 29.9905C89.2769 29.8494 89.2769 29.658 89.2769 29.4263H89.2366ZM89.8511 26.666C89.8511 27.2503 89.8512 28.1268 89.9418 28.9025C90.9746 29.1984 91.928 29.7216 92.7323 30.4337L92.2991 31.1087C91.6408 30.4512 90.8465 29.9457 89.972 29.6278C89.972 29.8695 89.972 30.061 89.972 30.2323C89.972 30.9677 89.5187 31.5922 88.3199 31.5922C87.1211 31.5922 86.1641 31.1994 86.1641 30.1718C86.1641 29.3659 86.8793 28.6909 88.4307 28.6909C88.6838 28.691 88.9364 28.7112 89.1863 28.7513C89.1863 28.026 89.1158 27.1999 89.1158 26.666C89.1158 26.1321 89.1158 25.4068 89.1158 25.024C89.1089 24.7274 89.0854 24.4314 89.0452 24.1375H89.9116C89.9116 24.3289 89.8511 24.752 89.8411 25.024C89.831 25.296 89.8411 25.5881 89.8411 25.9407C90.5563 25.9407 91.6947 25.8702 92.5006 25.7694V26.4545C91.6947 26.525 90.5463 26.5854 89.8109 26.6055V26.666H89.8511Z" fill="white"/>
<path d="M89.2357 29.4265V29.3358C88.9418 29.2675 88.6408 29.2337 88.3391 29.2351C87.9495 29.2165 87.5615 29.2962 87.2108 29.4668C87.0837 29.5277 86.9764 29.6235 86.9015 29.743C86.8266 29.8624 86.7872 30.0007 86.7877 30.1417C86.7848 30.2793 86.8212 30.415 86.8925 30.5327C86.9639 30.6504 87.0673 30.7455 87.1906 30.8066C87.5054 30.9545 87.8503 31.0269 88.198 31.0181C88.4905 31.0389 88.7796 30.9449 89.004 30.7562C89.1 30.6545 89.1737 30.5339 89.2206 30.402C89.2674 30.2702 89.2863 30.1301 89.276 29.9906C89.276 29.8395 89.276 29.6582 89.276 29.4265V29.3459H89.1954V29.4365H89.0946C89.0946 29.6682 89.0946 29.8596 89.0946 30.0006C89.103 30.1136 89.0886 30.2271 89.0522 30.3344C89.0159 30.4417 88.9583 30.5406 88.8831 30.6253C88.6954 30.7752 88.4575 30.8473 88.2182 30.8267C87.8894 30.8415 87.5617 30.7795 87.2612 30.6454C87.1678 30.6019 87.0894 30.5319 87.0357 30.4442C86.9819 30.3564 86.9552 30.2547 86.9589 30.1518C86.9608 30.0475 86.992 29.9459 87.049 29.8585C87.106 29.7712 87.1866 29.7018 87.2813 29.6582C87.5942 29.5046 87.9405 29.4318 88.2887 29.4466C88.5766 29.4461 88.8636 29.4766 89.145 29.5373V29.4365L89.2357 29.4265ZM89.8502 26.6661H89.7293C89.7293 27.2605 89.7797 28.1269 89.82 28.9127V28.9832H89.8805C90.9034 29.2706 91.8474 29.7874 92.6407 30.4943L92.7012 30.4137H92.6206L92.1874 31.0786L92.268 31.139L92.3385 31.0686C91.6707 30.3985 90.8619 29.8857 89.9711 29.5675H89.83V29.7186C89.83 29.9503 89.83 30.1518 89.83 30.313C89.83 30.998 89.4372 31.5622 88.2786 31.5723C87.7625 31.6063 87.2468 31.4983 86.7877 31.2599C86.6102 31.1601 86.4636 31.0132 86.3641 30.8355C86.2645 30.6578 86.2159 30.456 86.2236 30.2525C86.2236 29.5171 86.8582 28.8824 88.3894 28.8724C88.6391 28.8729 88.8884 28.8931 89.1349 28.9328H89.2559V28.8019C89.2559 28.0766 89.1853 27.2504 89.1853 26.7266C89.1853 26.2027 89.1853 25.4674 89.1853 25.0846C89.1779 24.7813 89.1544 24.4786 89.1148 24.1779H89.014V24.2786H89.8805V24.1779H89.7797C89.7797 24.3793 89.7192 24.8025 89.7091 25.0846V26.092H89.8099C90.5353 26.092 91.6635 26.0214 92.4795 25.9207V25.8199H92.3788V26.505H92.4795V26.4043C91.6837 26.4748 90.5352 26.5352 89.7998 26.5553H89.7293V26.7166H89.9308V26.6561H89.83V26.7467C90.5755 26.7467 91.724 26.6762 92.5299 26.6057H92.6206V25.8199V25.7091H92.5199C91.7139 25.8099 90.5856 25.8602 89.8704 25.8804V25.9811H89.9711V25.0644C89.9711 24.8025 89.9711 24.3693 90.0416 24.1879V24.0771H88.9335V24.198C88.9743 24.4852 88.9978 24.7744 89.004 25.0644C89.004 25.4472 89.004 26.1927 89.004 26.7065C89.004 27.2202 89.004 28.0665 89.0745 28.7918H89.1753V28.691C88.9186 28.6513 88.6593 28.6311 88.3995 28.6306C87.7742 28.5923 87.1531 28.7547 86.6265 29.094C86.4441 29.2182 86.2948 29.3849 86.1912 29.5797C86.0877 29.7745 86.0331 29.9916 86.0321 30.2122C86.0233 30.4523 86.0806 30.6902 86.1979 30.8998C86.3151 31.1095 86.4878 31.2829 86.697 31.401C87.1895 31.6486 87.7383 31.7632 88.2887 31.7334C88.5466 31.7665 88.8085 31.7441 89.057 31.6676C89.3054 31.5912 89.5347 31.4625 89.7293 31.2902C89.8634 31.1594 89.9692 31.0025 90.0402 30.8292C90.1112 30.656 90.146 30.47 90.1423 30.2827C90.1423 30.1115 90.1423 29.91 90.1423 29.6783H90.0416V29.779C90.9029 30.0853 91.6844 30.5811 92.3284 31.2297L92.4191 31.3204L92.9228 30.5447V30.4742L92.8623 30.4137C92.0474 29.688 91.0801 29.1544 90.0315 28.8522V28.953H90.1323C90.1323 28.1672 90.0416 27.3008 90.0416 26.7166L89.8502 26.6661Z" fill="white"/>
<path d="M99.7138 24.5605L99.6131 25.2557C98.6057 25.1952 96.8024 25.0139 95.785 24.8326L95.8958 24.1375C97.155 24.3812 98.4318 24.5227 99.7138 24.5605ZM98.1322 26.8977C97.2978 26.93 96.4727 27.0861 95.6842 27.3611C95.4122 27.4316 95.1503 27.5424 94.9286 27.623L94.707 26.7869C94.9488 26.7869 95.2611 26.7063 95.523 26.656C96.3972 26.4114 97.296 26.2661 98.2027 26.2227C98.4853 26.1914 98.7714 26.2204 99.042 26.3075C99.3126 26.3947 99.5617 26.5381 99.773 26.7284C99.9842 26.9187 100.153 27.1516 100.268 27.4117C100.382 27.6718 100.441 27.9532 100.439 28.2375C100.439 30.1818 98.7064 31.2598 96.4095 31.6326L95.9865 30.9475C98.1625 30.6755 99.7038 29.8192 99.7038 28.2074C99.6971 28.0189 99.6509 27.8339 99.5683 27.6643C99.4857 27.4947 99.3685 27.3444 99.2242 27.2229C99.08 27.1014 98.9118 27.0115 98.7307 26.9589C98.5495 26.9064 98.3594 26.8924 98.1725 26.9178L98.1322 26.8977Z" fill="white"/>
<path d="M99.7134 24.5608H99.6228L99.512 25.266H99.6127V25.1653C98.6053 25.1048 96.8121 24.9235 95.8047 24.7422V24.8429H95.9054L96.0162 24.1478H95.9155V24.2485C97.1815 24.4923 98.465 24.6338 99.7537 24.6716V24.5709H99.663H99.7537V24.4701C98.4789 24.4324 97.209 24.2943 95.9558 24.0571H95.845L95.714 24.853V24.9537H95.8147C96.8221 25.1351 98.6556 25.3164 99.653 25.3768H99.7436L99.8645 24.581V24.4701H99.7537V24.5709L99.7134 24.5608ZM98.1318 26.898V26.7972C97.2873 26.828 96.4521 26.9842 95.6536 27.2607V27.3614V27.2607C95.3715 27.3413 95.1096 27.4521 94.898 27.5327V27.6233H94.9987L94.7671 26.7872H94.6764V26.8879C94.9282 26.8879 95.2304 26.8073 95.5024 26.757C96.369 26.509 97.2616 26.3636 98.162 26.3238C98.4302 26.2893 98.7028 26.3126 98.9612 26.3922C99.2197 26.4718 99.4581 26.6058 99.6605 26.7852C99.8628 26.9646 100.024 27.1853 100.134 27.4324C100.244 27.6795 100.3 27.9473 100.298 28.2177C100.298 28.6489 100.197 29.0742 100.003 29.4592C99.8086 29.8442 99.5266 30.1781 99.1795 30.434C98.334 31.0326 97.3487 31.4037 96.3184 31.5119V31.6127L96.4091 31.5623L95.976 30.8773H95.8953V30.978C96.8582 30.8958 97.789 30.5925 98.6154 30.0915C98.9489 29.8862 99.2241 29.5986 99.4146 29.2564C99.6051 28.9142 99.7046 28.5288 99.7034 28.1371C99.7065 27.9462 99.6674 27.757 99.5891 27.5829C99.5107 27.4088 99.395 27.254 99.25 27.1297C98.9143 26.8676 98.497 26.7321 98.0714 26.7469V26.9484C98.9579 26.9484 99.5019 27.442 99.5019 28.1371C99.5023 28.4974 99.4098 28.8517 99.2333 29.1658C99.0568 29.4799 98.8024 29.7433 98.4945 29.9303C97.6951 30.4116 96.7952 30.7012 95.8652 30.7765H95.7039L96.2177 31.6026H96.2882C97.3518 31.4892 98.3682 31.1041 99.2399 30.4844C99.6144 30.212 99.9186 29.8542 100.127 29.4407C100.336 29.0272 100.442 28.57 100.439 28.1069C100.45 27.8143 100.395 27.5229 100.278 27.2543C100.161 26.9858 99.9854 26.747 99.7638 26.5555C99.2925 26.1814 98.7028 25.9884 98.1016 26.0115C97.1849 26.0542 96.2759 26.1995 95.3916 26.4447V26.5454V26.4447C95.1297 26.495 94.8174 26.5555 94.5857 26.5756H94.4648L94.7268 27.5226V27.6233H94.8376C95.0764 27.5192 95.3221 27.4317 95.573 27.3614V27.3614C96.3502 27.0831 97.1658 26.9268 97.9908 26.898V26.7972L98.1318 26.898Z" fill="white"/>
<defs>
<linearGradient id="paint0_linear_212_1051" x1="21.8718" y1="8.70654" x2="1.9704" y2="14.0267" gradientUnits="userSpaceOnUse">
<stop stop-color="#00A0FF"/>
<stop offset="0.00657" stop-color="#00A1FF"/>
<stop offset="0.2601" stop-color="#00BEFF"/>
<stop offset="0.5122" stop-color="#00D2FF"/>
<stop offset="0.7604" stop-color="#00DFFF"/>
<stop offset="1" stop-color="#00E3FF"/>
</linearGradient>
<linearGradient id="paint1_linear_212_1051" x1="33.9465" y1="20" x2="9.67043" y2="20" gradientUnits="userSpaceOnUse">
<stop stop-color="#FFE000"/>
<stop offset="0.4087" stop-color="#FFBD00"/>
<stop offset="0.7754" stop-color="#FFA500"/>
<stop offset="1" stop-color="#FF9C00"/>
</linearGradient>
<linearGradient id="paint2_linear_212_1051" x1="24.9084" y1="22.2973" x2="9.00185" y2="49.1571" gradientUnits="userSpaceOnUse">
<stop stop-color="#FF3A44"/>
<stop offset="1" stop-color="#C31162"/>
</linearGradient>
<linearGradient id="paint3_linear_212_1051" x1="7.31931" y1="0.178682" x2="14.4159" y2="12.1746" gradientUnits="userSpaceOnUse">
<stop stop-color="#32A071"/>
<stop offset="0.0685" stop-color="#2DA771"/>
<stop offset="0.4762" stop-color="#15CF74"/>
<stop offset="0.8009" stop-color="#06E775"/>
<stop offset="1" stop-color="#00F076"/>
</linearGradient>
</defs>
</svg>
