<svg width="200" height="100" viewBox="0 0 200 100" fill="none" xmlns="http://www.w3.org/2000/svg">
<path fill-rule="evenodd" clip-rule="evenodd" d="M33.0211 33.0588V36.6H39.9159V29.5177H33.0211V33.0588ZM89.1369 37.1889C86.9239 38.0339 85.7769 39.7008 85.5368 42.4212L85.403 43.9353H83.5015V47.2235H85.4715V58.6059H89.9039V47.2235H92.8589V43.9353H89.9039V43.0619C89.9039 41.2443 91.0354 40.1586 92.5957 40.4791L93.3142 40.6268L93.4858 38.9814C93.5801 38.0764 93.5826 37.2592 93.4913 37.1651C93.1669 36.832 90.0266 36.8492 89.1369 37.1889ZM59.6157 48.3519V58.6059H64.0537L63.9892 48.425L63.925 38.2441L61.7703 38.171L59.6157 38.0979V48.3519ZM118.844 38.4257C118.785 38.6041 118.51 42.5631 118.232 47.2235C117.954 51.884 117.661 56.3517 117.581 57.1515L117.435 58.6059H121.602L121.754 56.2662C121.837 54.9792 121.967 52.276 122.041 50.2588C122.116 48.2416 122.243 45.7375 122.324 44.6941L122.47 42.7971L123.053 45.4529C123.573 47.8215 124.99 53.3617 126.013 57.025L126.383 58.3529H129.762L130.747 55.1279C131.943 51.2132 133.819 44.8957 134.146 43.6824C134.337 42.9751 134.419 43.6624 134.557 47.0971C134.651 49.4621 134.798 53.0189 134.884 55.0015L135.038 58.6059H139.395L139.245 56.0132C139.162 54.5872 138.914 50.0059 138.693 45.8324L138.291 38.2441H132.453L131.243 42.1647C130.578 44.321 129.69 47.4512 129.272 49.1206C128.853 50.79 128.484 52.1855 128.453 52.2217C128.421 52.2578 128.042 50.7781 127.61 48.9334C127.178 47.0887 126.35 43.929 125.77 41.9118L124.715 38.2441L121.833 38.1728C119.66 38.1189 118.925 38.1811 118.844 38.4257M32.039 41.4691C30.8248 46.6612 27.9893 55.2582 24.379 64.6939C23.4438 67.1378 22.6787 69.2153 22.6787 69.3101C22.6787 69.4047 24.1655 69.4824 25.9826 69.4824H29.2865L29.5591 68.1544C30.7157 62.5176 36.1112 44.2156 36.4946 44.6286C36.7103 44.8613 38.5943 51.2635 39.6773 55.4441C40.1097 57.1135 40.9499 60.3006 41.5446 62.5265C42.1396 64.7524 42.7594 67.2281 42.9224 68.0279L43.2189 69.4824H46.8616C48.8653 69.4824 50.5045 69.4277 50.5045 69.3609C50.5045 69.2942 50.0492 68.0707 49.493 66.6418C46.5978 59.2079 43.0465 48.5158 41.3838 42.2279L40.5646 39.1294H32.5864L32.039 41.4691ZM171.904 40.4832L170.057 41.0404L169.983 42.488L169.909 43.9353H167.964V47.2235H169.884L169.979 51.4603C170.063 55.2152 170.134 55.8162 170.611 56.7455C171.323 58.1329 172.75 58.8601 174.752 58.8553C177.278 58.8495 177.321 58.8148 177.321 56.8057V55.0647H176.227C174.542 55.0647 174.366 54.6415 174.366 50.5818V47.2235H177.568V43.9353H174.366V41.9118C174.366 39.5974 174.528 39.6912 171.904 40.4832M74.5968 43.7284C74.1008 43.864 73.2478 44.3683 72.7012 44.8489L71.7071 45.7228L71.5438 44.8292L71.3806 43.9353H69.4094C67.4852 43.9353 67.4416 43.949 67.5866 44.5044C67.6681 44.8173 67.7366 48.1182 67.7383 51.8397L67.7418 58.6059H72.1742V53.9098C72.1742 50.9496 72.2759 49.0096 72.4493 48.6613C73.1927 47.1681 74.8516 46.7854 76.0388 47.8334L76.7298 48.4435L76.8056 53.5246L76.8817 58.6059H81.3191L81.2408 52.9779C81.1676 47.7438 81.1243 47.2769 80.619 46.3069C79.3885 43.9442 77.2131 43.0126 74.5968 43.7284ZM99.6307 43.7701C96.0323 44.727 94.2201 47.2372 94.2157 51.2706C94.2103 56.1109 97.264 59.0761 101.97 58.7999C106.482 58.5353 108.96 55.8291 108.979 51.1441C109.001 45.7029 104.806 42.3939 99.6307 43.7701ZM146.048 43.6882C144.644 43.9859 142.847 44.6787 142.847 44.922C142.847 45.0245 143.018 45.6986 143.226 46.4199L143.605 47.7319L144.396 47.3085C145.848 46.5305 148.842 46.5297 149.599 47.3073C150.64 48.3762 150.447 48.6484 148.517 48.8325C142.842 49.3743 140.032 53.3821 142.663 57.1785C143.986 59.086 147.683 59.4153 149.713 57.8066C150.501 57.1828 150.727 57.22 150.727 57.9735C150.727 58.597 150.756 58.6059 152.758 58.6064L154.79 58.6066L154.66 53.2314C154.52 47.4084 154.288 46.32 152.911 45.0224C151.579 43.7656 148.503 43.1679 146.048 43.6882M164.915 43.6856C164.078 43.9495 163.153 44.7766 162.515 45.8324L162.056 46.5912L162.055 45.6634C162.053 44.0183 161.952 43.9353 159.935 43.9353H158.114V58.6059H162.547V54.5507C162.547 49.9573 162.761 49.0695 164.071 48.23C164.641 47.8645 165.202 47.7307 165.941 47.7843L166.997 47.8609L166.926 45.7084C166.849 43.3262 166.659 43.136 164.915 43.6856M100.432 47.1145C98.329 48.2866 98.1308 53.4097 100.127 55.0222C101.549 56.1716 103.648 55.3007 104.178 53.3412C105.269 49.3035 103.069 45.6452 100.432 47.1145ZM148.47 51.7623C145.626 52.3312 145.087 55.3369 147.796 55.5192C149.429 55.6293 150.234 54.7576 150.234 52.8803C150.234 51.392 150.255 51.4052 148.47 51.7623Z" fill="#88B41C"/>
</svg>
