<svg width="200" height="100" viewBox="0 0 200 100" fill="none" xmlns="http://www.w3.org/2000/svg">
<g clip-path="url(#clip0_4_391)">
<path fill-rule="evenodd" clip-rule="evenodd" d="M42.3315 39.8689H45.8656V35.2623H42.3315V39.8689ZM37.8119 39.8689H41.3115V35.2623H37.8119V39.8689ZM18.6792 58.7045C32.3057 58.3982 38.7973 54.0992 39.9186 40.9601H46.2039C45.0839 58.5681 34.6174 64.4705 18.6792 64.54V58.7045V58.7045ZM33.3615 42.9751C28.8049 42.463 22.4516 41.9162 18.3742 41.7798V36.2171C22.69 36.3882 28.6358 36.7974 33.3603 37.3455V42.9751H33.3615ZM32.9874 52.3942C28.2283 51.8114 22.2479 51.3352 18 51.1988V45.6684C22.4862 45.8048 28.5703 46.2512 32.9861 46.7968V52.3929L32.9874 52.3942ZM53.5797 64.4048V59.1472H70.8083V54.646H53.9872V49.4256H70.8083V45.6349H53.613V40.3463H76.7208V64.4395L53.5797 64.4048ZM111.858 38.5719C111.418 56.1117 101.053 63.6868 88.2073 64.7111V59.2179C98.0614 57.715 104.112 51.8461 105.164 42.3254H84.6732V36.661H106.761V34H110.295V36.661H111.246V34H114.747V38.5719H111.857H111.858ZM132.177 64.5412V58.9786H136.934C139.145 58.9786 139.96 58.1254 139.96 55.9753V45.909H132.448C131.667 56.5556 125.447 62.7655 118.449 64.8475V58.9116C122.765 56.5221 126.13 52.29 126.401 45.909H118.449V40.381H126.433V35.5004H132.552V40.3798H146.246V56.382C146.246 62.1505 143.764 64.5387 138.363 64.5387H132.179L132.177 64.5412ZM154.027 58.6363C166.16 57.7844 173.501 54.4402 174.485 41.3706H180.873C179.887 57.7844 170.577 64.1655 154.027 64.5065V58.6363V58.6363ZM168.096 44.3738C164.189 43.5889 157.629 42.737 153.517 42.53V36.5916C157.97 36.8322 163.779 37.5464 168.096 38.2991V44.3751V44.3738Z" fill="#007CFF"/>
</g>
<defs>
<clipPath id="clip0_4_391">
<rect width="163" height="31" fill="white" transform="translate(18 34)"/>
</clipPath>
</defs>
</svg>
