<svg width="200" height="100" viewBox="0 0 200 100" fill="none" xmlns="http://www.w3.org/2000/svg">
<g clip-path="url(#clip0_4_319)">
<path d="M32.0256 52.0738C32.0256 56.5593 28.393 60.1966 23.9133 60.1966C19.4336 60.1966 15.801 56.5593 15.801 52.0738C15.801 47.5882 19.4336 43.9509 23.9133 43.9509C28.3952 43.9509 32.0256 47.5882 32.0256 52.0738Z" fill="white"/>
<path d="M59.6138 41.5631C59.3895 41.5631 56.1032 41.5631 55.8789 41.5631C55.6524 41.5631 55.4717 41.7354 55.4717 41.9469C55.4717 42.1585 55.4717 59.8215 55.4717 60.0483C55.4717 60.2729 55.6546 60.4561 55.8789 60.4561C56.1032 60.4561 59.3895 60.4561 59.6138 60.4561C59.8403 60.4561 60.0211 60.2729 60.0211 60.0483C60.0211 59.8215 60.0211 42.1977 60.0211 41.9753C60.0233 41.7485 59.8425 41.5631 59.6138 41.5631Z" fill="#1D9E48"/>
<path d="M95.6215 49.1823C95.3971 49.1823 87.9251 49.1823 87.7008 49.1823C87.4765 49.1823 87.2957 49.3633 87.2957 49.5879C87.2957 49.8125 87.2957 52.1893 87.2957 52.414C87.2957 52.6386 87.4765 52.8196 87.7008 52.8196C87.923 52.8196 90.8673 52.8196 91.8974 52.8196C91.8974 54.3918 90.8652 56.6008 87.7487 56.6008C84.6476 56.6008 83.0098 54.6317 83.0098 50.9028C83.0098 47.1739 84.6476 45.2026 87.7487 45.2026C88.9095 45.2026 90.0136 45.7151 90.876 46.6331C90.876 46.6331 91.0895 46.8621 91.1548 46.9515C91.2223 47.0409 91.3203 47.0954 91.4227 47.1063C91.5272 47.1216 91.6361 47.0954 91.7276 47.0256C91.819 46.958 94.5108 45.0936 94.5979 45.0238C94.6872 44.9584 94.7394 44.8603 94.7525 44.7599C94.7656 44.6575 94.7394 44.5506 94.6719 44.4612C94.6044 44.3696 94.4302 44.1581 94.4302 44.1581C92.7185 42.0778 90.3272 40.8937 87.7487 40.8937C82.2542 40.8937 78.7043 44.8232 78.7043 50.905C78.7043 56.9867 82.2542 60.9162 87.7487 60.9162C92.3134 60.9162 96.0243 56.8188 96.0243 51.7838C96.0243 51.7838 96.0243 49.8168 96.0243 49.5922C96.0243 49.3633 95.8436 49.1823 95.6215 49.1823Z" fill="#1D9E48"/>
<path d="M54.4177 59.9611C54.2151 55.9378 51.8109 52.4249 48.2632 50.3685C50.7764 48.5477 52.6449 45.7129 53.4028 42.3852C53.4028 42.3852 53.4507 42.1999 53.4921 41.9775C53.5313 41.755 53.3266 41.5675 53.1219 41.5675C52.9172 41.5675 50.036 41.5675 49.7812 41.5675C49.5263 41.5675 49.3826 41.7594 49.3216 41.9775C49.2563 42.1977 49.1997 42.3852 49.1997 42.3852C48.0563 45.9288 45.149 48.4605 41.7364 48.4648C41.6645 48.4627 41.5883 48.4605 41.5142 48.4583C41.5142 48.4583 41.5142 41.8641 41.5142 41.7572C41.5142 41.6525 41.4271 41.5653 41.3226 41.5653C41.2202 41.5653 37.751 41.5653 37.6465 41.5653C37.5419 41.5653 37.4548 41.6525 37.4548 41.7572C37.4548 41.8641 37.4548 60.1792 37.4548 60.2838C37.4548 60.3885 37.5419 60.4736 37.6465 60.4736C37.751 60.4736 41.2181 60.4736 41.3226 60.4736C41.4293 60.4736 41.5142 60.3885 41.5142 60.2838C41.5142 60.1835 41.5142 52.5317 41.5142 52.5317C46.2684 52.7519 50.0904 56.0011 50.3604 60.0571H50.3626C50.3626 60.0614 50.3626 60.0636 50.3626 60.068C50.3626 60.2926 50.5477 60.4736 50.7786 60.4736C50.7895 60.4736 50.8025 60.4714 50.8134 60.4714H50.8112C50.7982 60.4714 50.7873 60.4736 50.7764 60.4736H50.8112H54.0278C54.2282 60.4736 54.3807 60.3275 54.4155 60.1377C54.4133 60.1138 54.4264 59.9938 54.4177 59.9611Z" fill="#1D9E48"/>
<path d="M77.0383 41.5631C76.8118 41.5631 74.0221 41.5631 73.7934 41.5631C73.5691 41.5631 73.3861 41.7485 73.3861 41.9731C73.3861 42.1977 73.3861 46.8577 73.3861 46.8577C71.278 43.9662 68.4861 42.0669 65.3392 41.6395C65.043 41.598 64.7403 41.5762 64.4398 41.5631C64.4398 41.5631 61.9048 41.5631 61.6892 41.5631C61.4627 41.5631 61.2798 41.7485 61.2798 41.9731C61.2798 42.1977 61.2798 59.839 61.2798 60.0636C61.2798 60.2882 61.4627 60.4692 61.6892 60.4692C61.9157 60.4692 64.7076 60.4692 64.9319 60.4692C65.1563 60.4692 65.3414 60.2882 65.3414 60.0636C65.3414 59.8368 65.3414 45.7761 65.3414 45.7761C69.7122 46.8359 73.2076 52.909 73.3491 60.0571C73.3491 60.0571 73.3535 60.1508 73.3535 60.262C73.3535 60.3776 73.4449 60.467 73.5604 60.467C73.6758 60.467 77.0209 60.4692 77.0209 60.4692C77.2561 60.4692 77.4455 60.2882 77.4455 60.0636C77.4455 59.8368 77.4455 42.1955 77.4455 41.9731C77.4455 41.7485 77.2626 41.5631 77.0383 41.5631Z" fill="#1D9E48"/>
<path d="M142.801 41.5631C142.575 41.5631 127.929 41.5631 127.703 41.5631C127.476 41.5631 127.293 41.7485 127.293 41.9731C127.293 42.1977 127.293 44.5637 127.293 44.7905C127.293 45.0151 127.476 45.2004 127.703 45.2004C127.886 45.2004 131.37 45.2004 132.705 45.2004C132.99 45.2004 133.221 45.4032 133.221 45.654C133.221 48.1116 133.221 59.863 133.221 60.0658C133.221 60.2904 133.402 60.4714 133.628 60.4714C133.853 60.4714 136.645 60.4714 136.871 60.4714C137.098 60.4714 137.278 60.2904 137.278 60.0658C137.278 59.863 137.278 48.1116 137.278 45.654C137.278 45.4032 137.511 45.2004 137.797 45.2004C139.134 45.2004 142.616 45.2004 142.799 45.2004C143.023 45.2004 143.206 45.0151 143.206 44.7905C143.206 44.5637 143.206 42.1977 143.206 41.9731C143.209 41.7485 143.026 41.5631 142.801 41.5631Z" fill="#1D9E48"/>
<path d="M148.361 41.5631C148.137 41.5631 144.851 41.5631 144.626 41.5631C144.4 41.5631 144.217 41.7485 144.217 41.9731C144.217 42.1977 144.217 59.839 144.217 60.0636C144.217 60.2882 144.4 60.4692 144.626 60.4692C144.851 60.4692 148.137 60.4692 148.361 60.4692C148.585 60.4692 148.768 60.2882 148.768 60.0636C148.768 59.8368 148.768 42.1955 148.768 41.9731C148.768 41.7485 148.585 41.5631 148.361 41.5631Z" fill="#1D9E48"/>
<path d="M165 41.5631H153.978C151.693 41.5631 149.838 43.1899 149.838 45.2004H149.827C149.827 45.2004 149.827 59.839 149.827 60.0658C149.827 60.2904 150.01 60.4714 150.234 60.4714C150.458 60.4714 153.34 60.4714 153.566 60.4714C153.793 60.4714 153.976 60.2904 153.976 60.0658C153.976 59.839 153.976 46.1098 153.976 46.1098C153.976 45.606 154.439 45.2004 155.01 45.2004H156.519C157.157 45.2004 157.678 45.654 157.678 46.2166C157.678 46.2166 157.678 59.8019 157.678 60.0265C157.678 60.2555 157.859 60.4365 158.083 60.4365C158.307 60.4365 160.672 60.4365 160.899 60.4365C161.123 60.4365 161.306 60.2555 161.306 60.0265C161.306 59.8019 161.306 46.2166 161.306 46.2166C161.306 45.654 161.824 45.2004 162.462 45.2004H164.109C164.679 45.2004 164.995 45.606 164.995 46.1098C164.995 46.1098 164.995 59.839 164.995 60.0658C164.995 60.2904 165.178 60.4714 165.405 60.4714C165.631 60.4714 168.501 60.4714 168.726 60.4714C168.952 60.4714 169.135 60.2904 169.135 60.0658C169.135 59.839 169.135 45.2004 169.135 45.2004C169.14 43.1899 167.286 41.5631 165 41.5631Z" fill="#1D9E48"/>
<path d="M185.591 41.5631C185.368 41.5631 174.277 41.5631 174.277 41.5631C172.034 41.5631 170.218 43.6369 170.218 46.197V55.7917C170.218 58.3562 172.034 60.4365 174.277 60.4365C174.277 60.4365 185.368 60.4365 185.591 60.4365C185.817 60.4365 186 60.2555 186 60.0265C186 59.8041 186 57.4141 186 57.1895C186 56.9649 185.817 56.7817 185.591 56.7817C185.368 56.7817 175.292 56.7817 175.292 56.7817C174.732 56.7817 174.277 56.2606 174.277 55.6217V52.8174C174.277 52.8174 184.092 52.8174 184.319 52.8174C184.543 52.8174 184.726 52.6342 184.726 52.4096C184.726 52.1828 184.726 49.8168 184.726 49.5922C184.726 49.3654 184.543 49.1844 184.319 49.1844C184.092 49.1844 174.277 49.1844 174.277 49.1844V46.3671C174.277 45.7281 174.732 45.2113 175.292 45.2113C175.292 45.2113 185.368 45.2113 185.591 45.2113C185.817 45.2113 186 45.0282 186 44.8014C186 44.5768 186 42.1999 186 41.9753C186 41.7485 185.817 41.5631 185.591 41.5631Z" fill="#1D9E48"/>
<path d="M125.69 46.1643C125.516 46.1643 118.356 46.1599 118.356 46.1599H118.34C116.618 46.1708 115.23 47.5686 115.23 49.2913C115.23 49.2913 115.23 59.9807 115.23 60.1574C115.23 60.3318 115.372 60.4692 115.544 60.4692C115.718 60.4692 117.87 60.4692 118.042 60.4692C118.216 60.4692 118.356 60.3296 118.356 60.1574C118.356 59.9829 118.356 55.107 118.356 55.107C118.356 55.107 124.998 55.107 125.168 55.107C125.342 55.107 125.484 54.9675 125.484 54.7952C125.484 54.6186 125.484 52.4663 125.484 52.2918C125.484 52.1196 125.342 51.9778 125.168 51.9778C124.996 51.9778 118.356 51.9778 118.356 51.9778V50.0741C118.356 49.6424 118.704 49.2957 119.135 49.2935C119.135 49.2935 125.516 49.2935 125.69 49.2935C125.865 49.2935 126.006 49.1517 126.006 48.9795C126.006 48.805 126.006 46.6527 126.006 46.4783C126.004 46.3038 125.862 46.1643 125.69 46.1643Z" fill="#1D9E48"/>
<path d="M104.572 45.2353H108.998C109.174 45.2353 109.318 45.0936 109.318 44.917V41.694C109.318 41.5195 109.226 41.4868 109.113 41.622L108.259 42.6295C108.144 42.7625 107.961 42.7625 107.848 42.6295L106.992 41.6198C106.879 41.4846 106.694 41.4846 106.58 41.6198L105.724 42.6273C105.613 42.7625 105.426 42.7625 105.313 42.6273L104.459 41.6198C104.346 41.4846 104.254 41.5195 104.254 41.6918V44.917C104.254 45.0936 104.398 45.2353 104.572 45.2353Z" fill="#1D9E48"/>
<path d="M106.787 45.7151C102.571 45.7151 99.156 49.1365 99.156 53.356C99.156 57.5755 102.571 60.9969 106.787 60.9969C111.001 60.9969 114.418 57.5755 114.418 53.356C114.416 49.1365 110.999 45.7151 106.787 45.7151ZM106.787 57.7194C104.381 57.7194 102.429 55.7656 102.429 53.356C102.429 50.9464 104.381 48.9904 106.787 48.9904C109.193 48.9904 111.145 50.9442 111.145 53.356C111.145 55.7656 109.191 57.7194 106.787 57.7194Z" fill="#1D9E48"/>
<path d="M114.107 46.6636L111.981 44.5353V45.9658C108.906 46.6266 106.613 49.0798 106.127 52.1392C105.694 52.3747 105.398 52.8283 105.398 53.356C105.398 54.1236 106.018 54.7472 106.787 54.7472C107.556 54.7472 108.177 54.1236 108.177 53.356C108.177 52.9155 107.968 52.5273 107.65 52.2722C108.068 50.0174 109.762 48.1508 111.983 47.5337V48.7919L114.107 46.6636Z" fill="#F18800"/>
<path d="M25.4421 39.0794C25.3245 39.2102 25.1307 39.2102 25.0131 39.0794L24.1289 38.0981C24.0113 37.9673 23.8197 37.9673 23.6999 38.0981L22.8135 39.0794C22.6959 39.2102 22.5043 39.2102 22.3867 39.0794L21.5003 38.0981C21.3849 37.9673 21.2891 38.0022 21.2891 38.1701V41.3037C21.2891 41.4737 21.4372 41.6133 21.6201 41.6133H26.2109C26.3938 41.6133 26.5419 41.4737 26.5419 41.3037V38.1701C26.5419 38.0022 26.4461 37.9673 26.3285 38.0981L25.4421 39.0794Z" fill="#F18800"/>
<path d="M14 52.0738C14 57.545 18.4471 62 23.9155 62C29.3818 62 33.8288 57.545 33.8288 52.0738C33.8288 46.6004 29.3818 42.1476 23.9155 42.1476C18.4471 42.1476 14 46.5982 14 52.0738ZM15.8032 52.0738C15.8032 47.5948 19.4423 43.9509 23.9155 43.9509C28.3887 43.9509 32.0278 47.5948 32.0278 52.0738C32.0278 56.5528 28.3887 60.1966 23.9155 60.1966C19.4423 60.1944 15.8032 56.5506 15.8032 52.0738Z" fill="#1D9E48"/>
<path d="M25.6294 48.1159C25.6294 48.8486 26.0366 49.4418 26.5397 49.4418C27.0428 49.4418 27.45 48.8486 27.45 48.1159C27.45 47.3811 27.0428 46.7879 26.5397 46.7879C26.0366 46.7858 25.6294 47.3811 25.6294 48.1159Z" fill="#1D9E48"/>
<path d="M22.1993 48.1159C22.1993 48.8486 21.7921 49.4418 21.289 49.4418C20.7859 49.4418 20.3787 48.8486 20.3787 48.1159C20.3787 47.3811 20.7859 46.7879 21.289 46.7879C21.7921 46.7858 22.1993 47.3811 22.1993 48.1159Z" fill="#1D9E48"/>
<path d="M20.3787 52.656C19.6884 51.9647 18.5603 50.8352 18.5581 50.833L19.3661 50.0218H16.5088V52.8872L17.3168 52.076L20.3787 55.1397L23.4407 52.0738L22.1994 50.8308C22.1994 50.833 21.0691 51.9647 20.3787 52.656Z" fill="#F18800"/>
<path d="M31.322 50.0218H28.4604L29.2706 50.8352C29.264 50.8417 28.1381 51.9669 27.4499 52.656C26.7596 51.9647 25.6293 50.833 25.6293 50.833L24.3879 52.076L27.4499 55.1419L30.5119 52.0781L31.322 52.8893V50.0218Z" fill="#F18800"/>
</g>
<defs>
<clipPath id="clip0_4_319">
<rect width="172" height="24" fill="white" transform="translate(14 38)"/>
</clipPath>
</defs>
</svg>
