<svg width="24" height="24" viewBox="0 0 24 24" fill="none" xmlns="http://www.w3.org/2000/svg">
<path opacity="0.3" d="M18 8V18C18 18.6 18.4 19 19 19C19.6 19 20 18.6 20 18V8H18Z" fill="#1DD1A1"/>
<path opacity="0.3" d="M11 8V15H6V8H4V18C4 18.6 4.4 19 5 19H12C12.6 19 13 18.6 13 18V8H11Z" fill="#1DD1A1"/>
<path opacity="0.3" d="M10 8C10 9.1 9.1 10 8 10C6.9 10 6 9.1 6 8H10Z" fill="#1DD1A1"/>
<path opacity="0.3" d="M18 8C18 9.1 17.1 10 16 10C14.9 10 14 9.1 14 8H18Z" fill="#1DD1A1"/>
<path opacity="0.3" d="M14 2H10V8H14V2Z" fill="#1DD1A1"/>
<path opacity="0.3" d="M17 2H20L22 8H18L17 2Z" fill="#1DD1A1"/>
<path opacity="0.3" d="M7 2H4L2 8H6L7 2Z" fill="#1DD1A1"/>
<path d="M6 8C6 9.1 5.1 10 4 10C2.9 10 2 9.1 2 8H6ZM10 8C10 9.1 10.9 10 12 10C13.1 10 14 9.1 14 8H10ZM18 8C18 9.1 18.9 10 20 10C21.1 10 22 9.1 22 8H18ZM19 0H5C4.4 0 4 0.4 4 1V2H20V1C20 0.4 19.6 0 19 0ZM12 15C12 14.4 11.6 14 11 14H6C5.4 14 5 14.4 5 15C5 15.6 5.4 16 6 16H11C11.6 16 12 15.6 12 15Z" fill="#1DD1A1"/>
</svg>
