<svg width="200" height="100" viewBox="0 0 200 100" fill="none" xmlns="http://www.w3.org/2000/svg">
<g clip-path="url(#clip0_4_229)">
<path d="M39.7503 40.2288C39.5732 40.2278 39.4037 40.1578 39.2784 40.034C39.1532 39.9102 39.0824 39.7425 39.0814 39.5674V27.6467C39.0808 27.5588 39.0984 27.4717 39.1331 27.3907C39.1679 27.3098 39.2191 27.2367 39.2835 27.1761C39.3479 27.1155 39.4242 27.0686 39.5077 27.0383C39.5912 27.008 39.6801 26.995 39.7689 27C43.0806 27.1682 46.2111 28.5467 48.5531 30.8682C50.8952 33.1896 52.2819 36.2885 52.4443 39.5637C52.4483 39.6496 52.4346 39.7355 52.4041 39.816C52.3736 39.8966 52.3269 39.9702 52.2668 40.0323C52.2067 40.0945 52.1345 40.144 52.0545 40.1778C51.9745 40.2115 51.8884 40.2289 51.8014 40.2288H39.7503Z" fill="#A0A0A0"/>
<path d="M32.3778 39.5637C32.3769 39.7388 32.3061 39.9065 32.1809 40.0303C32.0556 40.1542 31.8861 40.2242 31.709 40.2251H19.669C19.5801 40.2253 19.4921 40.2074 19.4104 40.1726C19.3287 40.1378 19.2551 40.0868 19.1941 40.0227C19.1332 39.9587 19.0862 39.8829 19.056 39.8002C19.0258 39.7174 19.0132 39.6294 19.0187 39.5417C19.187 36.2661 20.5797 33.1692 22.9267 30.8517C25.2736 28.5343 28.4075 27.1616 31.7201 27C31.8066 26.9985 31.8925 27.0142 31.9727 27.0461C32.0529 27.0781 32.1259 27.1256 32.1872 27.1859C32.2485 27.2462 32.297 27.3181 32.3298 27.3972C32.3625 27.4764 32.3788 27.5612 32.3778 27.6467V39.5637Z" fill="#FFD900"/>
<path d="M39.0665 47.5046C39.0675 47.3295 39.1383 47.1618 39.2635 47.038C39.3887 46.9142 39.5583 46.8442 39.7354 46.8432H51.8013C51.8895 46.8446 51.9765 46.8635 52.057 46.8989C52.1376 46.9344 52.2101 46.9856 52.2701 47.0494C52.3302 47.1133 52.3766 47.1884 52.4065 47.2705C52.4364 47.3525 52.4492 47.4396 52.4442 47.5267C52.277 50.8017 50.8857 53.8985 48.5402 56.2166C46.1947 58.5346 43.0622 59.9086 39.7503 60.072C39.6613 60.0771 39.5723 60.0639 39.4888 60.0334C39.4052 60.0028 39.3289 59.9556 39.2647 59.8945C39.2005 59.8334 39.1498 59.7599 39.1157 59.6785C39.0816 59.5971 39.0648 59.5097 39.0665 59.4216V47.5046ZM31.7199 72C24.6929 72 19 66.319 19 53.9206V47.5046C19.001 47.3295 19.0718 47.1618 19.197 47.038C19.3222 46.9142 19.4918 46.8442 19.6689 46.8432H31.7199C31.8951 46.847 32.0618 46.9183 32.1847 47.0418C32.3075 47.1654 32.3768 47.3314 32.3777 47.5046V71.3386C32.3767 71.5137 32.3059 71.6814 32.1807 71.8052C32.0555 71.929 31.8859 71.999 31.7088 72M79.3519 37.5316H67.6093V66.0029H73.3468V55.5889H79.3928C86.2191 55.5889 89.8794 52.0502 89.8794 46.5823C89.8794 41.1144 86.2191 37.5316 79.3519 37.5316M79.2479 50.3929H73.3468V42.7607H79.2479C82.373 42.7607 84.0007 44.0394 84.0007 46.5823C84.0007 49.1252 82.373 50.404 79.2479 50.404V50.3929ZM107.973 37.0061C99.11 37.0061 92.8597 43.2531 92.8597 51.7673C92.8597 60.2815 99.11 66.5321 107.973 66.5321C116.835 66.5321 123.108 60.2851 123.108 51.7673C123.108 43.2494 116.839 37.0061 107.973 37.0061M107.973 61.0826C102.689 61.0826 98.8425 57.2976 98.8425 51.7673C98.8425 46.2369 102.689 42.4557 107.973 42.4557C113.257 42.4557 117.103 46.2369 117.103 51.7673C117.103 57.2976 113.279 61.0826 107.973 61.0826V61.0826ZM140.514 49.2648L138.89 49.0002C135.434 48.4343 132.944 47.8023 132.944 45.693C132.944 43.536 135.226 42.2756 138.455 42.2756C141.356 42.3084 144.189 43.1476 146.631 44.6972L149.343 40.0598C146.045 38.0277 142.226 36.9766 138.34 37.0318C132.212 37.0318 126.869 40.1222 126.869 46.0605C126.869 51.205 130.585 53.4098 135.65 54.2146L137.478 54.4975C141.488 55.1296 143.587 55.8608 143.587 57.8341C143.587 60.0389 141.116 61.27 137.931 61.27C134.617 61.2615 131.397 60.1828 128.76 58.1979L125.787 62.7729C128.872 65.2349 133.561 66.4953 137.92 66.4953C144.111 66.4953 149.704 63.5078 149.704 57.2241C149.704 52.2597 145.672 50.0843 140.533 49.2501M170.015 38.024V27.158H164.49V38.024H153.501V43.5176H164.49V54.3506H170.015V43.5176H181V38.024H170.015Z" fill="#A0A0A0"/>
</g>
<defs>
<clipPath id="clip0_4_229">
<rect width="162" height="45" fill="white" transform="translate(19 27)"/>
</clipPath>
</defs>
</svg>
