<svg width="377" height="112" viewBox="0 0 377 112" fill="none" xmlns="http://www.w3.org/2000/svg">
<path d="M4.41167 87.0363C2.20253 87.0363 0.58891 85.2542 0.807554 83.0559L8.21078 8.62229C8.42942 6.424 10.3975 4.64194 12.6067 4.64194H41.2605C48.8798 4.64194 54.8222 7.04027 59.0877 11.8369C63.3532 16.6336 65.1397 22.5134 64.4471 29.4763C63.5954 38.0396 59.2801 44.3594 51.5011 48.4358C48.9596 49.7677 47.7061 52.9519 49.2174 55.0914L67.2129 80.5658C69.0534 83.1712 66.8049 87.0363 63.4487 87.0363H51.4184C50.2108 87.0363 49.1218 86.4934 48.4553 85.5592L25.7717 53.7629C25.4429 53.302 24.9056 53.0341 24.3098 53.0341C23.2199 53.0341 22.2488 53.9134 22.141 54.998L19.3503 83.0559C19.1316 85.2542 17.1635 87.0363 14.9544 87.0363H4.41167ZM24.2904 33.3872C24.0717 35.5855 25.6854 37.3676 27.8945 37.3676H35.7898C38.5887 37.3676 40.9165 36.6326 42.7731 35.1627C44.7075 33.6927 45.7902 31.7973 46.021 29.4763C46.2672 27.0006 45.5655 25.0665 43.9158 23.6739C42.3439 22.2813 40.1585 21.585 37.3596 21.585H29.4642C27.2551 21.585 25.287 23.3671 25.0683 25.5654L24.2904 33.3872Z" fill="#1DD1A1"/>
<path d="M96.9225 88.3128C89.381 88.3128 83.2631 85.3343 78.5688 79.3771C73.9522 73.42 72.0556 66.3023 72.879 58.0242C73.7023 49.7461 77.0148 42.6284 82.8163 36.6713C88.6957 30.7141 95.4061 27.7356 102.948 27.7356C108.024 27.7356 112.159 29.0959 115.351 31.8166C116.395 32.7059 118.386 31.9754 118.529 30.5401C118.613 29.6962 119.369 29.0121 120.217 29.0121H132.291C134.5 29.0121 136.114 30.7942 135.895 32.9925L130.916 83.0559C130.697 85.2542 128.729 87.0363 126.52 87.0363H114.445C113.597 87.0363 112.978 86.3522 113.062 85.5083C113.205 84.073 111.359 83.3425 110.138 84.2318C106.404 86.9525 101.999 88.3128 96.9225 88.3128ZM93.1933 68.3525C95.4119 71.0603 98.5038 72.4142 102.469 72.4142C106.434 72.4142 109.756 71.0603 112.436 68.3525C115.193 65.6447 116.779 62.2019 117.195 58.0242C117.61 53.8465 116.709 50.4037 114.49 47.6959C112.349 44.9881 109.296 43.6342 105.331 43.6342C101.366 43.6342 98.0051 44.9881 95.2479 47.6959C92.5684 50.4037 91.0209 53.8465 90.6053 58.0242C90.1898 62.2019 91.0525 65.6447 93.1933 68.3525Z" fill="#1DD1A1"/>
<path d="M186.187 87.0363C185.001 87.0363 183.928 86.5121 183.258 85.6055L171.43 69.5944C169.318 66.7362 164.475 68.422 164.104 72.1439L163.019 83.0559C162.8 85.2542 160.832 87.0363 158.623 87.0363H149.013C146.804 87.0363 145.191 85.2542 145.409 83.0559L153.274 3.98036C153.493 1.78206 155.461 0 157.67 0H167.28C169.489 0 171.103 1.78207 170.884 3.98036L167.44 38.6073C167.068 42.351 171.623 44.0242 174.289 41.1231L184.075 30.4766C184.927 29.5499 186.118 29.0121 187.32 29.0121H197.881C201.251 29.0121 202.724 32.905 200.338 35.5055L184.561 52.6984C183.206 54.1743 183.007 56.2944 184.085 57.7574L200.848 80.51C202.758 83.103 200.514 87.0363 197.124 87.0363H186.187Z" fill="#1DD1A1"/>
<path d="M287.276 87.0363C285.067 87.0363 283.453 85.2542 283.672 83.0559L286.265 56.9798C287.15 48.0827 284.794 43.6342 279.196 43.6342C272.51 43.6342 268.53 48.4696 267.257 58.1403L264.779 83.0559C264.56 85.2542 262.592 87.0363 260.383 87.0363H250.773C248.564 87.0363 246.951 85.2542 247.169 83.0559L249.763 56.9798C250.648 48.0827 248.291 43.6342 242.694 43.6342C239.428 43.6342 236.736 44.9107 234.616 47.4638C232.504 49.9395 231.194 53.7304 230.686 58.8365L228.277 83.0559C228.058 85.2542 226.09 87.0363 223.881 87.0363H214.271C212.062 87.0363 210.448 85.2542 210.667 83.0559L215.646 32.9925C215.865 30.7942 217.833 29.0121 220.042 29.0121H232.137C232.974 29.0121 233.585 29.6872 233.502 30.5199C233.359 31.9573 235.239 32.6718 236.444 31.7561C239.969 29.0757 244.057 27.7356 248.706 27.7356C254.083 27.7356 258.368 29.2121 261.563 32.1652C263.793 34.2274 268.22 34.1896 270.947 32.247C271.921 31.5529 272.971 30.9388 274.098 30.4047C277.695 28.6253 281.205 27.7356 284.626 27.7356C291.701 27.7356 296.912 30.0565 300.26 34.6985C303.686 39.3404 304.991 45.7618 304.175 53.9625L301.281 83.0559C301.063 85.2542 299.095 87.0363 296.886 87.0363H287.276Z" fill="#1DD1A1"/>
<path d="M335.552 108.909C334.77 110.356 333.239 111.29 331.652 111.29H321.369C318.485 111.29 316.842 108.346 318.258 105.716L329.268 85.2731C329.818 84.2521 329.932 83.0907 329.581 82.0714L313.235 34.6004C312.329 31.9692 314.559 29.0121 317.45 29.0121H327.848C329.482 29.0121 330.854 30.0011 331.312 31.5101L338.64 55.6285C339.653 58.9642 344.401 58.9576 346.069 55.6182L358.106 31.5204C358.862 30.0059 360.433 29.0121 362.071 29.0121H372.595C375.481 29.0121 377.124 31.9612 375.703 34.5914L335.552 108.909Z" fill="#1DD1A1"/>
</svg>
