<svg width="420" height="137" viewBox="0 0 420 137" fill="none" xmlns="http://www.w3.org/2000/svg">
<path fill-rule="evenodd" clip-rule="evenodd" d="M24.528 137C9.69676 137 -1.23455 125.234 0.112217 110.719L7.94699 26.281C9.29376 11.7664 22.4086 0 37.2398 0H395.472C410.303 0 421.235 11.7664 419.888 26.281L412.053 110.719C410.706 125.234 397.591 137 382.76 137H24.528ZM174.723 28.3384C174.346 28.1535 173.93 28.0482 173.505 28.029L163.254 28C162.624 28.0145 162.015 28.2182 161.515 28.5824C161.011 28.9469 160.641 29.4533 160.451 30.0313C159.239 34.0554 157.592 37.946 155.536 41.639C153.61 45.016 151.433 48.2551 149.024 51.3314C147.36 53.4489 145.47 55.3941 143.386 57.1353L141.879 58.267C141.565 58.5081 141.306 58.8068 141.116 59.1454C140.923 59.4844 140.803 59.8567 140.763 60.2403L139.135 78.1451C140.622 77.4426 142.033 76.6068 143.356 75.6495C146.956 73.1884 150.354 70.462 153.516 67.4951C157.951 63.4086 161.988 58.9405 165.576 54.1463C165.856 53.7951 166.218 53.5105 166.631 53.3143C167.044 53.1181 167.496 53.0157 167.958 53.0145H186.68C187.141 53.0308 187.593 53.1489 187.997 53.3596C188.404 53.5702 188.754 53.868 189.023 54.2296C189.291 54.5911 189.469 55.0073 189.544 55.4455C189.619 55.8839 189.586 56.3329 189.454 56.758C188.209 61.8572 186.176 66.7478 183.424 71.2676C180.397 76.0409 176.577 80.305 172.118 83.8909C168.229 87.1187 163.921 89.8497 159.305 92.0163C156.052 93.5317 152.675 94.7838 149.205 95.7598L147.065 96.2821C146.48 96.4365 145.955 96.7574 145.563 97.2026C145.171 97.648 144.927 98.1968 144.864 98.7778L143.929 109.051C143.923 109.48 144.013 109.905 144.197 110.296C144.381 110.688 144.653 111.034 144.993 111.312C145.334 111.589 145.735 111.791 146.166 111.902C146.597 112.013 147.046 112.03 147.487 111.952C150.981 111.117 154.406 110.041 157.737 108.731C162.404 106.989 166.939 104.933 171.304 102.579C176.562 99.7305 181.449 96.292 185.866 92.3355C191.036 87.6631 195.384 82.2139 198.739 76.2008C202.68 69.0819 205.369 61.3845 206.699 53.4208V53.1306L207.784 41.1747C207.814 40.7769 207.757 40.3775 207.618 40.0017C207.48 39.626 207.262 39.2815 206.979 38.9901C206.696 38.6988 206.355 38.4666 205.975 38.3082C205.592 38.15 205.182 38.0688 204.769 38.0696H178.178C177.72 38.0551 177.274 37.9411 176.87 37.7356C176.466 37.5302 176.116 37.2388 175.845 36.8836C175.573 36.5287 175.392 36.1193 175.311 35.686C175.229 35.253 175.251 34.8079 175.374 34.3842C175.417 34.2688 175.47 34.1511 175.523 34.0317L175.523 34.0316C175.657 33.7306 175.796 33.419 175.796 33.1074L176.339 31.3952C176.408 30.9913 176.387 30.5784 176.279 30.1828C176.167 29.7873 175.974 29.4187 175.706 29.1007C175.438 28.7829 175.103 28.5229 174.723 28.3384ZM56.1059 43.0029L56.8596 34.7905C56.9561 33.9878 57.3574 33.2475 57.986 32.7118C58.6149 32.1764 59.4268 31.883 60.2664 31.8885H112.846C113.318 31.8912 113.785 31.9875 114.218 32.1715C114.65 32.3558 115.038 32.6236 115.357 32.9585C115.677 33.2937 115.922 33.6883 116.076 34.1184C116.23 34.5484 116.29 35.0043 116.253 35.4579L115.499 43.6703C115.402 44.473 115.001 45.2133 114.372 45.7487C113.744 46.2844 112.932 46.5775 112.092 46.5722H59.5127C59.0387 46.574 58.5696 46.4805 58.1355 46.298C57.701 46.1155 57.3112 45.8476 56.9904 45.5116C56.67 45.1756 56.4258 44.7792 56.2732 44.3471C56.121 43.915 56.064 43.4573 56.1059 43.0029ZM51.7645 58.7894L51.0108 67.0018C50.9734 67.4554 51.0337 67.9113 51.1877 68.3413C51.3418 68.7714 51.5863 69.166 51.9059 69.5012C52.2257 69.8361 52.6138 70.1039 53.0458 70.2882C53.4781 70.4722 53.9451 70.5685 54.4176 70.5711H92.8572C93.4592 70.5677 94.052 70.7162 94.5756 71.0027C95.0993 71.2888 95.5356 71.7023 95.8407 72.202C96.1461 72.7014 96.3098 73.2696 96.3152 73.8492C96.3206 74.4287 96.1678 74.9995 95.872 75.5044C94.6118 77.7473 93.017 79.8004 91.1387 81.5984C88.1603 84.4798 84.6808 86.8367 80.858 88.563C77.3601 90.1443 73.7164 91.4072 69.9743 92.3355C67.2214 93.1376 64.4233 93.7868 61.593 94.2798H60.8694C60.1027 94.3712 59.39 94.7064 58.8437 95.2319C58.2977 95.7577 57.9495 96.4438 57.8545 97.1817L57.0405 106.381C56.9769 106.876 57.0315 107.378 57.2 107.849C57.3685 108.321 57.6465 108.749 58.0128 109.101C58.3788 109.454 58.8238 109.721 59.3137 109.884C59.8033 110.046 60.3252 110.098 60.8392 110.037C63.5526 109.689 67.1403 109.051 71.542 108.093C76.4168 106.986 81.164 105.411 85.7119 103.392C91.1435 100.932 96.2124 97.7897 100.786 94.0476C106.021 89.7772 110.211 84.4458 113.057 78.4353C115.87 72.487 117.701 66.1521 118.484 59.6599C118.552 59.193 118.517 58.7174 118.379 58.265C118.241 57.8123 118.004 57.3935 117.685 57.0363C117.365 56.6791 116.97 56.3918 116.525 56.1936C116.08 55.9954 115.597 55.8909 115.107 55.8875H55.1713C54.3316 55.8822 53.5197 56.1753 52.8908 56.711C52.2622 57.2464 51.861 57.9867 51.7645 58.7894ZM289.306 97.675L288.492 106.555C288.45 106.999 288.311 107.431 288.085 107.822C287.862 108.213 287.558 108.555 287.19 108.827C286.822 109.1 286.4 109.296 285.948 109.404C285.498 109.513 285.031 109.531 284.573 109.457C279.839 108.702 275.528 108.093 271.217 107.687C265.326 107.108 259.411 106.837 253.49 106.874H227.954C227.486 106.872 227.025 106.776 226.597 106.593C226.169 106.41 225.786 106.144 225.472 105.811C225.159 105.479 224.918 105.087 224.77 104.66C224.622 104.233 224.565 103.782 224.607 103.334L225.421 94.2508C225.512 93.4504 225.906 92.7107 226.531 92.1744C227.155 91.6385 227.963 91.3442 228.798 91.3489H254.907C265.525 91.4403 276.116 92.4113 286.563 94.2508C287.316 94.4171 287.989 94.8277 288.468 95.4142C288.944 96.0003 289.198 96.727 289.186 97.4719L289.306 97.675ZM286.985 67.6402L286.171 76.3749C286.122 76.8207 285.981 77.2528 285.755 77.6437C285.526 78.0348 285.218 78.377 284.847 78.6489C284.479 78.9208 284.054 79.117 283.602 79.2249C283.15 79.3329 282.68 79.3506 282.221 79.2769C277.488 78.5224 273.177 77.942 268.865 77.5067C262.944 76.9521 256.996 76.6907 251.047 76.7232H235.129C234.674 76.7052 234.227 76.5987 233.817 76.4106C233.407 76.2226 233.04 75.9568 232.738 75.6289C232.437 75.3009 232.208 74.9179 232.066 74.5023C231.921 74.0871 231.867 73.648 231.903 73.2119L232.747 64.1289C232.838 63.3334 233.227 62.5978 233.845 62.0624C234.463 61.527 235.262 61.2296 236.094 61.2269H252.615C263.276 61.2766 273.912 62.2478 284.392 64.1289C285.158 64.3036 285.833 64.7298 286.306 65.3337C286.78 65.9376 287.021 66.6814 286.985 67.437V67.6402ZM292.773 39.0563L291.959 47.9652C291.908 48.4066 291.763 48.8334 291.537 49.2203C291.311 49.6071 291.007 49.946 290.639 50.2168C290.274 50.4875 289.855 50.6849 289.409 50.7966C288.962 50.9083 288.495 50.9321 288.04 50.8671C283.297 50.1126 278.835 49.5322 274.654 49.1259C269.447 48.6422 263.508 48.3619 256.836 48.2844H235.25C234.767 48.2844 234.291 48.1851 233.854 47.9936C233.413 47.8018 233.025 47.5221 232.708 47.1732C232.388 46.8241 232.153 46.4138 232.015 45.9698C231.876 45.5258 231.84 45.0583 231.903 44.599L232.747 35.516C232.838 34.7205 233.227 33.9849 233.845 33.4495C234.463 32.9141 235.262 32.6166 236.094 32.614H258.283C268.941 32.7214 279.571 33.6921 290.06 35.516C290.853 35.6677 291.561 36.0882 292.059 36.7005C292.556 37.3128 292.809 38.0766 292.773 38.8532V39.0563ZM312.491 73.3569L313.335 64.361C313.431 63.5583 313.832 62.8181 314.462 62.2826C315.089 61.747 315.903 61.4539 316.741 61.4591H366.577C367.054 61.4568 367.527 61.5511 367.961 61.7353C368.398 61.9199 368.79 62.1904 369.113 62.5296C369.432 62.8685 369.677 63.269 369.827 63.7043C369.978 64.1399 370.029 64.6007 369.984 65.0575L369.17 74.0534C369.074 74.8561 368.673 75.5964 368.043 76.1318C367.415 76.6674 366.601 76.9605 365.763 76.9553H315.927C315.43 76.9559 314.942 76.8538 314.489 76.6558C314.037 76.4582 313.633 76.1692 313.307 75.8088C312.982 75.4484 312.741 75.025 312.599 74.5668C312.457 74.1088 312.421 73.6268 312.491 73.1538V73.3569Z" fill="#1DD1A1"/>
</svg>
