<svg viewBox="0 0 24 24" xmlns="http://www.w3.org/2000/svg"><path fill="#1DD1A1" fill-opacity=".4" d="M8 11.53c-.63.27-1.29.46-2 .46s-1.39-.17-2-.44c0 2.87 0 5.91 0 7.43h16v-7.44c-.63.27-1.3.43-2 .43 -.71 0-1.38-.2-2-.47 -.63.27-1.29.46-2 .46s-1.38-.2-2-.47c-.63.27-1.29.46-2 .46s-1.375-.2-2-.47Zm2 2.46c1.1 0 2 .89 2 2v3H8v-3c0-1.11.89-2 2-2Zm6 0c.55 0 1 .44 1 1 0 .55-.45 1-1 1 -.56 0-1-.45-1-1 0-.56.44-1 1-1Z"/><path fill="#1DD1A1" fill-rule="evenodd" d="M5.09 3.56c.16-.34.52-.57.9-.57h12c.37 0 .73.22.9.56l2.09 3.43c-.01 1.84-1.53 3-3 3 -.78 0-1.47-.27-2-.75 -.54.48-1.23.75-2 .75 -.78 0-1.47-.3-2-.79 -.54.48-1.23.78-2 .78 -.78 0-1.47-.3-2-.79 -.54.48-1.23.78-2 .78 -1.48 0-2.97-1.12-3-3l2.09-3.44Zm4.9 10.43c-1.11 0-2 .89-2 2v3h-4c-.56 0-1 .44-1 1 0 .55.44 1 1 1h16c.55 0 1-.45 1-1 0-.56-.45-1-1-1h-8v-3c0-1.11-.9-2-2-2Zm7 1c0 .55-.45 1-1 1 -.56 0-1-.45-1-1 0-.56.44-1 1-1 .55 0 1 .44 1 1Z"/></svg>