<svg width="200" height="100" viewBox="0 0 200 100" fill="none" xmlns="http://www.w3.org/2000/svg">
<path d="M175.143 20.7857H21.8571C18.6429 20.7857 16 23.4286 16 26.6428V73.8571C16 77.0714 18.6429 79.7143 21.8571 79.7143H175.143C178.357 79.7143 181 77.0714 181 73.8571V26.6428C181 23.4286 178.357 20.7857 175.143 20.7857Z" fill="black"/>
<path d="M156.643 41.0714H160.5C160.786 41.0714 161 40.8571 161 40.5714V31C161 30.7143 160.786 30.5 160.5 30.5H156.643C156.357 30.5 156.143 30.7143 156.143 31V40.5C156.143 40.8571 156.357 41.0714 156.643 41.0714ZM137.214 39.5714H151.571C151.857 39.5714 152.071 39.3571 152.071 39.0714V34.2143C152.071 33.9286 151.857 33.7143 151.571 33.7143H137.214C136.929 33.7143 136.714 33.9286 136.714 34.2143V39.0714C136.714 39.3571 136.929 39.5714 137.214 39.5714ZM49.8571 51.7857C49.2143 50.9286 49.8571 50.2143 49.8571 50.2143L60 38.9286L60.4286 38.5C60.6429 38.2857 60.6429 38 60.4286 37.7857L56.7857 34.1429C56.7143 34.0714 56.7143 34.0714 56.6429 34.0714C56.5714 34 56.5 34 56.3571 34H30.9286C30.6429 34 30.4286 34.2857 30.4286 34.5714V39.7857C30.4286 40.0714 30.6429 40.3571 30.9286 40.3571H49.0714C49.4286 40.3571 50 40.3571 50 40.8571C50 41.1429 49.8571 41.2857 49.6429 41.5L29 64.4286C28.7857 64.6429 28.7857 64.9286 29 65.1429L32.5714 68.7143C32.7857 68.9286 33.0714 68.9286 33.2857 68.7143L44.2857 56.5C44.3571 56.4286 44.4286 56.3571 44.5 56.2857C44.7857 56.0714 45.1429 56.0714 45.4286 56.2143C45.5714 56.2857 45.6429 56.4286 45.7143 56.5L56.3571 68.7143C56.5714 68.9286 56.8571 68.9286 57.0714 68.7857L60.8571 65.5C61.0714 65.2857 61.0714 65 60.9286 64.7857L49.8571 51.7857ZM95.7857 34.1429C95.7143 34.0714 95.7143 34.0714 95.6429 34.0714C95.5714 34 95.5 34 95.3571 34H67.7143C67.4286 34 67.2143 34.2857 67.2143 34.5714V39.7857C67.2143 40.0714 67.4286 40.3571 67.7143 40.3571H87.9286C88.2857 40.3571 88.8571 40.3571 88.8571 40.8571C88.8571 41.1429 88.7143 41.2857 88.5 41.5L79.2857 51.6429L74 46.3571C73.7857 46.1429 73.5 46.1429 73.2857 46.3571L69.7143 49.9286C69.5 50.1429 69.5 50.4286 69.7143 50.6429L87.7143 68.6429C87.9286 68.8571 88.2143 68.8571 88.4286 68.6429L92 65.0714C92.2143 64.8571 92.2143 64.5714 92 64.3571L83.6429 56L99.4286 38.5714C99.6429 38.3571 99.6429 38.0714 99.4286 37.8571L95.7857 34.1429ZM129.857 50.4286C129.714 50.2143 129.429 50.1429 129.143 50.2857L113.929 59.9286L113.714 60.0714C112.643 60.7143 112.5 59.8571 112.5 59.4286V59.0714V33.4286C112.5 33.1429 112.286 32.9286 112 32.9286H106.571C106.286 32.9286 106.071 33.1429 106.071 33.4286V67.8571C106.071 68.1429 106.286 68.3571 106.571 68.3571H112C112.071 68.3571 112.071 68.3571 112.143 68.3571C112.214 68.3571 112.286 68.3571 112.357 68.2857L132.643 55.0714C132.857 54.9286 132.929 54.5714 132.786 54.3571L129.857 50.4286ZM152.071 48.8571V44C152.071 43.7143 151.857 43.5 151.571 43.5H137.214C136.929 43.5 136.714 43.7143 136.714 44V48.8571C136.714 49.1429 136.929 49.3571 137.214 49.3571H151.571C151.857 49.3571 152.071 49.0714 152.071 48.8571ZM162.071 47.9286C161.929 47.7143 161.571 47.6429 161.357 47.7857L137.5 63.2857C137.286 63.4286 137.214 63.7857 137.357 64L140.357 68.5714C140.5 68.7857 140.857 68.8571 141.071 68.7143L164.929 53.2143C165.143 53.0714 165.214 52.7143 165.071 52.5L162.071 47.9286ZM167.786 30.5H163.929C163.643 30.5 163.429 30.7143 163.429 31V40.5C163.429 40.7857 163.643 41 163.929 41H167.786C168.071 41 168.286 40.7857 168.286 40.5V31C168.286 30.7143 168.071 30.5 167.786 30.5Z" fill="white"/>
</svg>
