<svg width="200" height="100" viewBox="0 0 200 100" fill="none" xmlns="http://www.w3.org/2000/svg">
<g clip-path="url(#clip0_2_188)">
<path d="M49.6061 29H21.1435C20.2054 28.9999 19.2764 29.1814 18.4097 29.5341C17.543 29.8868 16.7555 30.4037 16.0921 31.0554C15.4288 31.7072 14.9026 32.4809 14.5437 33.3324C14.1847 34.1839 13.9999 35.0965 14 36.0181V63.9806C14 65.8421 14.7526 67.6273 16.0922 68.9436C17.4318 70.26 19.2488 70.9996 21.1435 71H49.6061C51.5009 70.9998 53.3181 70.2602 54.658 68.9438C55.9978 67.6275 56.7506 65.8422 56.7509 63.9806V36.0181C56.7506 34.1567 55.9977 32.3715 54.6579 31.0554C53.318 29.7392 51.5008 28.9999 49.6061 29ZM48.9777 61.1493C48.9777 61.7368 48.7401 62.3003 48.3173 62.7158C47.8945 63.1313 47.321 63.3648 46.7229 63.3649H24.0288C23.7327 63.3648 23.4395 63.3075 23.166 63.1961C22.8924 63.0847 22.6439 62.9215 22.4346 62.7158C22.2252 62.5101 22.0592 62.2658 21.9459 61.997C21.8327 61.7282 21.7744 61.4402 21.7744 61.1493V38.8533C21.7744 38.5624 21.8327 38.2744 21.9459 38.0056C22.0592 37.7368 22.2252 37.4926 22.4346 37.2869C22.6439 37.0812 22.8925 36.918 23.166 36.8067C23.4396 36.6954 23.7328 36.638 24.0288 36.638H46.7229C47.3209 36.638 47.8944 36.8714 48.3173 37.2869C48.7401 37.7023 48.9777 38.2658 48.9777 38.8533V61.1493ZM30.8397 55.6994C30.6692 55.6993 30.5004 55.666 30.343 55.6016C30.1856 55.5371 30.0428 55.4428 29.9226 55.3241C29.8024 55.2053 29.7073 55.0643 29.6427 54.9092C29.5782 54.7543 29.5454 54.5882 29.5463 54.4208V45.5227C29.5455 45.3551 29.5782 45.1892 29.6429 45.0342C29.7075 44.8792 29.8025 44.7383 29.9227 44.6195C30.0429 44.5007 30.1857 44.4064 30.343 44.342C30.5004 44.2775 30.6692 44.2443 30.8397 44.244H39.9121C40.0826 44.2442 40.2515 44.2774 40.409 44.3418C40.5664 44.4062 40.7094 44.5005 40.8298 44.6192C40.95 44.738 41.0453 44.879 41.1101 45.034C41.1748 45.189 41.2078 45.3551 41.2071 45.5227V54.4208C41.2077 54.5881 41.1745 54.7538 41.1098 54.9085C41.0451 55.0633 40.95 55.204 40.8298 55.3226C40.7098 55.4412 40.567 55.5353 40.4098 55.5997C40.2526 55.664 40.0841 55.6974 39.9138 55.6977L30.8397 55.6994ZM68.0842 55.0922H72.7519C72.9853 57.6908 74.7746 59.7161 78.3919 59.7161C81.6202 59.7161 83.6043 58.1494 83.6043 55.78C83.6043 53.5636 82.0483 52.5708 79.2477 51.9205L75.6304 51.1562C71.7019 50.3154 68.7457 47.8333 68.7457 43.7795C68.7457 39.3085 72.7906 36.2512 78.0416 36.2512C83.6043 36.2512 87.1823 39.1172 87.4937 43.3594H82.9806C82.4373 41.3726 80.7645 40.1902 78.0421 40.1902C75.1623 40.1902 73.18 41.7189 73.18 43.668C73.18 45.6172 74.8915 46.8013 77.8478 47.4512L81.4264 48.2155C85.3547 49.0562 88.0387 51.3872 88.0387 55.476C88.0387 60.6733 84.071 63.7686 78.3923 63.7686C72.0126 63.7669 68.4731 60.366 68.0842 55.0922ZM104.737 71V63.3919L105.042 60.056H104.737C103.669 62.4545 101.418 63.7665 98.3664 63.7665C93.4452 63.7665 89.7829 59.8314 89.7829 53.7971C89.7829 47.7628 93.4452 43.8277 98.3664 43.8277C101.38 43.8277 103.516 45.2144 104.737 47.3882H105.042V44.2018H109.086V71H104.737ZM104.889 53.7975C104.889 49.9371 102.486 47.6885 99.5485 47.6885C96.6108 47.6885 94.2083 49.9371 94.2083 53.7975C94.2083 57.6579 96.6101 59.9065 99.5485 59.9065C102.488 59.9065 104.889 57.6579 104.889 53.7975ZM112.316 55.7821V44.2018H116.665V55.4089C116.665 58.445 118.153 59.9065 120.632 59.9065C123.684 59.9065 125.668 57.7702 125.668 54.4347V44.2018H130.016V63.3919H125.973V59.4192H125.668C124.714 61.968 122.616 63.7686 119.374 63.7686C114.719 63.7669 112.316 60.8435 112.316 55.7839V55.7821ZM132.668 58.0307C132.668 54.433 135.225 52.3343 139.764 52.0716L145.143 51.7338V50.2348C145.143 48.4359 143.808 47.349 141.443 47.349C139.268 47.349 137.971 48.4359 137.628 49.9726H133.279C133.736 46.0745 137.018 43.8259 141.443 43.8259C146.44 43.8259 149.492 45.9247 149.492 49.9726V63.3919H145.448V59.8318H145.143C144.228 62.1927 142.32 63.7669 138.658 63.7669C135.149 63.7669 132.668 61.4432 132.668 58.0324V58.0307ZM145.143 55.6699V54.6564L140.756 54.9562C138.392 55.1061 137.322 55.9697 137.322 57.6925C137.322 59.154 138.544 60.2033 140.261 60.2033C143.35 60.2059 145.143 58.2575 145.143 55.6715V55.6699ZM152.731 63.3919V44.2018H156.774V47.8756H157.079C157.652 45.3643 159.597 44.2018 162.495 44.2018H164.479V48.0618H161.999C159.176 48.0618 157.078 49.8611 157.078 53.2713V63.3919H152.731ZM184.383 54.5846H169.544C169.772 58.1076 172.29 60.094 175.075 60.094C177.439 60.094 178.928 59.157 179.767 57.5827H184.077C182.895 61.4807 179.423 63.7669 175.036 63.7669C169.276 63.7669 165.232 59.532 165.232 53.7975C165.232 48.063 169.39 43.8281 175.074 43.8281C180.796 43.8281 184.535 47.6885 184.535 52.4846C184.535 53.4225 184.46 53.9098 184.383 54.5846ZM180.226 51.6236C180.072 48.9633 177.822 47.1636 175.075 47.1636C172.481 47.1636 170.307 48.7754 169.772 51.6236H180.226Z" fill="#121212"/>
</g>
<defs>
<clipPath id="clip0_2_188">
<rect width="171" height="42" fill="white" transform="translate(14 29)"/>
</clipPath>
</defs>
</svg>
