<svg width="200" height="100" viewBox="0 0 200 100" fill="none" xmlns="http://www.w3.org/2000/svg">
<g clip-path="url(#clip0_4_294)">
<path d="M13 54.3465C13.552 55.7817 14.4353 57.1066 15.5761 58.2843C16.717 59.4251 18.0787 60.3084 19.514 60.8604L23.3414 57.033C21.6853 56.9594 20.1028 56.2602 18.8515 55.0089C17.6003 53.7576 16.9378 52.1383 16.8274 50.519L13 54.3465Z" fill="#7935D2"/>
<path d="M34.4556 54.3465C33.9036 55.7817 33.0203 57.1066 31.8795 58.2843C30.7386 59.4251 29.3769 60.3084 27.9417 60.8604L24.1143 57.033C25.7703 56.9594 27.3528 56.2602 28.6041 55.0089C29.8554 53.7576 30.5178 52.1383 30.6282 50.519L34.4556 54.3465Z" fill="#7935D2"/>
<path d="M27.9417 39.368C29.3769 39.9201 30.7018 40.8033 31.8795 41.9442C33.0203 43.085 33.9036 44.4467 34.4556 45.882L30.6282 49.7462C30.5546 48.0901 29.8554 46.5076 28.6041 45.2564C27.3528 44.0051 25.7335 43.3426 24.1143 43.2322L24.7399 42.6066L27.9417 39.368Z" fill="#7935D2"/>
<path d="M19.514 39.368C18.0787 39.9201 16.7538 40.8033 15.5761 41.9442C14.4353 43.085 13.552 44.4467 13 45.882L16.8274 49.7462C16.901 48.0901 17.6003 46.5076 18.8515 45.2564C20.1028 44.0051 21.7221 43.3426 23.3414 43.2322L19.514 39.368Z" fill="#7935D2"/>
</g>
<g clip-path="url(#clip1_4_294)">
<path d="M75.1586 45.1827C76.1891 45.0355 77.1827 44.7779 78.1764 44.7411C80.5685 44.6675 82.519 45.4771 83.8439 47.6117C84.3223 48.3845 84.6167 49.2678 84.6167 50.1878C84.6535 51.7335 84.6903 53.316 84.6167 54.8617C84.4695 57.9898 82.1878 60.1612 78.9492 60.382C76.6675 60.5292 74.4594 60.1612 72.2881 59.4251C71.92 59.3147 71.8464 59.0571 71.8464 58.7259C71.8464 57.5482 71.8464 56.3706 71.8464 55.1929C71.8464 50.2246 71.8464 45.2195 71.8464 40.2513C71.8464 39.4048 71.8832 39.368 72.6929 39.368C73.3185 39.368 73.9442 39.368 74.6066 39.368C75.0482 39.368 75.1954 39.552 75.1954 39.9936C75.1954 41.5761 75.1954 43.1954 75.1954 44.7779C75.1586 44.9251 75.1586 45.1091 75.1586 45.1827ZM75.1586 52.7271C75.1586 53.9784 75.1586 55.2665 75.1586 56.5178C75.1586 56.9226 75.269 57.1066 75.637 57.1434C76.6307 57.217 77.6244 57.401 78.5812 57.3642C80.1637 57.2538 81.0101 56.4442 81.1573 54.8617C81.2678 53.316 81.2678 51.6967 81.1573 50.151C81.0837 49.0837 80.4949 48.2373 79.3909 47.9429C78.0292 47.5381 76.7043 47.6853 75.453 48.3477C75.3058 48.4213 75.1586 48.7157 75.1586 48.8997C75.1586 50.151 75.1586 51.4391 75.1586 52.7271Z" fill="black"/>
<path d="M132.275 45.1827C133.563 44.7779 134.815 44.6675 136.103 44.7411C139.268 44.9251 141.439 46.9492 141.623 50.1142C141.77 52.8744 141.697 55.6345 141.733 58.3947C141.733 58.7627 141.733 59.1307 141.733 59.5355C141.733 59.9035 141.586 60.0876 141.181 60.0876C140.445 60.0508 139.746 60.0508 139.01 60.0876C138.495 60.0876 138.348 59.8667 138.348 59.4251C138.348 56.7754 138.348 54.1624 138.348 51.5127C138.348 51.0711 138.311 50.5926 138.237 50.151C138.016 48.7525 137.28 48.0165 135.882 47.8325C134.815 47.6853 133.784 47.7957 132.717 48.0901C132.349 48.2005 132.239 48.3845 132.239 48.7893C132.239 52.2855 132.239 55.7817 132.239 59.2779C132.239 60.0876 132.202 60.1244 131.392 60.1244C130.877 60.1244 130.325 60.1244 129.81 60.1244C128.853 60.1244 128.853 60.1244 128.853 59.2043C128.853 55.4137 128.853 51.5863 128.853 47.7957C128.853 45.2563 128.853 42.6802 128.853 40.1409C128.853 39.4784 128.926 39.4048 129.589 39.4048C130.251 39.4048 130.877 39.4048 131.539 39.4048C132.128 39.4048 132.239 39.5152 132.239 40.1041C132.239 41.6129 132.239 43.1218 132.239 44.6307C132.275 44.7411 132.275 44.9251 132.275 45.1827Z" fill="black"/>
<path d="M177.468 50.7766C178.977 49.1206 180.449 47.6117 181.811 46.0292C182.436 45.2931 182.952 45.1091 184.056 45.0723C184.571 45.0355 185.344 45.0355 185.969 45.0355C186.632 45.0723 186.337 45.514 186.227 45.6612C184.608 47.3909 182.988 49.1205 181.369 50.8134C181.185 50.9975 181.001 51.2183 180.78 51.4391C181.369 52.2119 181.958 52.9848 182.547 53.7576C183.945 55.5977 185.381 57.401 186.779 59.2411C187.037 59.5723 187.221 59.9771 186.411 60.014C185.565 60.014 184.681 60.014 183.835 60.014C183.43 60.014 183.173 59.8667 182.915 59.5723C181.59 57.8058 180.228 56.0393 178.867 54.2728C178.756 54.1256 178.646 53.9784 178.499 53.8312C178.204 54.1256 177.91 54.3832 177.652 54.7145C177.542 54.8249 177.505 55.0457 177.505 55.2297C177.505 56.5914 177.505 57.953 177.505 59.3515C177.505 59.9771 177.431 60.0508 176.806 60.0876C176.143 60.0876 175.518 60.0876 174.855 60.0876C174.193 60.0876 174.156 60.0508 174.156 59.3515C174.156 57.6954 174.156 56.0761 174.156 54.42C174.156 49.6726 174.156 44.9251 174.156 40.1777C174.156 39.4048 174.193 39.368 174.966 39.368C175.591 39.368 176.217 39.368 176.806 39.368C177.431 39.368 177.505 39.4784 177.505 40.1041C177.505 43.453 177.505 46.7652 177.505 50.1142C177.468 50.2614 177.468 50.4454 177.468 50.7766Z" fill="black"/>
<path d="M111.74 45.1091C111.997 42.349 113.911 40.1777 116.598 39.4416C119.763 38.5584 122.707 39.0736 125.504 40.8033C126.019 41.1345 126.056 41.2449 125.688 41.797C125.32 42.349 124.952 42.8642 124.584 43.4162C124.363 43.7475 124.105 43.8211 123.774 43.6003C122.707 42.901 121.492 42.4962 120.204 42.3858C118.769 42.2754 117.407 42.4594 116.266 43.4898C115.457 44.2259 115.126 45.1827 115.126 46.25C115.089 48.5685 115.089 50.9239 115.126 53.2424C115.162 55.4873 116.671 56.9962 118.953 57.1434C120.83 57.2538 122.596 56.849 124.179 55.8185C124.731 55.4505 124.768 55.4505 125.136 56.0393C125.504 56.5914 125.909 57.1434 126.277 57.6954C126.461 57.953 126.497 58.2107 126.203 58.4315C123.406 60.75 117.996 61.1548 114.868 59.3147C112.733 58.0634 111.777 56.1129 111.629 53.684C111.556 52.3959 111.629 51.0711 111.629 49.783C111.666 49.7094 111.593 46.618 111.74 45.1091Z" fill="black"/>
<path d="M99.4478 53.9784C99.2638 55.9657 100.037 57.1802 101.693 57.3642C102.539 57.4378 103.422 57.401 104.232 57.217C105.005 57.033 105.704 56.6282 106.403 56.2233C106.808 56.0025 107.029 56.0025 107.287 56.4074C107.618 56.8858 107.949 57.3274 108.28 57.769C108.464 58.0266 108.464 58.2475 108.17 58.4683C105.483 60.4556 102.539 61.0076 99.411 59.8667C97.3869 59.1307 96.1725 57.585 96.0621 55.3769C95.9516 53.5368 95.9516 51.6967 96.0621 49.8934C96.2829 47.2068 98.0126 45.4035 100.662 44.9251C102.318 44.6307 103.938 44.6675 105.483 45.4035C107.507 46.3604 108.464 47.9797 108.575 50.151C108.648 51.2183 108.575 52.3223 108.612 53.3896C108.612 53.9048 108.428 54.052 107.949 54.052C105.299 54.052 102.686 54.052 100.037 54.052C99.8895 53.9784 99.6687 53.9784 99.4478 53.9784ZM105.373 51.3287C105.447 50.0038 105.373 48.7157 104.085 48.0533C102.87 47.4277 101.582 47.4277 100.441 48.2373C99.411 48.9733 99.4478 50.151 99.4478 51.3287C101.435 51.3287 103.386 51.3287 105.373 51.3287Z" fill="black"/>
<path d="M148.174 53.9784C147.879 56.2602 149.168 57.585 151.376 57.4378C152.737 57.3642 153.952 56.9962 155.056 56.2234C155.461 55.9657 155.718 56.0025 155.976 56.4074C156.27 56.849 156.638 57.2906 156.97 57.7322C157.154 57.9899 157.19 58.2107 156.896 58.4315C154.173 60.4556 151.192 61.0076 147.99 59.7932C146.003 59.0203 144.862 57.4746 144.751 55.3401C144.678 53.5368 144.641 51.6967 144.751 49.8934C144.972 47.2069 146.665 45.4036 149.315 44.8883C150.971 44.5571 152.59 44.6307 154.136 45.33C156.16 46.25 157.117 47.9061 157.264 50.0774C157.338 51.1447 157.301 52.2487 157.301 53.316C157.301 53.9048 157.227 53.9784 156.602 53.9784C153.952 53.9784 151.339 53.9784 148.689 53.9784C148.579 53.9784 148.395 53.9784 148.174 53.9784ZM154.025 51.3287C154.246 49.8566 153.841 48.6789 152.885 48.1269C151.707 47.4645 150.456 47.4277 149.278 48.1637C148.1 48.8998 148.137 50.1142 148.137 51.3287C150.124 51.3287 152.075 51.3287 154.025 51.3287Z" fill="black"/>
<path d="M64.9645 51.1447C65.0013 50.2982 65.0013 49.5254 64.6332 48.8261C64.2652 48.0901 63.5292 47.7957 62.7563 47.7589C61.2843 47.6485 59.8858 47.8325 58.5977 48.5317C58.1561 48.7525 57.8985 48.7157 57.6409 48.2741C57.3832 47.7957 57.052 47.3541 56.7576 46.9124C56.5 46.5444 56.5368 46.3236 56.9416 46.1028C58.7081 45.0355 60.6586 44.7043 62.7195 44.7779C64.0812 44.8147 65.3693 45.1091 66.4734 45.9556C67.6878 46.8756 68.2398 48.1637 68.3135 49.6358C68.4239 51.6599 68.3871 53.684 68.3871 55.7081C68.3871 56.7754 68.3871 57.8426 68.3871 58.9099C68.3871 59.2779 68.2766 59.5723 67.8718 59.6827C65.2221 60.382 62.5723 60.7868 59.849 60.2348C58.3769 59.9404 57.052 59.3147 56.2792 57.8794C54.8439 55.1929 56.2056 52.2119 59.1497 51.4023C60.8058 50.9239 62.4619 50.9607 64.1548 51.1447C64.3756 51.1079 64.6332 51.1079 64.9645 51.1447ZM64.9645 53.868C64.5596 53.8312 64.2284 53.7576 63.8972 53.7208C62.7195 53.6472 61.5051 53.5 60.3274 53.868C59.5546 54.1256 59.1497 54.6777 59.1129 55.4137C59.0761 56.2233 59.4074 56.7754 60.1802 57.1066C61.7627 57.769 63.3452 57.4378 64.9277 57.1434C64.9645 56.0393 64.9645 54.9721 64.9645 53.868Z" fill="black"/>
<path d="M47.2626 42.5698C45.901 42.5698 42.1471 42.5698 41.5583 42.5698C41.1903 42.5698 40.9695 42.4226 40.9695 42.0178C40.9695 41.2817 40.9695 40.5825 40.9695 39.8465C40.9695 39.4784 41.1535 39.3312 41.5215 39.3312C41.6319 39.3312 41.7791 39.3312 41.8895 39.3312C46.637 39.3312 51.4213 39.3312 56.1687 39.3312C56.9784 39.3312 57.0152 39.368 57.0152 40.1777C57.0152 40.7297 57.0152 41.2817 57.0152 41.8338C57.0152 42.4962 56.9416 42.5698 56.2791 42.5698C54.6598 42.5698 53.0405 42.5698 51.3845 42.5698C51.2004 42.5698 51.0164 42.5698 50.722 42.5698C50.722 42.8274 50.722 43.0482 50.722 43.2322C50.722 48.5317 50.722 53.8312 50.722 59.1675C50.722 60.0508 50.722 60.0508 49.8388 60.0508C49.1395 60.0508 48.4771 60.0508 47.7779 60.0508C47.4098 60.0508 47.2258 59.9036 47.2626 59.5355C47.2626 59.3883 47.2626 59.2411 47.2626 59.0571C47.2626 53.7944 47.2626 48.4949 47.2626 43.2322C47.2626 43.085 47.2626 42.8642 47.2626 42.5698Z" fill="black"/>
<path d="M160.098 49.1206C160.576 46.7652 162.195 45.4036 164.477 44.9251C166.722 44.4467 168.893 44.7779 170.917 45.9556C171.469 46.2868 171.469 46.3972 171.138 46.9124C170.917 47.2805 170.66 47.6117 170.439 47.9797C169.961 48.7525 169.961 48.7157 169.151 48.3477C168.231 47.9061 167.274 47.6853 166.244 47.7221C164.33 47.7957 163.373 48.7893 163.336 50.6662C163.336 51.9543 163.299 53.2792 163.336 54.5673C163.373 56.2602 164.33 57.217 165.986 57.3274C167.311 57.4378 168.488 57.1066 169.593 56.4074C170.034 56.1129 170.329 56.1865 170.586 56.6282C170.881 57.1066 171.249 57.585 171.58 58.0634C171.801 58.3579 171.764 58.5787 171.433 58.7995C168.82 60.5292 166.023 60.8604 163.115 59.6827C161.018 58.8363 160.061 57.1066 159.914 54.8985C159.877 54.0888 159.914 53.2424 159.914 52.4327C159.914 52.1383 159.877 50.2246 160.098 49.1206Z" fill="black"/>
<path d="M87.6711 47.7221C87.6711 45.1459 87.6711 42.5698 87.6711 40.0305C87.6711 39.4416 87.7447 39.3312 88.3336 39.3312C88.996 39.3312 89.6585 39.3312 90.3209 39.3312C90.9097 39.3312 91.0201 39.4416 91.0201 40.0305C91.0201 42.0546 91.0201 44.0787 91.0201 46.1028C91.0201 49.0838 91.0201 52.1015 91.0569 55.0825C91.0569 55.3401 91.0937 55.6345 91.1673 55.8921C91.3881 56.8858 91.8666 57.2906 92.897 57.3274C93.2651 57.3274 93.6331 57.3274 93.9643 57.2906C94.2955 57.2906 94.4795 57.4378 94.4795 57.769C94.4795 58.4683 94.5163 59.1307 94.4427 59.83C94.4427 60.014 94.2219 60.3084 94.0747 60.3084C92.9338 60.4188 91.7562 60.5292 90.6153 60.0876C88.8488 59.4251 88.076 57.9899 87.7815 56.2602C87.6711 55.5609 87.6711 54.8617 87.6711 54.1624C87.6711 52.0279 87.6711 49.8934 87.6711 47.7221Z" fill="black"/>
</g>
<defs>
<clipPath id="clip0_4_294">
<rect width="21.4556" height="21.4924" fill="white" transform="translate(13 39.368)"/>
</clipPath>
<clipPath id="clip1_4_294">
<rect width="146.03" height="21.5292" fill="white" transform="translate(40.9695 39)"/>
</clipPath>
</defs>
</svg>
