<svg width="200" height="100" viewBox="0 0 200 100" fill="none" xmlns="http://www.w3.org/2000/svg">
<g clip-path="url(#clip0_4_442)">
<path d="M58.4566 58.1987V45.1192H53.5461V41.808H66.8562V45.1192H61.966V58.1987H58.4566Z" fill="#73C117"/>
<path d="M69.7324 58.1987V41.7881H73.2755V58.1987H69.7324Z" fill="#73C117"/>
<path d="M77.3169 58.1987V41.7881H81.1294L85.3595 48.7351L89.5896 41.7881H93.4021V58.1987H89.8793V47.4901L85.3326 54.4901H85.245L80.7522 47.5563V58.1987H77.3169Z" fill="#73C117"/>
<path d="M97.2214 58.1987V41.7881H109.346V45.0066H100.731V48.3179H108.302V51.5232H100.731V54.9669H109.487V58.1854L97.2214 58.1987Z" fill="#73C117"/>
<path d="M127.034 58.5166C125.563 58.5323 124.116 58.1511 122.85 57.4143C121.584 56.6775 120.548 55.6134 119.854 54.3378C119.138 53.025 118.772 51.5555 118.79 50.0662V50.0199C118.773 48.5364 119.134 47.0724 119.84 45.7616C120.53 44.486 121.562 43.4209 122.824 42.6821C124.132 41.9029 125.634 41.4971 127.162 41.5099C128.404 41.4794 129.639 41.705 130.786 42.1722C131.797 42.6263 132.711 43.2645 133.481 44.053L131.238 46.702C130.653 46.1509 129.988 45.6888 129.264 45.3311C128.596 45.0158 127.863 44.8549 127.122 44.8609C126.483 44.8439 125.849 44.9684 125.266 45.2252C124.683 45.482 124.166 45.8645 123.754 46.3444C122.858 47.3426 122.377 48.6359 122.407 49.9669V50.0132C122.38 51.3538 122.86 52.6565 123.754 53.6689C124.163 54.1543 124.678 54.5418 125.262 54.8023C125.845 55.0628 126.481 55.1892 127.122 55.1722C127.89 55.1901 128.652 55.029 129.345 54.702C130.085 54.3124 130.765 53.8219 131.365 53.245L133.622 55.5695C132.82 56.4786 131.845 57.2254 130.753 57.7682C129.587 58.2911 128.315 58.5469 127.034 58.5166Z" fill="#73C117"/>
<path d="M135.063 58.1987L141.981 41.6689H145.235L152.132 58.2252H148.434L146.946 54.543H140.149L138.681 58.2252L135.063 58.1987ZM141.402 51.3311H145.672L143.544 46.0331L141.402 51.3311Z" fill="#73C117"/>
<path d="M154.584 58.1987V41.7881H161.933C163.967 41.7881 165.539 42.3444 166.648 43.457C167.112 43.9625 167.47 44.5534 167.702 45.1955C167.933 45.8377 168.033 46.5185 167.995 47.1987V47.2583C168.038 48.3905 167.718 49.5072 167.079 50.4503C166.449 51.3144 165.569 51.9721 164.553 52.3378L168.48 58.1987H164.344L160.902 52.947H158.147V58.1987H154.584ZM158.147 49.7682H161.737C162.472 49.8099 163.196 49.5728 163.758 49.106C163.997 48.8936 164.185 48.6323 164.31 48.3405C164.434 48.0486 164.492 47.7334 164.479 47.4172V47.3709C164.501 47.0437 164.446 46.7159 164.318 46.4129C164.191 46.1098 163.995 45.8394 163.745 45.6225C163.163 45.1962 162.448 44.9831 161.724 45.0199H158.147V49.7682Z" fill="#73C117"/>
<path d="M171.181 58.1987V41.7881H177.452C178.639 41.7769 179.817 41.9905 180.921 42.4172C181.928 42.8035 182.845 43.3871 183.616 44.1324C184.367 44.8738 184.958 45.7568 185.353 46.7285C185.775 47.7505 185.988 48.8442 185.98 49.947V49.9934C185.987 51.0984 185.775 52.1941 185.353 53.2185C184.959 54.2068 184.359 55.1035 183.592 55.8515C182.826 56.5994 181.909 57.1823 180.901 57.5629C179.799 58.0024 178.621 58.2274 177.432 58.2252L171.181 58.1987ZM174.711 54.9404H177.445C178.092 54.9708 178.738 54.8688 179.342 54.6408C179.946 54.4128 180.495 54.0638 180.955 53.6159C181.408 53.1434 181.761 52.5865 181.992 51.9781C182.224 51.3696 182.329 50.7219 182.302 50.0728V50.0265C182.327 49.3747 182.221 48.7244 181.99 48.1129C181.759 47.5015 181.407 46.941 180.955 46.4636C180.501 46.0045 179.954 45.6445 179.349 45.4072C178.745 45.1699 178.096 45.0604 177.445 45.0861H174.717L174.711 54.9404Z" fill="#73C117"/>
<path d="M28.2395 42.2914V51.1325" stroke="#77B02E" stroke-width="4" stroke-miterlimit="10" stroke-linecap="round"/>
<path d="M34.5645 53.9801L28.2395 51.2583" stroke="#77B02E" stroke-width="4" stroke-miterlimit="10" stroke-linecap="round"/>
<path d="M28.2396 38.649C30.523 38.649 32.7552 39.3147 34.6538 40.562C36.5524 41.8093 38.0322 43.582 38.906 45.6562C39.7799 47.7303 40.0085 50.0126 39.563 52.2145C39.1175 54.4163 38.018 56.4389 36.4033 58.0264C34.7887 59.6138 32.7315 60.6949 30.492 61.1329C28.2524 61.5709 25.931 61.3461 23.8214 60.487C21.7118 59.6278 19.9087 58.1729 18.6401 56.3063C17.3715 54.4396 16.6943 52.245 16.6943 50C16.6979 46.9906 17.9154 44.1055 20.0798 41.9775C22.2442 39.8495 25.1787 38.6525 28.2396 38.649M28.2396 36C25.4233 36 22.6702 36.8211 20.3285 38.3594C17.9868 39.8978 16.1617 42.0843 15.0839 44.6424C14.0062 47.2006 13.7242 50.0155 14.2736 52.7313C14.8231 55.447 16.1792 57.9416 18.1707 59.8995C20.1621 61.8574 22.6994 63.1908 25.4616 63.731C28.2238 64.2712 31.0869 63.9939 33.6889 62.9343C36.2908 61.8747 38.5147 60.0803 40.0794 57.778C41.6441 55.4757 42.4792 52.7689 42.4792 50C42.4792 46.287 40.979 42.726 38.3085 40.1005C35.6381 37.475 32.0162 36 28.2396 36V36Z" fill="#73C117"/>
</g>
<defs>
<clipPath id="clip0_4_442">
<rect width="172" height="28" fill="white" transform="translate(14 36)"/>
</clipPath>
</defs>
</svg>
