<svg width="200" height="100" viewBox="0 0 200 100" fill="none" xmlns="http://www.w3.org/2000/svg">
<path d="M175.831 61.8543H183L175.603 37.4399L165.414 37.4395L158.017 61.8539H165.188L166.495 57.3346H174.517L175.831 61.8539M168.048 51.9058L170.488 43.4707H170.529L172.969 51.9058H168.048Z" fill="#FF0000"/>
<path d="M52.7896 62.2922C60.1517 62.2922 63.7103 60.9953 64.2145 54.3522C64.3349 52.7715 64.3577 51.1486 64.3577 49.6442C64.3598 48.145 64.3349 46.5205 64.2145 44.94C63.7103 38.2948 60.1517 37 52.7896 37C45.4275 37 41.8709 38.2948 41.3688 44.94C41.2463 46.5205 41.2214 48.145 41.2214 49.6442C41.2235 51.1486 41.2463 52.7715 41.3688 54.3522C41.8709 60.9953 45.4275 62.2922 52.7896 62.2922ZM48.1602 49.6442C48.1602 48.3036 48.1934 47.5111 48.2225 46.9231C48.4092 43.1547 49.897 42.7154 52.7896 42.7154C55.6842 42.7154 57.172 43.1547 57.3566 46.9231C57.3857 47.5109 57.421 48.3034 57.421 49.6442C57.421 50.9892 57.3857 51.7831 57.3566 52.3697C57.172 56.1388 55.6842 56.5789 52.7896 56.5789C49.897 56.5789 48.4092 56.1388 48.2225 52.3697C48.1934 51.7831 48.1602 50.9892 48.1602 49.6442V49.6442Z" fill="#FF0000"/>
<path d="M17 37.4507V43.5369H24.2982V61.8647H31.5991V43.5369H38.8975V37.4507H17Z" fill="#FF0000"/>
<path d="M129.019 61.8543V37.4395H122.091V61.8543H129.019Z" fill="#FF0000"/>
<path d="M101.141 46.3535V37.4395H94.2523V61.8543H101.141V52.4397H109.147V61.8543H116.034V37.4395H109.147V46.3535H101.141Z" fill="#FF0000"/>
<path d="M151.807 49.0937C154.875 48.3092 155.776 46.4759 155.776 43.8261C155.776 38.4604 152.4 37.4393 147.601 37.4393H135.161V61.8537H148.217C154.228 61.8537 156.249 59.2641 156.249 55.2812C156.249 52.5042 155.614 50.054 151.807 49.0931M142.048 51.8257H146.824C148.754 51.8257 149.157 52.671 149.157 54.0459C149.157 55.4221 148.401 56.2697 146.824 56.2697H142.048V51.8257ZM142.048 43.0225H146.824C148.072 43.0225 148.843 43.6141 148.843 45.0369C148.843 46.2566 148.08 47.0073 146.824 47.0073H142.048V43.0225Z" fill="#FF0000"/>
<path d="M68.3728 53.8422H74.9402C74.9464 55.0266 75.0979 55.8182 75.6727 56.2554C76.3263 56.748 76.9114 56.9107 78.8515 56.9107C80.719 56.9107 82.765 56.9107 82.765 54.6105C82.765 52.7966 81.6217 52.3826 79.5114 52.2701C74.2783 51.9929 72.3859 51.845 70.4374 50.3975C69.1094 49.4104 68.4205 47.4887 68.4205 44.89C68.4205 40.4709 69.9623 38.9206 72.1867 37.8389C74.4816 36.7224 83.4892 36.7224 85.9128 37.8389C88.9609 39.2433 89.0502 42.2836 89.0502 45.1037H82.4994C82.487 43.6659 82.1632 43.2599 81.8997 42.9924C81.2191 42.389 80.2501 42.2616 78.8515 42.2616C77.1583 42.2616 75.1996 42.3379 75.1996 44.3941C75.1996 45.9628 75.8781 46.6185 77.6584 46.7338C80.1048 46.8903 84.9251 47.0445 86.6432 48.0583C89.0523 49.4832 89.6768 51.4113 89.6768 54.557C89.6768 59.1029 88.05 60.4371 85.7862 61.4373C83.1738 62.591 74.4484 62.591 71.6119 61.3481C68.4371 59.964 68.3728 57.2055 68.3728 53.8422" fill="#FF0000"/>
</svg>
