<svg width="200" height="100" viewBox="0 0 200 100" fill="none" xmlns="http://www.w3.org/2000/svg">
<path fill-rule="evenodd" clip-rule="evenodd" d="M129.591 40.8076V42.6152H135.616V59.2114L137.744 59.1229L139.873 59.0343L139.844 50.8247L139.816 42.6152H145.859V39H129.591V40.8076ZM13 41.4101V43.2177H19.0253V59.7875H23.2431V43.2177H29.2684V39.6025H13V41.4101ZM70.8433 50.9151V59.8176L72.5079 59.7272L74.1724 59.6368L74.2401 55.4049C74.3142 50.7723 74.6363 49.7381 76.1194 49.3657C78.4895 48.771 78.9776 49.8074 78.9776 55.4332V59.7875H82.5928L82.591 55.0425C82.5901 52.4329 82.4506 49.7977 82.281 49.1871C81.4925 46.3485 77.4565 45.3155 75.0539 47.3373L74.1573 48.0916V42.0127H70.8433V50.9151ZM145.558 44.9317C144.038 45.5116 143.609 46.9423 144.669 47.9009C145.956 49.0659 148.57 48.2495 148.57 46.6823C148.57 45.5318 146.753 44.4755 145.558 44.9317ZM31.8871 45.9617C26.1048 46.8546 24.8977 56.3069 30.215 59.0563C34.6325 61.3408 39.5751 58.5194 40.0348 53.4512C40.4967 48.3571 37.0273 45.1682 31.8871 45.9617ZM158.267 45.9379C157.717 46.0614 156.949 46.4621 156.559 46.8281L155.85 47.4939L155.75 46.7869C155.659 46.1427 155.503 46.0798 153.993 46.0798H152.336L152.255 52.6324L152.174 59.1849H155.801V54.7331C155.801 49.5013 156.004 48.9418 157.909 48.9418C159.506 48.9418 159.546 49.0617 159.717 54.3646L159.868 59.0343L161.6 59.1247L163.332 59.215L163.337 54.9069C163.342 49.7607 163.548 49.1377 165.286 48.9952C167.117 48.8451 167.249 49.2205 167.249 54.5728V59.1849H170.902L170.808 53.6305L170.714 48.076L169.827 47.1514C168.2 45.4547 165.293 45.3989 163.585 47.0315C162.787 47.7943 162.782 47.7949 162.449 47.1716C161.858 46.0683 160.054 45.5363 158.267 45.9379ZM59.4904 46.5145C56.4413 47.8988 55.1555 53.1888 56.9929 56.7901C59.0367 60.7964 65.5368 60.7404 67.493 56.6995C68.5097 54.5987 68.4061 54.3646 66.4593 54.3646C64.8692 54.3646 64.771 54.4095 64.4694 55.2748C63.8988 56.9113 62.0002 57.2981 60.7373 56.0352C59.8863 55.1844 59.6699 51.5656 60.3852 50.152C61.1781 48.5848 63.5581 48.5842 64.3682 50.1511C64.9741 51.3227 68.1319 51.5638 68.1319 50.4385C68.1319 46.9532 63.3285 44.7723 59.4904 46.5145ZM176.739 46.4985C172.251 48.5695 171.864 56.1301 176.113 58.7294C179.01 60.5024 183.219 59.8209 185.059 57.2812C186.332 55.5233 186.227 55.2684 184.23 55.2684C182.806 55.2684 182.42 55.3899 181.834 56.0216C180.577 57.3782 176.889 56.6208 176.889 55.0063C176.889 54.8461 176.807 54.5008 176.707 54.2387C176.545 53.8166 177.063 53.7621 181.235 53.7621C186.62 53.7621 186.444 53.8588 185.947 51.1706C185.142 46.8167 180.811 44.6192 176.739 46.4985ZM42.1226 46.4314C41.8192 46.7344 41.8958 55.2443 42.2142 56.6241C42.9089 59.6347 46.9513 60.7922 49.4446 58.6942L50.3572 57.9262V58.7062C50.3572 59.4506 50.4325 59.4862 52.0141 59.4862H53.6711V46.2003L51.9388 46.2907L50.2065 46.3811L50.0559 51.0028C49.8836 56.2861 49.5947 56.9019 47.3746 56.7145C45.7589 56.5781 45.5465 55.8779 45.5414 50.6741L45.5369 46.2304H43.9302C43.0463 46.2304 42.2329 46.3208 42.1226 46.4314ZM119.534 46.529C119.057 46.679 118.356 47.0932 117.977 47.449L117.288 48.0965L117.188 47.3894C117.097 46.7453 116.94 46.6823 115.431 46.6823H113.774V59.6368L115.484 59.7266L117.195 59.8161L117.292 55.2561L117.389 50.6958L118.235 49.9694C119.253 49.0943 120.239 49.044 121.197 49.8182C121.881 50.3716 121.912 50.5732 122.005 55.1049L122.102 59.8164L123.812 59.7266L125.523 59.6368V54.3508C125.523 49.8125 125.448 48.9503 124.993 48.2561C124.028 46.7841 121.383 45.9472 119.534 46.529ZM32.6951 48.8704C30.1228 49.2859 29.5884 55.0862 32.0073 56.337C34.6162 57.6861 36.8878 55.2977 36.3579 51.7629C36.0485 49.6992 34.6081 48.5619 32.6951 48.8704ZM178.778 48.8602C178.052 48.9921 176.889 50.2728 176.889 50.9407C176.889 51.2577 177.511 51.352 179.601 51.352C182.025 51.352 182.312 51.2938 182.312 50.8018C182.312 49.6375 180.371 48.5707 178.778 48.8602ZM144.42 54.2893L144.503 59.0343L146.236 59.1247L147.968 59.215V49.5444H144.337L144.42 54.2893Z" fill="#3D3A3A"/>
<path d="M100.066 47.4731C100.066 45.6848 100.162 44.127 100.278 44.0107C100.394 43.8944 100.699 43.8399 100.955 43.8893C101.349 43.9652 101.422 44.6132 101.422 48.0422V52.1051H98.4094C95.5977 52.1051 95.3967 52.0651 95.3967 51.5026C95.3967 50.9594 95.6269 50.8913 97.7316 50.8121L100.066 50.7241V47.4731Z" fill="#D61518"/>
<path fill-rule="evenodd" clip-rule="evenodd" d="M96.4305 40.5886C87.823 43.9932 87.5636 56.1909 96.0157 60.1014C103.12 63.3879 111.582 57.1743 110.677 49.3368C109.897 42.5812 102.647 38.1297 96.4305 40.5886ZM100.368 57.6786C104.361 57.6786 107.598 54.4414 107.598 50.4482C107.598 46.4549 104.361 43.2177 100.368 43.2177C96.3743 43.2177 93.1371 46.4549 93.1371 50.4482C93.1371 54.4414 96.3743 57.6786 100.368 57.6786Z" fill="#717071"/>
<rect x="13" y="39.6025" width="16.2684" height="3.61521" fill="#D61518"/>
<rect x="129.591" y="39" width="16.2684" height="3.61521" fill="#D61518"/>
<rect x="19.0254" y="43.2177" width="4.21774" height="16.5697" fill="#D61518"/>
<rect x="135.616" y="42.6152" width="4.21774" height="16.5697" fill="#D61518"/>
</svg>
