<svg width="200" height="100" viewBox="0 0 200 100" fill="none" xmlns="http://www.w3.org/2000/svg">
<g clip-path="url(#clip0_1_115)">
<path d="M17.69 30.73V47.34H41.58V56.95C41.58 58.97 43.14 60.65 45.16 60.79C47.18 60.85 48.87 59.25 48.93 57.23C48.93 57.19 48.93 57.15 48.93 57.11V30.73H17.69Z" fill="#E5005A"/>
<path d="M58.64 62.93H10V69.24H58.64V62.93Z" fill="#E5005A"/>
<path d="M142.63 63.26V46.17H136.19V63.93C136.19 66.7 138.44 68.95 141.21 68.95C141.38 68.95 141.55 68.95 141.72 68.92L157.18 67.32V62.85L143.73 64.21C143.18 64.27 142.69 63.87 142.63 63.31C142.63 63.29 142.63 63.27 142.63 63.24V63.26Z" fill="#727171"/>
<path d="M166.09 65.03L189 62.64V67.11L166.09 69.5V65.03Z" fill="#727171"/>
<path d="M173.9 53.41H166.09V57.46H173.9V53.41Z" fill="#727171"/>
<path d="M173.9 46.16H166.09V50.21H173.9V46.16Z" fill="#727171"/>
<path d="M109.75 56.43H122.83V52.36H109.75V46.17H103.26V63.72C103.26 66.49 105.51 68.74 108.28 68.74H124.48V64.71H110.76C110.21 64.71 109.76 64.26 109.76 63.71V56.43H109.75Z" fill="#727171"/>
<path d="M121.69 46.18H117.91V49.64H121.69V46.18Z" fill="#727171"/>
<path d="M127.42 46.18H123.64V49.64H127.42V46.18Z" fill="#727171"/>
<path d="M182.95 46.18H179.17V49.64H182.95V46.18Z" fill="#727171"/>
<path d="M188.68 46.18H184.9V49.64H188.68V46.18Z" fill="#727171"/>
<path d="M88.3 64.69V51.2C88.3 48.43 86.05 46.18 83.28 46.18H71.2V50.25H80.78C81.34 50.25 81.78 50.7 81.78 51.26V64.7H68.5V68.77H94.34V64.7H88.31L88.3 64.69Z" fill="#727171"/>
<path d="M69.39 38.63C71.63 37.27 72.22 35.51 72.52 33.54H69.73V32.71H72.6C72.65 32.09 72.68 31.48 72.66 30.86H73.62C73.62 31.59 73.58 31.94 73.52 32.69H77.38V34.36C77.38 34.63 77.38 37.45 76.99 38.43C76.66 39.06 75.96 39.4 75.26 39.28C74.74 39.28 74.21 39.24 73.7 39.14V38.22C74.21 38.32 74.74 38.38 75.26 38.38C76 38.38 76.13 38.1 76.23 37.78C76.41 36.69 76.49 35.59 76.48 34.49V33.54H73.42C73.09 35.76 72.35 37.89 69.98 39.33L69.38 38.63H69.39Z" fill="#727171"/>
<path d="M86.23 33.73C85.27 33.1 84.22 32.62 83.12 32.28L83.57 31.47C84.68 31.79 85.74 32.27 86.73 32.88L86.23 33.73ZM83.33 38.13C88.44 37.86 89.94 34.28 90.64 32.03L91.43 32.61C90.95 34.05 89.33 38.76 83.51 39.14L83.33 38.12V38.13Z" fill="#727171"/>
<path d="M96.46 34.39C97.66 33.69 98.6 32.63 99.17 31.36H104.4C104.22 33.01 103.69 37.84 97.62 39.41L97.19 38.57C98.86 38.23 100.38 37.39 101.56 36.17C100.58 35.33 99.5 34.62 98.34 34.06C97.96 34.46 97.53 34.8 97.06 35.08L96.46 34.38V34.39ZM99.77 32.2C99.52 32.65 99.23 33.08 98.9 33.47C100.05 34.01 101.13 34.7 102.11 35.5C102.78 34.52 103.21 33.4 103.34 32.22L99.77 32.19V32.2Z" fill="#727171"/>
<path d="M113.3 33.73C112.34 33.1 111.29 32.61 110.19 32.28L110.64 31.47C111.75 31.79 112.82 32.27 113.81 32.88L113.3 33.73ZM110.41 38.13C115.52 37.86 117.02 34.28 117.72 32.03L118.51 32.61C118.02 34.05 116.41 38.76 110.59 39.14L110.41 38.12V38.13Z" fill="#727171"/>
<path d="M123.51 38.85C124.38 37.19 124.97 35.4 125.29 33.56H123.62V32.71H125.44C125.53 32.03 125.58 31.62 125.64 30.81L126.6 30.9C126.51 31.67 126.47 32.04 126.36 32.7H127.51C128.87 32.7 129.54 33.15 129.54 35.2C129.54 39.16 128.27 39.27 127.43 39.27C127.01 39.27 126.6 39.21 126.19 39.13L126.14 38.23C126.51 38.32 126.89 38.38 127.27 38.39C127.88 38.39 128.24 38.11 128.42 37.36C128.59 36.62 128.68 35.87 128.68 35.12C128.68 34.23 128.62 33.55 127.58 33.55H126.22C125.87 35.54 125.25 37.46 124.38 39.28L123.53 38.84L123.51 38.85ZM130.8 36.49C130.76 35.06 130.23 33.69 129.28 32.61L129.96 32.11C130.38 32.52 131.47 33.63 131.83 36.35L130.8 36.49V36.49ZM130.64 30.72C131.12 31.27 131.52 31.87 131.85 32.52L131.17 32.99C130.87 32.33 130.48 31.71 130.01 31.15L130.63 30.73L130.64 30.72ZM131.87 30C132.34 30.55 132.75 31.15 133.07 31.8L132.39 32.25C132.09 31.6 131.71 30.98 131.26 30.43L131.87 30V30Z" fill="#727171"/>
<path d="M139.13 31.36C138.99 32.32 138.92 33.28 138.92 34.25C138.92 35.82 139.04 38.03 140.17 38.03C140.62 38.03 141.15 37.62 141.84 35.79L142.59 36.22C142.31 37.09 141.85 37.89 141.23 38.57C140.94 38.88 140.53 39.06 140.1 39.06C138.46 39.06 138.01 36.8 138.01 34.17C138.01 33.07 138.11 31.97 138.17 31.28L139.11 31.36H139.13ZM145.32 38.14C145.32 37.88 145.36 37.58 145.36 37.11C145.36 34.47 144.57 33.04 143.52 32.16L144.2 31.62C145.4 32.63 146.44 34.05 146.3 38.09L145.32 38.13V38.14Z" fill="#727171"/>
<path d="M160.27 32.03V32.84H155.04C154.96 33.51 154.81 34.16 154.59 34.8C155.38 34.31 156.3 34.06 157.23 34.06C159.49 34.06 159.94 35.57 159.94 36.5C159.94 39.25 156.85 39.29 155.03 39.29C154.35 39.29 154.05 39.29 153.72 39.25L153.53 38.36C153.88 38.36 154.46 38.43 155.27 38.43C157.19 38.43 158.97 38.23 158.97 36.53C158.97 35.28 158.12 34.87 157.07 34.87C156.05 34.87 155.08 35.27 154.36 35.98C154.32 36.06 154.19 36.33 154.16 36.39L153.23 36.12C153.69 35.07 154 33.97 154.15 32.83H151.91V32.02H154.26C154.3 31.46 154.31 31.25 154.31 30.86H155.31C155.27 31.24 155.26 31.42 155.19 32L160.27 32.02V32.03Z" fill="#727171"/>
<path d="M167.37 31.01C167.06 32.54 166.92 34.09 166.94 35.65C166.91 36.83 167.02 38.02 167.25 39.17L166.35 39.29C166.14 38.06 166.04 36.82 166.06 35.58C166.05 34.03 166.17 32.48 166.43 30.94L167.37 31.01V31.01ZM171.27 31.01H172.14L172.18 32.71H174.12V33.58H172.22L172.26 36.2C173.02 36.58 173.7 37.07 174.29 37.68L173.71 38.49C173.3 37.97 172.8 37.53 172.23 37.18V37.55C172.23 38.48 171.9 39.26 170.28 39.26C168.66 39.26 168.14 38.37 168.14 37.52C168.14 36.47 169.05 35.75 170.36 35.75C170.71 35.75 171.06 35.79 171.39 35.9L171.3 33.56H168.26V32.69H171.3L171.27 30.99V31.01ZM171.39 36.78C171.07 36.63 170.72 36.55 170.37 36.56C169.69 36.56 168.95 36.83 168.95 37.58C168.95 38.33 169.79 38.55 170.24 38.55C171.39 38.55 171.39 37.84 171.39 37.41V36.79V36.78ZM172.89 30.08C173.22 30.72 173.48 31.41 173.65 32.11L172.9 32.39C172.76 31.69 172.53 31 172.22 30.36L172.89 30.08V30.08ZM174.46 30C174.8 30.64 175.05 31.33 175.22 32.03L174.47 32.3C174.33 31.6 174.1 30.91 173.79 30.27L174.46 30V30Z" fill="#727171"/>
<path d="M183.6 31.04C182.92 32.53 182.32 34.18 182.05 34.98C182.45 34.58 182.98 34.35 183.54 34.34C185.1 34.34 185.18 35.78 185.18 36.47V37.15C185.18 37.88 185.26 38.43 186.07 38.43C186.56 38.43 187.08 38.2 187.43 37.24C187.66 36.54 187.78 35.81 187.77 35.08L188.64 35.28C188.58 36.64 188.34 39.35 186.02 39.35C184.31 39.35 184.29 37.92 184.29 37.13V36.55C184.29 35.8 184.11 35.19 183.4 35.19C182.99 35.19 182.17 35.4 181.53 36.7C181.22 37.54 180.96 38.4 180.74 39.27L179.79 38.97C181.22 34.59 181.4 34.1 181.63 33.45C181.78 33.03 182.37 31.42 182.61 30.74L183.59 31.04H183.6Z" fill="#727171"/>
</g>
<defs>
<clipPath id="clip0_1_115">
<rect width="179" height="39.5" fill="white" transform="translate(10 30)"/>
</clipPath>
</defs>
</svg>
