<svg width="200" height="100" viewBox="0 0 200 100" fill="none" xmlns="http://www.w3.org/2000/svg">
<g clip-path="url(#clip0_4_533)">
<path d="M18.8447 58C15.2465 58 13 55.5097 13 51.8588V42.3885H16.292V51.5581C16.292 53.1887 17.0057 54.6922 18.8657 54.6922C20.7423 54.6922 21.4394 53.1902 21.4394 51.5581V42.3885H24.7477V51.8588C24.7477 55.5097 22.4259 58 18.8447 58Z" fill="black"/>
<path d="M36.116 46.3401C35.8318 45.9519 35.4651 45.6326 35.0429 45.4057C34.6206 45.1787 34.1534 45.0498 33.6754 45.0284C32.8232 45.0284 31.7608 45.3502 31.7608 46.553C31.7608 47.5631 32.5713 47.885 33.8687 48.3362C35.7286 49.0012 38.1261 49.8821 38.1261 52.9104C38.1261 56.4109 35.5923 57.9782 32.8819 57.9782C30.9276 57.9782 28.9541 57.1831 27.7554 55.7862L29.9219 53.3383C30.2664 53.8111 30.7105 54.2009 31.2224 54.4796C31.7343 54.7583 32.301 54.9189 32.8819 54.9499C33.8897 54.9499 34.7795 54.5199 34.7795 53.2959C34.7795 52.1373 33.7341 51.771 31.9328 51.1272C30.1925 50.5047 28.4313 49.5157 28.4313 46.7686C28.4313 43.3971 31.1793 42.0015 33.734 42.0015C35.4133 42.015 37.022 42.6845 38.2223 43.8692L36.116 46.3401Z" fill="black"/>
<path d="M41.8767 57.5915V42.3885H51.2629V45.5014H45.07V48.358H50.759V51.2995H45.07V54.4569H51.2629V57.5913L41.8767 57.5915Z" fill="black"/>
<path d="M64.0585 57.5915L58.5408 47.6489H58.4824L58.5624 57.5915H55.3481V42.3885H59.1206L64.6167 52.31H64.6751L64.5995 42.3885H67.8108V57.5915H64.0585Z" fill="black"/>
<path d="M83.068 57.5913H81.5354V43.762H76.4897V42.3876H88.1137V43.762H83.068V57.5913Z" fill="#898989"/>
<path d="M92.3286 57.5913H90.7959V42.3867H92.3286V57.5913Z" fill="#898989"/>
<path d="M104.208 54.9714H104.23L109.275 42.3867H111.617V57.5913H110.084V44.384H110.042L104.592 57.5913H103.783L98.3327 44.384H98.29V57.5913H96.7573V42.3867H99.0991L104.208 54.9714Z" fill="#898989"/>
<path d="M117.577 56.2168H125.646V57.5913H116.045V42.3867H125.391V43.7611H117.577V49.0009H124.879V50.3556H117.577V56.2168Z" fill="#898989"/>
<path d="M141.762 55.1431C140.761 56.668 138.824 57.9779 136.12 57.9779C131.566 57.9779 128.265 54.6062 128.265 49.989C128.265 45.3718 131.628 42 136.12 42C138.334 42 140.441 42.9236 141.485 44.4052L140.208 45.3503C139.569 44.3622 138.058 43.353 136.141 43.353C132.246 43.353 129.883 46.4452 129.883 49.989C129.883 53.5327 132.267 56.625 136.141 56.625C137.866 56.625 139.526 55.9379 140.569 54.37L141.762 55.1431Z" fill="#898989"/>
<path d="M144.465 57.5913H142.783L149.298 42.3867H150.787L157.259 57.5913H155.556L153.897 53.5984H146.105L144.465 57.5913ZM146.679 52.1795H153.321L150 44.1045L146.679 52.1795Z" fill="#898989"/>
<path d="M161.433 57.5913H159.9V42.3867H164.328C167.308 42.3867 169.48 43.4819 169.48 46.4455C169.48 48.7005 167.819 50.1177 165.626 50.3542L170.033 57.5913H168.16L163.987 50.4828H161.433L161.433 57.5913ZM161.433 49.1514H164.094C166.542 49.1514 167.948 48.2493 167.948 46.4455C167.948 44.4482 166.436 43.7181 164.158 43.7181H161.433L161.433 49.1514Z" fill="#898989"/>
<path d="M173.077 42.3867H178.08C181.848 42.3867 186 44.9194 186 49.989C186 55.0585 181.848 57.5913 178.08 57.5913H173.077V42.3867ZM174.61 56.2168H177.655C182.189 56.2168 184.382 53.1245 184.382 49.989C184.382 46.8534 182.189 43.7611 177.655 43.7611H174.61V56.2168Z" fill="#898989"/>
</g>
<defs>
<clipPath id="clip0_4_533">
<rect width="173" height="16" fill="white" transform="translate(13 42)"/>
</clipPath>
</defs>
</svg>
