<svg width="200" height="100" viewBox="0 0 200 100" fill="none" xmlns="http://www.w3.org/2000/svg">
<path d="M9.11496 63.0709C3.50348 63.0709 0 59.2209 0 53.5766V38.9353H5.13388V53.1113C5.13388 55.6323 6.24662 57.9566 9.14774 57.9566C12.0744 57.9566 13.1616 55.6323 13.1616 53.1113V38.9353H18.321V53.5762C18.321 59.2209 14.7 63.0709 9.11496 63.0709Z" fill="black"/>
<path d="M36.0501 45.0449C35.6068 44.4452 35.0352 43.952 34.377 43.6014C33.7188 43.2508 32.9906 43.0516 32.2456 43.0184C30.9166 43.0184 29.2598 43.5161 29.2598 45.3755C29.2598 46.9371 30.5237 47.4348 32.547 48.1323C35.4477 49.1603 39.1866 50.5221 39.1866 55.2039C39.1866 60.6155 35.2351 63.0381 31.0082 63.0381C27.9604 63.0381 24.8826 61.8088 23.0132 59.6498L26.3919 55.865C26.929 56.596 27.6217 57.1988 28.42 57.6297C29.2183 58.0606 30.1023 58.3089 31.0082 58.3568C32.5798 58.3568 33.9676 57.692 33.9676 55.7998C33.9676 54.0087 32.3372 53.4423 29.528 52.4471C26.814 51.4846 24.0672 49.9557 24.0672 45.706C24.0672 40.4943 28.3524 38.3366 32.3372 38.3366C34.956 38.3576 37.4649 39.3926 39.3368 41.2241L36.0501 45.0449Z" fill="black"/>
<path d="M45.0325 62.4389V38.9353H59.6702V43.7478H50.0143V48.1641H58.8866V52.7116H50.0143V57.5928H59.672V62.438L45.0325 62.4389Z" fill="black"/>
<path d="M79.6275 62.4389L71.0225 47.0682H70.9314L71.0561 62.4389H66.0434V38.9353H71.9267L80.4998 54.2742H80.5909L80.473 38.9358H85.4812V62.4389H79.6275Z" fill="black"/>
<path d="M101.303 59.5824C111.018 58.5061 115.21 53.4929 117.787 45.2507L120.138 46.3835C117.901 52.728 114.19 61.7633 98.6123 62.3866V38.7929H101.303V59.5824Z" fill="#898989"/>
<path d="M130.842 51.3685C128.281 49.9645 125.574 48.844 122.77 48.0266L123.817 45.7602C126.623 46.5133 129.339 47.5675 131.918 48.9044L130.842 51.3685ZM123.844 59.4691C135.542 58.4497 140.357 54.541 144.01 43.5793L146.446 44.6557C142.793 55.1356 137.864 60.6023 124.949 62.1316L123.844 59.4691ZM133.077 44.769C130.509 43.4085 127.803 42.326 125.005 41.5401L126.081 39.2741C128.891 40.0453 131.623 41.0789 134.239 42.3614L133.077 44.769ZM142.028 42.7298C141.66 41.3985 141.518 41.0871 140.215 38.3963L142.141 37.8299C142.97 39.1399 143.609 40.5607 144.039 42.05L142.028 42.7298ZM145.795 41.7668C144.662 39.0478 144.549 38.7359 143.869 37.6596L145.738 37.065C146.55 38.3115 147.206 39.6528 147.692 41.0588L145.795 41.7668Z" fill="#898989"/>
<path d="M200 50.6874H157.7V62.4389H200V50.6874Z" fill="#898989"/>
<path d="M163.796 60.6187H162.714V52.8814H167.544V53.8321H163.796V56.2365H167.302V57.1653H163.796V60.6187Z" fill="white"/>
<path d="M172.833 60.8154C172.031 60.8068 171.25 60.5614 170.587 60.11C169.925 59.6585 169.41 59.0212 169.109 58.2782C168.807 57.5352 168.732 56.7196 168.893 55.9341C169.054 55.1485 169.444 54.4281 170.013 53.8634C170.582 53.2987 171.306 52.9149 172.093 52.7603C172.879 52.6058 173.694 52.6873 174.435 52.9946C175.175 53.302 175.809 53.8215 176.255 54.4877C176.701 55.154 176.94 55.9373 176.942 56.7391C176.96 57.2822 176.866 57.8231 176.666 58.3282C176.466 58.8332 176.163 59.2914 175.777 59.6741C175.392 60.0567 174.931 60.3556 174.424 60.552C173.918 60.7484 173.376 60.8381 172.833 60.8154V60.8154ZM172.833 53.6354C171.052 53.6354 169.916 55.0468 169.916 56.7391C169.916 58.4656 171.063 59.8429 172.833 59.8429C174.626 59.8429 175.773 58.4656 175.773 56.7391C175.773 55.0454 174.636 53.6354 172.833 53.6354V53.6354Z" fill="white"/>
<path d="M182.328 60.8154C181.526 60.8068 180.745 60.5614 180.082 60.11C179.42 59.6585 178.905 59.0212 178.604 58.2782C178.303 57.5352 178.228 56.7196 178.388 55.9341C178.549 55.1485 178.939 54.4281 179.508 53.8634C180.077 53.2987 180.801 52.9149 181.588 52.7603C182.375 52.6058 183.189 52.6873 183.93 52.9946C184.671 53.302 185.304 53.8215 185.75 54.4877C186.196 55.154 186.435 55.9373 186.437 56.7391C186.456 57.2822 186.362 57.8231 186.161 58.3282C185.961 58.8332 185.658 59.2914 185.272 59.6741C184.887 60.0567 184.426 60.3556 183.919 60.552C183.413 60.7484 182.871 60.8381 182.328 60.8154V60.8154ZM182.328 53.6354C180.547 53.6354 179.411 55.0468 179.411 56.7391C179.411 58.4656 180.558 59.8429 182.328 59.8429C184.121 59.8429 185.268 58.4656 185.268 56.7391C185.268 55.0454 184.132 53.6354 182.328 53.6354V53.6354Z" fill="white"/>
<path d="M188.131 52.8814H190.787C192.765 52.8814 194.961 54.0069 194.961 56.7514C194.961 59.3957 192.765 60.6214 190.787 60.6214H188.131V52.8814ZM189.213 59.6653H190.568C192.435 59.6653 193.803 58.5944 193.803 56.7478C193.803 54.8355 192.437 53.8193 190.568 53.8193H189.213V59.6653Z" fill="white"/>
</svg>
