<svg width="613" height="113" viewBox="0 0 613 113" fill="none" xmlns="http://www.w3.org/2000/svg">
<path d="M4.71768 85.7869C3.54524 98.4325 13.1722 108.678 25.8912 108.678H578.325C590.76 108.678 601.753 98.8862 602.896 86.5596L608.353 27.6995C609.525 15.0539 599.898 4.80816 587.179 4.80816H34.7455C22.3105 4.80816 11.3177 14.6002 10.1749 26.9268L4.71768 85.7869Z" fill="#1DD1A1" stroke="white" stroke-width="8.37"/>
<path fill-rule="evenodd" clip-rule="evenodd" d="M267.046 86.1798C266.123 96.2986 261.483 104.501 271.649 104.501H578.583C588.748 104.501 597.737 96.2986 598.66 86.1798L604.03 27.3147C604.953 17.196 597.46 8.99316 587.295 8.99316H281.732C271.567 8.99316 273.339 17.196 272.416 27.3147L267.046 86.1798Z" fill="#F2F4F8"/>
<path fill-rule="evenodd" clip-rule="evenodd" d="M8.8848 86.1733C7.94673 96.2911 15.5608 104.493 25.8912 104.493H275.412C285.743 104.493 294.878 96.2911 295.816 86.1733L301.273 27.3131C302.211 17.1953 294.597 8.99316 284.267 8.99316H34.7455C24.415 8.99316 15.2801 17.1953 14.342 27.3131L8.8848 86.1733Z" fill="#1DD1A1"/>
<path d="M130.594 28.4328C130.332 28.3031 130.042 28.2291 129.746 28.2157L122.609 28.1953C122.17 28.2055 121.746 28.3485 121.398 28.6041C121.047 28.8599 120.789 29.2153 120.657 29.621C119.813 32.4452 118.667 35.1758 117.235 37.7676C115.894 40.1377 114.379 42.411 112.701 44.5701C111.543 46.0563 110.226 47.4214 108.776 48.6434L107.726 49.4377C107.508 49.607 107.328 49.8166 107.195 50.0543C107.061 50.2921 106.977 50.5534 106.95 50.8227L105.816 63.3889C106.851 62.8958 107.833 62.3093 108.755 61.6374C111.261 59.9101 113.627 57.9966 115.829 55.9144C118.917 53.0463 121.728 49.9105 124.226 46.5457C124.421 46.2992 124.673 46.0995 124.96 45.9618C125.248 45.8241 125.563 45.7522 125.884 45.7514H138.919C139.241 45.7628 139.555 45.8457 139.837 45.9935C140.12 46.1414 140.364 46.3504 140.55 46.6041C140.737 46.8579 140.861 47.15 140.914 47.4575C140.966 47.7652 140.943 48.0803 140.851 48.3787C139.984 51.9575 138.569 55.3899 136.652 58.562C134.545 61.9121 131.885 64.9048 128.781 67.4215C126.073 69.6869 123.073 71.6036 119.859 73.1242C117.594 74.1877 115.243 75.0666 112.827 75.7515L111.337 76.1181C110.93 76.2264 110.564 76.4517 110.292 76.7641C110.019 77.0767 109.849 77.4619 109.805 77.8696L109.154 85.0794C109.15 85.3806 109.213 85.6794 109.341 85.9538C109.469 86.2283 109.658 86.4717 109.895 86.6666C110.132 86.8613 110.411 87.0026 110.711 87.0804C111.012 87.1582 111.324 87.1705 111.631 87.1161C114.064 86.5297 116.448 85.7743 118.768 84.8554C122.017 83.6328 125.174 82.1898 128.214 80.5377C131.875 78.5383 135.277 76.125 138.353 73.3482C141.953 70.069 144.98 66.2445 147.316 62.0244C150.06 57.028 151.932 51.6257 152.858 46.0365V45.8328L153.613 37.4418C153.634 37.1626 153.594 36.8823 153.498 36.6186C153.401 36.3548 153.25 36.1131 153.053 35.9086C152.856 35.7041 152.618 35.5412 152.354 35.43C152.087 35.319 151.802 35.2619 151.514 35.2625H133C132.681 35.2524 132.37 35.1723 132.089 35.0281C131.808 34.8839 131.564 34.6795 131.375 34.4302C131.186 34.1811 131.06 33.8937 131.004 33.5896C130.947 33.2858 130.962 32.9733 131.048 32.676C131.077 32.595 131.114 32.5124 131.151 32.4287L131.151 32.4286C131.245 32.2173 131.342 31.9986 131.342 31.7798L131.719 30.5782C131.768 30.2947 131.753 30.0049 131.677 29.7273C131.6 29.4497 131.465 29.191 131.279 28.9678C131.092 28.7448 130.859 28.5623 130.594 28.4328Z" fill="white"/>
<path d="M48.0062 38.7249L48.531 32.9611C48.5981 32.3978 48.8775 31.8782 49.3152 31.5022C49.7531 31.1265 50.3184 30.9206 50.903 30.9244H87.5118C87.8409 30.9263 88.1659 30.9939 88.4669 31.123C88.7677 31.2523 89.0379 31.4403 89.2606 31.6753C89.4831 31.9106 89.6533 32.1876 89.7606 32.4894C89.8678 32.7912 89.9098 33.1112 89.8838 33.4295L89.359 39.1933C89.2918 39.7566 89.0125 40.2762 88.5748 40.652C88.1369 41.0279 87.5716 41.2336 86.987 41.23H50.3782C50.0482 41.2312 49.7216 41.1656 49.4193 41.0375C49.1168 40.9094 48.8454 40.7214 48.6221 40.4856C48.3989 40.2497 48.2289 39.9715 48.1227 39.6682C48.0167 39.365 47.977 39.0438 48.0062 38.7249Z" fill="white"/>
<path d="M44.4587 55.5681L44.9834 49.8044C45.0506 49.241 45.33 48.7215 45.7677 48.3457C46.2055 47.9697 46.7708 47.764 47.3555 47.7677H89.0861C89.4272 47.7701 89.7637 47.8435 90.0733 47.9826C90.383 48.1217 90.6582 48.3233 90.8809 48.574C91.1034 48.8247 91.2682 49.1186 91.3643 49.4363C91.4602 49.7539 91.485 50.0877 91.4371 50.4154C90.8924 54.9718 89.6176 59.4178 87.6587 63.5926C85.6776 67.811 82.7602 71.5527 79.1153 74.5499C75.9307 77.1761 72.4014 79.3813 68.6196 81.1079C65.4531 82.5252 62.1478 83.6308 58.7537 84.4073C55.689 85.0794 53.191 85.5275 51.3018 85.7719C50.9439 85.8149 50.5806 85.778 50.2397 85.6642C49.8985 85.5503 49.5887 85.3625 49.3339 85.1151C49.0789 84.8678 48.8853 84.5672 48.768 84.2363C48.6506 83.9055 48.6126 83.5529 48.6569 83.2057L49.2237 76.7495C49.2898 76.2315 49.5323 75.7501 49.9124 75.381C50.2928 75.0122 50.789 74.777 51.3228 74.7128H51.8266C53.7973 74.3668 55.7455 73.9112 57.6622 73.3482C60.2676 72.6967 62.8046 71.8103 65.24 70.7006C67.9017 69.489 70.3243 67.8348 72.3981 65.8126C73.7058 64.5507 74.8162 63.1097 75.6937 61.5356C75.8996 61.1812 76.006 60.7806 76.0023 60.3739C75.9985 59.9671 75.8845 59.5683 75.6719 59.2178C75.4594 58.8671 75.1557 58.5769 74.7911 58.3761C74.4264 58.1751 74.0138 58.0708 73.5946 58.0732H46.8307C46.5017 58.0714 46.1766 58.0038 45.8756 57.8747C45.5748 57.7453 45.3046 57.5573 45.0819 57.3223C44.8594 57.0871 44.6891 56.8101 44.5819 56.5083C44.4746 56.2064 44.4326 55.8865 44.4587 55.5681Z" fill="white"/>
<path d="M210.374 77.0957L209.807 83.3279C209.778 83.6399 209.681 83.9426 209.524 84.2171C209.368 84.4914 209.156 84.7318 208.9 84.9228C208.644 85.1138 208.35 85.2517 208.035 85.3277C207.723 85.4039 207.397 85.4163 207.078 85.3646C203.782 84.835 200.781 84.4073 197.779 84.1222C193.677 83.7163 189.559 83.5259 185.436 83.5519H167.657C167.331 83.5503 167.01 83.4833 166.712 83.3548C166.414 83.2265 166.147 83.0395 165.929 82.8059C165.711 82.5725 165.543 82.2973 165.44 81.998C165.337 81.6986 165.297 81.3817 165.326 81.0672L165.893 74.6924C165.956 74.1307 166.231 73.6116 166.666 73.2352C167.1 72.859 167.663 72.6525 168.244 72.6558H186.423C193.816 72.7199 201.19 73.4014 208.464 74.6924C208.988 74.8091 209.456 75.0973 209.79 75.5089C210.122 75.9203 210.298 76.4303 210.29 76.9531L210.374 77.0957Z" fill="white"/>
<path d="M208.191 62.1465L208.757 56.0162V55.8736C208.783 55.3433 208.615 54.8213 208.285 54.3974C207.956 53.9736 207.485 53.6744 206.952 53.5518C199.656 52.2316 192.25 51.55 184.827 51.5151H173.324C172.745 51.517 172.189 51.7257 171.758 52.1015C171.328 52.4773 171.057 52.9936 170.994 53.5518L170.406 59.9266C170.381 60.2327 170.419 60.5408 170.52 60.8323C170.618 61.1239 170.778 61.3928 170.988 61.6229C171.198 61.8531 171.454 62.0396 171.739 62.1716C172.025 62.3036 172.335 62.3783 172.652 62.3909H183.736C187.877 62.3681 192.019 62.5516 196.142 62.9408C199.143 63.2463 202.145 63.6537 205.441 64.1832C205.76 64.2349 206.087 64.2225 206.402 64.1468C206.717 64.071 207.013 63.9333 207.269 63.7425C207.527 63.5516 207.741 63.3115 207.901 63.037C208.058 62.7626 208.157 62.4594 208.191 62.1465Z" fill="white"/>
<path d="M212.788 35.955L212.221 42.2076C212.185 42.5173 212.085 42.8169 211.927 43.0884C211.77 43.3599 211.558 43.5978 211.302 43.7878C211.048 43.9778 210.756 44.1163 210.445 44.1947C210.134 44.2732 209.809 44.2899 209.492 44.2442C206.19 43.7147 203.083 43.3074 200.172 43.0222C196.547 42.6827 192.412 42.486 187.766 42.4316H172.736C172.401 42.4316 172.069 42.362 171.764 42.2275C171.458 42.0929 171.187 41.8966 170.967 41.6518C170.744 41.4068 170.581 41.1188 170.484 40.8072C170.387 40.4956 170.362 40.1674 170.406 39.845L170.994 33.4703C171.057 32.912 171.328 32.3957 171.758 32.02C172.188 31.6442 172.745 31.4354 173.324 31.4336H188.774C196.194 31.509 203.596 32.1902 210.899 33.4703C211.451 33.5768 211.944 33.8719 212.29 34.3016C212.637 34.7314 212.813 35.2674 212.788 35.8124V35.955Z" fill="white"/>
<path d="M227.104 53.7147L226.516 60.0284V59.8858C226.468 60.2178 226.493 60.5561 226.592 60.8775C226.69 61.1991 226.858 61.4962 227.085 61.7492C227.312 62.0021 227.593 62.205 227.908 62.3437C228.223 62.4826 228.563 62.5543 228.909 62.5539H263.608C264.191 62.5575 264.758 62.3518 265.195 61.9759C265.633 61.6001 265.912 61.0805 265.98 60.5172L266.546 54.2035C266.578 53.883 266.542 53.5595 266.437 53.2538C266.332 52.9483 266.162 52.6673 265.94 52.4294C265.715 52.1913 265.442 52.0015 265.138 51.872C264.836 51.7426 264.506 51.6764 264.174 51.6781H229.476C228.892 51.6744 228.325 51.8801 227.889 52.2561C227.45 52.6318 227.171 53.1514 227.104 53.7147Z" fill="white"/>
<path fill-rule="evenodd" clip-rule="evenodd" d="M489.753 77.4212C489.803 76.8704 489.398 76.4239 488.848 76.4239H470.067C469.517 76.4239 469.03 76.8704 468.98 77.4212C468.931 77.972 469.336 78.4185 469.886 78.4185H488.667C489.217 78.4185 489.703 77.972 489.753 77.4212ZM486.35 61.6065C486.398 61.0714 486.005 60.6377 485.47 60.6377H471.47C470.936 60.6377 470.463 61.0714 470.415 61.6065C470.366 62.1416 470.76 62.5753 471.294 62.5753H485.295C485.829 62.5753 486.301 62.1416 486.35 61.6065ZM470.728 68.5023C470.21 68.5023 469.751 68.9233 469.704 69.4426C469.657 69.9619 470.039 70.3829 470.558 70.3829H496.944C498.009 70.3829 498.793 71.2468 498.696 72.3125L497.635 84.0116C497.539 85.0773 496.598 85.9412 495.534 85.9412H489.664C489.286 85.9412 489.008 85.635 489.043 85.2573C489.077 84.8796 488.799 84.5734 488.422 84.5734H469.015C468.638 84.5734 468.304 84.8796 468.27 85.2573C468.236 85.635 467.902 85.9412 467.525 85.9412H462.053C460.989 85.9412 460.205 85.0773 460.301 84.0116L462.789 56.5833C462.885 55.5176 463.826 54.6537 464.891 54.6537H493.533C494.597 54.6537 495.382 55.5176 495.285 56.5833L494.379 66.5727C494.283 67.6383 493.342 68.5023 492.277 68.5023H470.728ZM506.14 34.2513C507.204 34.2513 507.988 35.1152 507.892 36.1809L507.642 38.9326C507.545 39.9982 506.604 40.8622 505.54 40.8622H501.736C500.762 40.8622 500.467 42.6762 500.91 43.5018C501.296 44.2212 500.43 44.4526 499.591 44.6725L494.957 45.8871C493.988 46.1412 493.043 45.6433 492.649 44.7835C492.249 43.9106 491.7 42.8797 491.002 41.691C490.696 41.1693 490.132 40.8622 489.503 40.8622H488.749C488.169 40.8622 487.598 41.1252 487.184 41.5684C485.971 42.8648 484.862 43.9163 483.857 44.7229C483.847 44.7312 483.833 44.7306 483.824 44.7216C483.811 44.7065 483.784 44.7172 483.782 44.7387L483.663 46.0506C483.634 46.364 483.865 46.6181 484.178 46.6181H503.88C504.944 46.6181 505.729 47.4821 505.632 48.5477L504.892 56.7134C504.795 57.7791 503.854 58.643 502.79 58.643H498.334C497.27 58.643 496.486 57.7791 496.582 56.7134L496.754 54.8166C496.851 53.7509 496.067 52.887 495.002 52.887H463.571C462.507 52.887 461.566 53.7509 461.469 54.8166L461.297 56.7134C461.201 57.7791 460.259 58.643 459.195 58.643H455.138C454.074 58.643 453.29 57.7791 453.386 56.7134L454.127 48.5477C454.224 47.4821 455.165 46.6181 456.229 46.6181H473.566C474.588 46.6181 475.491 45.7889 475.584 44.766L475.659 43.9359C475.711 43.3714 476.209 42.9138 476.773 42.9138C477.837 42.9138 478.305 41.511 477.374 41.0744C477.279 41.0296 477.187 40.9875 477.1 40.948C476.972 40.8904 476.831 40.8622 476.686 40.8622H474.532C473.543 40.8622 472.911 42.114 473.263 43.0051C473.531 43.6844 473.008 44.29 472.264 44.4975L467.722 45.7641C466.698 46.0498 465.699 45.492 465.354 44.5462C464.978 43.5175 464.451 42.2985 463.772 40.8893C463.764 40.8726 463.747 40.8622 463.728 40.8622C463.712 40.8622 463.695 40.8697 463.684 40.8826C462.426 42.3151 461.198 43.6276 460.001 44.8201C459.26 45.5582 458.128 45.6159 457.385 45.0142C456.495 44.294 455.597 43.6336 454.69 43.0329C453.564 42.2869 453.548 40.5343 454.63 39.5338C455.675 38.5672 456.693 37.4903 457.684 36.303C459.05 34.6772 460.217 33.0292 461.188 31.359C461.695 30.485 462.716 30.0002 463.63 30.2587L468.728 31.7005C469.231 31.8428 469.254 32.766 468.983 33.2515C468.644 33.8575 469.231 34.2513 469.9 34.2513H478.733C479.438 34.2513 479.957 34.8237 479.893 35.5297C479.79 36.6639 481.074 37.2013 481.858 36.3124C483.189 34.8028 484.371 33.1413 485.404 31.3278C485.895 30.4651 486.889 29.9768 487.795 30.2073L492.983 31.5266C493.548 31.6703 493.815 32.2765 493.517 32.8184C493.158 33.4719 493.545 34.2513 494.264 34.2513H506.14ZM432.892 75.2841C432.803 76.2598 431.942 77.0507 430.967 77.0507H409.227C408.253 77.0507 407.535 76.2598 407.623 75.2841C407.712 74.3083 408.573 73.5174 409.548 73.5174H431.288C432.262 73.5174 432.98 74.3083 432.892 75.2841ZM414.44 55.9645C414.509 55.2091 415.176 54.5967 415.93 54.5967H427.597C428.351 54.5967 428.907 55.2091 428.839 55.9645C428.77 56.7199 428.103 57.3322 427.349 57.3322H415.682C414.928 57.3322 414.372 56.7199 414.44 55.9645ZM434.492 63.3732C435.557 63.3732 436.498 62.5093 436.594 61.4436L437.588 50.4854C437.685 49.4197 436.9 48.5558 435.836 48.5558H409.242C408.178 48.5558 407.237 49.4197 407.14 50.4854L406.146 61.4436C406.05 62.5093 406.834 63.3732 407.898 63.3732H414.082C415.012 63.3732 415.671 64.0949 415.389 65.0049C415.18 65.6791 414.497 66.2797 413.808 66.2797H402.342C401.278 66.2797 400.337 67.1436 400.24 68.2093L398.802 84.0686C398.705 85.1342 399.49 85.9982 400.554 85.9982H405.798C406.269 85.9982 406.686 85.6154 406.729 85.1433C406.772 84.6712 407.189 84.2885 407.66 84.2885H431.222C431.693 84.2885 432.041 84.6712 431.998 85.1433C431.955 85.6154 432.303 85.9982 432.774 85.9982H438.473C439.537 85.9982 440.479 85.1342 440.575 84.0686L442.013 68.2093C442.11 67.1436 441.326 66.2797 440.261 66.2797H425.717C424.682 66.2797 424.293 64.8868 424.802 63.9412C425.085 63.4149 425.474 63.3732 426.05 63.3732H434.492ZM445.247 39.4374C443.626 39.4374 442.878 37.5365 443.987 36.2532C444.188 36.02 444.4 35.7753 444.621 35.5192C445.548 34.4446 445.178 32.8716 443.91 32.4909L439.297 31.1057C438.355 30.8228 437.291 31.3374 436.807 32.2642C435.639 34.4984 434.235 36.6802 432.594 38.8094C432.289 39.2056 431.817 39.4374 431.339 39.4374H427.365C426.502 39.4374 426.398 38.2347 427.236 37.9385C427.653 37.7911 427.901 37.3419 427.767 36.9468C427.224 35.3491 426.324 33.4635 425.068 31.2902C424.654 30.5753 423.778 30.2836 422.94 30.5632L419.066 31.8557C417.846 32.2626 417.232 33.672 417.746 34.764C418.223 35.7801 418.643 36.8001 419.004 37.8239C419.276 38.5936 418.621 39.4374 417.78 39.4374H413.636C413.231 39.4374 413.17 38.8803 413.558 38.7244C413.753 38.646 413.863 38.4302 413.797 38.2438C413.17 36.4663 412.011 34.4705 410.321 32.2564C409.846 31.6343 408.989 31.4423 408.206 31.7584L404.23 33.3641C403.037 33.8457 402.512 35.2744 403.125 36.3021C403.187 36.4062 403.248 36.5094 403.308 36.6117C404.031 37.8412 402.983 39.4374 401.499 39.4374H400.28C399.216 39.4374 398.275 40.3013 398.178 41.367L397.345 50.5585C397.248 51.6242 398.033 52.4881 399.097 52.4881H402.926C403.99 52.4881 404.931 51.6242 405.028 50.5585L405.215 48.4907C405.312 47.4251 406.253 46.5612 407.317 46.5612H438.123C439.187 46.5612 439.971 47.4251 439.875 48.4907L439.687 50.5585C439.59 51.6242 440.375 52.4881 441.439 52.4881H445.78C446.845 52.4881 447.786 51.6242 447.882 50.5585L448.716 41.367C448.812 40.3013 448.028 39.4374 446.964 39.4374H445.247ZM378.388 73.5093C378.485 72.4436 379.426 71.5797 380.49 71.5797H386.425C387.489 71.5797 388.43 70.7158 388.527 69.6501L388.849 66.1006C388.945 65.0349 388.161 64.171 387.097 64.171H381.162C380.098 64.171 379.313 63.3071 379.41 62.2414L379.613 60.0027C379.71 58.937 378.925 58.0731 377.861 58.0731H373.406C372.341 58.0731 371.4 58.937 371.304 60.0027L371.101 62.2414C371.004 63.3071 370.063 64.171 368.999 64.171H363.633C362.569 64.171 361.628 65.0349 361.531 66.1006L361.209 69.6501C361.113 70.7158 361.897 71.5797 362.961 71.5797H368.327C369.391 71.5797 370.176 72.4436 370.079 73.5093L369.943 75.0072C369.847 76.0729 368.905 76.9368 367.841 76.9368H359.118C358.053 76.9368 357.112 77.8007 357.016 78.8664L356.694 82.4158C356.597 83.4815 357.382 84.3454 358.446 84.3454H387.658C388.722 84.3454 389.663 83.4815 389.76 82.4158L390.081 78.8664C390.178 77.8007 389.394 76.9368 388.329 76.9368H380.004C378.94 76.9368 378.156 76.0729 378.252 75.0072L378.388 73.5093ZM377.322 40.1213C378.869 40.1213 379.61 41.8434 378.505 43.0276C378.164 43.3934 377.82 43.7473 377.473 44.0895C376.721 44.8306 375.566 44.8455 374.937 44.1145C374.631 43.7587 374.331 43.3881 374.039 43.0026C373.148 41.8286 374.201 40.1213 375.74 40.1213H377.322ZM350.931 55.4067C349.991 55.4469 349.492 54.416 350.127 53.6693C350.69 53.0073 351.737 53.0368 352.006 53.7971L352.028 53.8614C352.278 54.5703 351.708 55.3735 350.931 55.4067ZM388.113 32.8484C387.755 32.6861 387.343 32.6462 386.938 32.7347L386.205 32.8946C386.064 32.9252 385.923 32.9406 385.782 32.9406H364.359C363.295 32.9406 362.354 33.8045 362.257 34.8702L361.869 39.1527C361.821 39.6877 362.214 40.1213 362.748 40.1213H364.818C365.54 40.1213 365.61 41.136 364.904 41.3621C364.513 41.4871 364.302 41.9272 364.471 42.2727C365.47 44.3093 366.65 46.2293 368.011 48.0328C368.733 48.9899 368.385 50.4696 367.21 51.0196C365.011 52.0491 362.713 52.8945 360.318 53.5558C359.389 53.8121 358.494 53.3345 358.177 52.4792C357.894 51.7129 357.595 50.9604 357.281 50.2216C357.071 49.7268 356.497 49.5172 355.965 49.7318C354.916 50.1548 354.083 48.9665 354.796 48.0701C356.16 46.356 357.6 44.5031 359.118 42.5112C359.867 41.5275 359.607 40.1877 358.576 39.6938L355.641 38.2883C354.727 37.8504 353.562 38.2587 353.006 39.1979C351.74 41.3341 350.435 43.3888 349.093 45.3618C348.742 45.8778 348 45.8965 347.656 45.438C347.44 45.1489 347.445 44.7453 347.672 44.4235C349.022 42.5081 351.029 39.4062 353.693 35.118C354.334 34.0874 353.96 32.8111 352.902 32.4088L349.746 31.2082C348.727 30.8208 347.516 31.4145 347.071 32.4832C346.093 34.835 344.923 37.2166 343.563 39.6281C343.36 39.9866 342.883 40.0717 342.62 39.7988C342.38 39.5497 341.953 39.5955 341.722 39.8952L338.677 43.8535C338.081 44.6283 338.095 45.667 338.688 46.3377C340.305 48.1691 341.684 50.0005 342.825 51.8319C343.236 52.4916 343.129 53.3784 342.584 54.0264C342.311 54.35 342.031 54.6807 341.743 55.0184C341.355 55.4741 340.797 55.7493 340.223 55.7713L338.732 55.8285C337.617 55.8713 336.685 56.8441 336.696 57.9517L336.733 61.3539C336.744 62.3858 337.575 63.1503 338.615 63.0847L343.122 62.8003C344.075 62.7402 344.808 63.4934 344.722 64.444C344.629 65.4636 343.643 66.2382 342.655 66.0678L339.997 65.6097C338.891 65.4191 337.777 66.241 337.567 67.3766C336.86 71.19 336 74.3071 334.985 76.7277C334.532 77.8086 334.939 79.0252 335.942 79.4753C336.736 79.8316 337.52 80.2275 338.296 80.6632C339.285 81.2187 340.639 80.8054 341.114 79.6865C342.348 76.7757 343.419 73.1427 344.328 68.7872L342.958 83.8976C342.861 84.9633 343.645 85.8272 344.71 85.8272H348.197C349.261 85.8272 350.203 84.9633 350.299 83.8976L350.963 76.5795C351.08 75.2914 352.928 75.5121 353.107 76.7665C353.203 77.4385 353.81 77.3543 354.48 77.1218L357.947 75.9187C358.897 75.5892 359.516 74.6219 359.341 73.6794C358.952 71.5849 358.339 69.1572 357.503 66.3963C357.219 65.4593 356.228 64.979 355.242 65.2875L354.333 65.5722C353.127 65.95 352.006 65.0745 352.118 63.8413L352.175 63.2128C352.228 62.6262 352.72 62.1368 353.308 62.0853C353.841 62.0386 354.304 62.3652 354.378 62.882C354.384 62.9214 354.389 62.9611 354.395 63.0012C354.508 63.8356 355.355 64.332 356.166 63.9796L360.065 62.2848C360.443 62.1204 360.686 61.7301 360.637 61.3397C360.629 61.2705 360.619 61.2005 360.61 61.1298C360.477 60.1689 361.643 59.6126 362.005 60.4938C362.159 60.8706 362.572 61.0583 362.985 60.929C367.248 59.5925 371.08 57.9492 374.479 55.9991C375.164 55.6061 375.979 55.6074 376.595 55.998C379.295 57.7115 382.452 59.1485 386.066 60.309C386.906 60.5787 387.865 60.1789 388.417 59.4117C388.922 58.7095 389.507 57.9593 390.172 57.1613C390.292 57.0133 390.411 56.8688 390.529 56.7275C391.581 55.4695 391.168 53.4399 389.701 53.0049C388.004 52.5016 386.404 51.9197 384.902 51.2592C383.747 50.7512 383.631 49.1992 384.564 48.2034C387.682 44.8785 390.242 41.0466 392.245 36.7077C392.676 35.7743 392.304 34.746 391.428 34.3494L388.113 32.8484ZM527.227 68.5187C527.128 67.3654 526.019 66.6573 524.873 67.0168L524.185 67.2328C522.905 67.6347 521.715 66.7056 521.833 65.3964L522.333 59.8887C522.429 58.823 523.37 57.9591 524.435 57.9591H525.475C526.539 57.9591 527.48 57.0952 527.577 56.0295L527.93 52.1381C528.027 51.0724 527.242 50.2085 526.178 50.2085H525.137C524.073 50.2085 523.289 49.3446 523.385 48.2789L523.847 43.1907C523.944 42.125 524.885 41.2611 525.949 41.2611H528.014C529.078 41.2611 530.019 40.3972 530.116 39.3315L530.474 35.3831C530.57 34.3174 529.786 33.4535 528.722 33.4535H512.6C511.535 33.4535 510.594 34.3174 510.498 35.3831L510.14 39.3315C510.043 40.3972 510.827 41.2611 511.892 41.2611H514.013C515.078 41.2611 515.862 42.125 515.765 43.1907L515.304 48.2789C515.207 49.3446 514.266 50.2085 513.202 50.2085H511.592C510.528 50.2085 509.587 51.0724 509.491 52.1381L509.138 56.0295C509.041 57.0952 509.825 57.9591 510.89 57.9591H512.499C513.563 57.9591 514.348 58.823 514.251 59.8887L513.428 68.9684C513.349 69.8375 512.699 70.5997 511.841 70.8293C510.387 71.2183 509.225 71.5284 508.353 71.7593C507.288 72.0419 506.524 73.1283 506.658 74.1825L507.246 78.7873C507.388 79.9021 508.48 80.5629 509.596 80.2099C517.583 77.6833 523.09 75.9313 526.116 74.9541C527.046 74.6536 527.671 73.7363 527.591 72.7979L527.227 68.5187ZM538.437 51.7472C538.526 50.7715 539.387 49.9805 540.362 49.9805H541.215C542.19 49.9805 542.908 50.7715 542.819 51.7472C542.731 52.7229 541.869 53.5139 540.895 53.5139H540.041C539.067 53.5139 538.349 52.7229 538.437 51.7472ZM539.357 41.603C539.445 40.6273 540.307 39.8363 541.281 39.8363H542.135C543.11 39.8363 543.828 40.6273 543.739 41.603C543.651 42.5787 542.789 43.3697 541.815 43.3697H540.961C539.987 43.3697 539.269 42.5787 539.357 41.603ZM554.723 41.603C554.635 42.5787 553.773 43.3697 552.799 43.3697H552.4C551.426 43.3697 550.708 42.5787 550.796 41.603C550.885 40.6273 551.746 39.8363 552.721 39.8363H553.119C554.093 39.8363 554.812 40.6273 554.723 41.603ZM553.803 51.7472C553.715 52.7229 552.853 53.5139 551.879 53.5139H551.48C550.506 53.5139 549.788 52.7229 549.876 51.7472C549.965 50.7715 550.826 49.9805 551.801 49.9805H552.199C553.174 49.9805 553.892 50.7715 553.803 51.7472ZM550.368 76.3669C549.303 76.3669 548.519 75.503 548.616 74.4373L548.643 74.1362C548.74 73.0705 549.681 72.2066 550.745 72.2066H558.615C559.679 72.2066 560.62 71.3427 560.717 70.277L561.054 66.5565C561.151 65.4909 560.366 64.627 559.302 64.627H551.432C550.368 64.627 549.584 63.763 549.68 62.6973L549.692 62.5673C549.789 61.5016 550.73 60.6377 551.794 60.6377H559.095C560.159 60.6377 561.1 59.7737 561.197 58.7081L563.379 34.6422C563.476 33.5765 562.691 32.7126 561.627 32.7126H534.464C533.4 32.7126 532.459 33.5765 532.362 34.6422L530.18 58.7081C530.083 59.7737 530.867 60.6377 531.932 60.6377H539.232C540.297 60.6377 541.081 61.5016 540.984 62.5673L540.973 62.6973C540.876 63.763 539.935 64.627 538.871 64.627H531.399C530.335 64.627 529.394 65.4909 529.297 66.5565L528.96 70.277C528.863 71.3427 529.648 72.2066 530.712 72.2066H538.183C539.248 72.2066 540.032 73.0705 539.935 74.1362L539.908 74.4373C539.811 75.503 538.87 76.3669 537.806 76.3669H526.465C525.4 76.3669 524.459 77.2308 524.363 78.2965L524.015 82.1309C523.918 83.1966 524.703 84.0605 525.767 84.0605H559.418C560.482 84.0605 561.423 83.1966 561.52 82.1309L561.867 78.2965C561.964 77.2308 561.18 76.3669 560.116 76.3669H550.368Z" fill="#464E5F"/>
</svg>
