<svg width="410" height="68" viewBox="0 0 410 68" fill="none" xmlns="http://www.w3.org/2000/svg">
<path d="M69.4245 11.1974C69.213 11.0895 68.9796 11.0281 68.741 11.0169L62.9891 11C62.6356 11.0085 62.2939 11.1273 62.013 11.3397C61.7305 11.5524 61.5224 11.8477 61.4159 12.1849C60.7358 14.5323 59.8121 16.8019 58.6583 18.9561C57.5773 20.926 56.3559 22.8155 55.0042 24.61C54.0704 25.8452 53.0096 26.9799 51.8407 27.9956L50.9948 28.6557C50.8189 28.7964 50.6734 28.9706 50.5668 29.1682C50.4585 29.3659 50.3908 29.5831 50.3688 29.8068L49.4553 40.2513C50.2893 39.8415 51.0811 39.354 51.8237 38.7955C53.8437 37.3599 55.7502 35.7695 57.5249 34.0388C60.0134 31.655 62.2786 29.0486 64.2918 26.252C64.4491 26.0472 64.6521 25.8811 64.8839 25.7667C65.1157 25.6522 65.3694 25.5925 65.6283 25.5918H76.1339C76.3927 25.6013 76.6465 25.6702 76.8732 25.7931C77.1016 25.916 77.2978 26.0897 77.4484 26.3006C77.5989 26.5115 77.6987 26.7542 77.741 27.0099C77.7833 27.2656 77.7647 27.5275 77.6903 27.7755C76.9916 30.7501 75.8514 33.6029 74.3068 36.2394C72.6083 39.0239 70.4649 41.5113 67.9628 43.603C65.7805 45.4859 63.363 47.079 60.773 48.3428C58.9476 49.2268 57.0529 49.9572 55.1057 50.5265L53.9046 50.8312C53.5764 50.9213 53.282 51.1085 53.0621 51.3682C52.8422 51.628 52.7051 51.9481 52.6696 52.287L52.1452 58.2795C52.1418 58.5298 52.1925 58.7782 52.2957 59.0062C52.3989 59.2344 52.5512 59.4367 52.7423 59.5987C52.9335 59.7605 53.1585 59.878 53.4004 59.9426C53.6423 60.0073 53.8944 60.0175 54.1414 59.9723C56.1021 59.4849 58.0239 58.8571 59.8933 58.0933C62.5121 57.0771 65.0565 55.8778 67.5061 54.5046C70.4565 52.8428 73.1987 50.837 75.6771 48.529C78.5784 45.8035 81.0179 42.6248 82.9008 39.1172C85.1119 34.9644 86.6209 30.4743 87.367 25.8288V25.6595L87.976 18.6852C87.9929 18.4532 87.9608 18.2202 87.883 18.001C87.8052 17.7818 87.6833 17.5809 87.5243 17.4109C87.3653 17.241 87.1741 17.1055 86.961 17.0131C86.7461 16.9209 86.5161 16.8735 86.2843 16.874H71.3632C71.1061 16.8655 70.8557 16.799 70.629 16.6791C70.4023 16.5593 70.2061 16.3893 70.0538 16.1821C69.9016 15.9751 69.8001 15.7362 69.7544 15.4835C69.7087 15.2309 69.7206 14.9713 69.7899 14.7241C69.8139 14.6568 69.8434 14.5881 69.8733 14.5185C69.9487 14.3429 70.0267 14.1611 70.0267 13.9793L70.3313 12.9806C70.3702 12.7449 70.3583 12.504 70.2974 12.2733C70.2348 12.0426 70.1266 11.8276 69.976 11.6421C69.8254 11.4567 69.6376 11.305 69.4245 11.1974Z" fill="#1DD1A1"/>
<path d="M2.86506 19.7517L3.288 14.9611C3.34213 14.4929 3.56729 14.061 3.92002 13.7486C4.27292 13.4362 4.7285 13.2651 5.19964 13.2683H34.7034C34.9687 13.2698 35.2306 13.326 35.4732 13.4334C35.7156 13.5409 35.9333 13.6971 36.1128 13.8924C36.2921 14.088 36.4293 14.3182 36.5158 14.5691C36.6022 14.8199 36.6361 15.0859 36.6151 15.3504L36.1921 20.141C36.138 20.6093 35.9128 21.0411 35.5601 21.3534C35.2072 21.6659 34.7516 21.8369 34.2805 21.8338H4.77671C4.51077 21.8348 4.24754 21.7803 4.00393 21.6738C3.76015 21.5674 3.54141 21.4111 3.36141 21.2151C3.18158 21.0191 3.04455 20.7878 2.95895 20.5358C2.87352 20.2837 2.84155 20.0168 2.86506 19.7517Z" fill="#1DD1A1"/>
<path d="M0.00603636 33.751L0.428969 28.9605C0.483104 28.4922 0.708267 28.0604 1.06099 27.7481C1.41389 27.4356 1.86947 27.2646 2.34062 27.2677H35.9722C36.2471 27.2697 36.5183 27.3307 36.7678 27.4463C37.0174 27.5619 37.2392 27.7295 37.4186 27.9379C37.598 28.1462 37.7308 28.3905 37.8083 28.6546C37.8856 28.9185 37.9055 29.1959 37.867 29.4683C37.428 33.2554 36.4006 36.9507 34.8218 40.4206C33.2252 43.9267 30.874 47.0367 27.9365 49.5278C25.37 51.7106 22.5257 53.5434 19.4779 54.9786C16.9259 56.1566 14.2621 57.0754 11.5267 57.7209C9.05679 58.2795 7.04364 58.6519 5.52108 58.855C5.23264 58.8908 4.93979 58.8601 4.66506 58.7655C4.39015 58.6709 4.14046 58.5148 3.93509 58.3091C3.72954 58.1036 3.57356 57.8538 3.47899 57.5787C3.38442 57.3038 3.3538 57.0107 3.3895 56.7221L3.84626 51.356C3.89955 50.9255 4.09494 50.5254 4.40132 50.2186C4.70786 49.9121 5.10778 49.7165 5.53799 49.6632H5.94401C7.53221 49.3756 9.1023 48.9969 10.647 48.5291C12.7468 47.9875 14.7914 47.2508 16.7542 46.3284C18.8993 45.3214 20.8517 43.9465 22.523 42.2658C23.5769 41.2169 24.4718 40.0193 25.179 38.7109C25.3449 38.4164 25.4307 38.0834 25.4277 37.7453C25.4246 37.4073 25.3328 37.0758 25.1614 36.7845C24.9902 36.493 24.7454 36.2518 24.4515 36.0849C24.1577 35.9178 23.8251 35.8311 23.4872 35.8332H1.91769C1.65259 35.8316 1.39056 35.7754 1.14796 35.6681C0.905534 35.5606 0.687802 35.4044 0.50831 35.209C0.328985 35.0135 0.19179 34.7833 0.105343 34.5324C0.018896 34.2816 -0.0149405 34.0156 0.00603636 33.751Z" fill="#1DD1A1"/>
<path d="M133.72 51.6438L133.264 56.8237C133.24 57.083 133.162 57.3346 133.035 57.5628C132.91 57.7908 132.739 57.9905 132.533 58.1493C132.326 58.3081 132.09 58.4227 131.836 58.4858C131.584 58.5492 131.322 58.5595 131.064 58.5165C128.408 58.0764 125.989 57.7209 123.57 57.4839C120.264 57.1465 116.945 56.9882 113.623 57.0099H99.2937C99.0315 57.0085 98.7726 56.9529 98.5324 56.846C98.2922 56.7394 98.0773 56.584 97.9014 56.3898C97.7255 56.1958 97.5901 55.9671 97.5072 55.7183C97.4243 55.4695 97.3922 55.2061 97.4159 54.9447L97.8726 49.6463C97.9234 49.1794 98.145 48.7479 98.4952 48.4351C98.8454 48.1224 99.2988 47.9508 99.7674 47.9535H114.418C120.376 48.0068 126.319 48.5732 132.181 49.6463C132.604 49.7433 132.981 49.9828 133.25 50.3249C133.517 50.6669 133.659 51.0907 133.653 51.5253L133.72 51.6438Z" fill="#1DD1A1"/>
<path d="M131.961 39.2187L132.418 34.1234V34.0049C132.438 33.5641 132.303 33.1303 132.037 32.778C131.772 32.4257 131.393 32.1771 130.963 32.0752C125.082 30.9779 119.114 30.4113 113.132 30.3824H103.861C103.394 30.3839 102.946 30.5574 102.599 30.8697C102.253 31.1821 102.034 31.6112 101.984 32.0752L101.51 37.3736C101.49 37.628 101.52 37.8841 101.601 38.1264C101.681 38.3688 101.809 38.5922 101.978 38.7835C102.148 38.9748 102.354 39.1298 102.584 39.2395C102.814 39.3492 103.065 39.4114 103.32 39.4219H112.252C115.59 39.4029 118.928 39.5554 122.25 39.8789C124.67 40.1328 127.089 40.4714 129.745 40.9115C130.002 40.9545 130.266 40.9442 130.52 40.8812C130.773 40.8182 131.012 40.7038 131.218 40.5452C131.426 40.3866 131.599 40.187 131.728 39.9588C131.854 39.7308 131.934 39.4787 131.961 39.2187Z" fill="#1DD1A1"/>
<path d="M135.666 17.4495L135.209 22.6464C135.18 22.9038 135.099 23.1528 134.972 23.3785C134.845 23.6041 134.674 23.8018 134.468 23.9598C134.263 24.1177 134.028 24.2328 133.778 24.298C133.528 24.3632 133.265 24.3771 133.01 24.3391C130.349 23.899 127.845 23.5605 125.499 23.3235C122.577 23.0413 119.244 22.8778 115.5 22.8326H103.388C103.117 22.8326 102.85 22.7747 102.604 22.6629C102.357 22.5511 102.139 22.3879 101.962 22.1844C101.782 21.9807 101.65 21.7414 101.572 21.4824C101.495 21.2234 101.474 20.9507 101.51 20.6827L101.984 15.3843C102.034 14.9203 102.253 14.4912 102.599 14.1789C102.946 13.8666 103.394 13.693 103.861 13.6915H116.312C122.293 13.7542 128.258 14.3204 134.143 15.3843C134.588 15.4728 134.986 15.7181 135.265 16.0753C135.544 16.4325 135.686 16.878 135.666 17.331V17.4495Z" fill="#1DD1A1"/>
<path d="M147.203 32.2106L146.73 37.4582V37.3397C146.691 37.6157 146.711 37.8968 146.791 38.1639C146.87 38.4312 147.006 38.6782 147.188 38.8885C147.371 39.0987 147.598 39.2673 147.851 39.3826C148.105 39.498 148.379 39.5576 148.658 39.5573H176.623C177.093 39.5603 177.55 39.3893 177.902 39.0769C178.255 38.7645 178.48 38.3327 178.534 37.8645L178.991 32.6168C179.016 32.3504 178.988 32.0816 178.903 31.8275C178.819 31.5736 178.682 31.34 178.502 31.1423C178.321 30.9444 178.101 30.7866 177.856 30.6789C177.612 30.5715 177.347 30.5164 177.079 30.5178H149.115C148.645 30.5147 148.188 30.6857 147.836 30.9982C147.483 31.3105 147.258 31.7424 147.203 32.2106Z" fill="#1DD1A1"/>
<rect width="0.936446" height="66.956" transform="matrix(1 0 -0.0908064 0.995869 222.035 0.660156)" fill="#B5B5C3"/>
<path fill-rule="evenodd" clip-rule="evenodd" d="M361.037 48.164C361.07 47.7893 360.8 47.4854 360.435 47.4854H347.946C347.58 47.4854 347.257 47.7893 347.224 48.164C347.191 48.5388 347.46 48.8426 347.826 48.8426H360.314C360.68 48.8426 361.004 48.5388 361.037 48.164ZM358.774 37.4034C358.806 37.0393 358.544 36.7442 358.189 36.7442H348.879C348.524 36.7442 348.21 37.0393 348.177 37.4034C348.145 37.7675 348.407 38.0626 348.762 38.0626H358.072C358.427 38.0626 358.741 37.7675 358.774 37.4034ZM348.386 42.0954C348.041 42.0954 347.736 42.3819 347.705 42.7352C347.674 43.0886 347.928 43.3751 348.273 43.3751H365.819C366.526 43.3751 367.048 43.9629 366.984 44.688L366.278 52.6483C366.214 53.3734 365.588 53.9612 364.88 53.9612H360.977C360.726 53.9612 360.541 53.7529 360.564 53.4959C360.587 53.2389 360.402 53.0306 360.151 53.0306H347.247C346.996 53.0306 346.774 53.2389 346.751 53.4959C346.728 53.7529 346.507 53.9612 346.256 53.9612H342.618C341.91 53.9612 341.388 53.3734 341.453 52.6483L343.106 33.9855C343.171 33.2604 343.796 32.6726 344.504 32.6726H363.55C364.258 32.6726 364.78 33.2604 364.715 33.9855L364.113 40.7825C364.049 41.5076 363.423 42.0954 362.715 42.0954H348.386ZM371.933 18.7904C372.641 18.7904 373.162 19.3782 373.098 20.1033L372.932 21.9756C372.868 22.7007 372.242 23.2885 371.534 23.2885H369.004C368.357 23.2885 368.161 24.5229 368.455 25.0846C368.712 25.5741 368.137 25.7315 367.579 25.8812L364.497 26.7076C363.852 26.8805 363.224 26.5417 362.962 25.9567C362.696 25.3627 362.331 24.6613 361.867 23.8525C361.664 23.4975 361.289 23.2885 360.87 23.2885H360.369C359.983 23.2885 359.604 23.4675 359.328 23.7691C358.522 24.6511 357.784 25.3666 357.116 25.9155C357.109 25.9211 357.1 25.9207 357.094 25.9146C357.085 25.9043 357.067 25.9116 357.066 25.9262L356.987 26.8188C356.968 27.0321 357.121 27.205 357.33 27.205H370.43C371.138 27.205 371.66 27.7928 371.595 28.5179L371.103 34.074C371.039 34.7992 370.413 35.387 369.705 35.387H366.743C366.035 35.387 365.514 34.7992 365.578 34.074L365.692 32.7834C365.756 32.0583 365.235 31.4705 364.527 31.4705H343.627C342.919 31.4705 342.293 32.0583 342.229 32.7834L342.115 34.074C342.05 34.7992 341.425 35.387 340.717 35.387H338.019C337.312 35.387 336.79 34.7992 336.854 34.074L337.347 28.5179C337.411 27.7928 338.037 27.205 338.744 27.205H350.273C350.952 27.205 351.553 26.6408 351.615 25.9447L351.665 25.38C351.699 24.9959 352.03 24.6845 352.405 24.6845C353.113 24.6845 353.424 23.73 352.805 23.4329C352.742 23.4024 352.681 23.3738 352.623 23.3469C352.538 23.3077 352.444 23.2885 352.347 23.2885H350.916C350.258 23.2885 349.838 24.1403 350.071 24.7466C350.25 25.2088 349.902 25.6209 349.407 25.7621L346.387 26.6239C345.706 26.8183 345.042 26.4388 344.812 25.7952C344.562 25.0953 344.212 24.2659 343.76 23.3069C343.755 23.2956 343.744 23.2885 343.731 23.2885C343.72 23.2885 343.709 23.2937 343.702 23.3024C342.865 24.2772 342.049 25.1702 341.253 25.9816C340.76 26.4838 340.007 26.5231 339.513 26.1137C338.921 25.6236 338.324 25.1743 337.721 24.7656C336.972 24.258 336.962 23.0654 337.681 22.3846C338.376 21.727 339.053 20.9942 339.712 20.1863C340.62 19.0801 341.397 17.9588 342.042 16.8224C342.38 16.2277 343.058 15.8978 343.666 16.0737L347.056 17.0547C347.391 17.1516 347.406 17.7797 347.225 18.11C347 18.5224 347.39 18.7904 347.835 18.7904H353.708C354.177 18.7904 354.523 19.1798 354.48 19.6602C354.412 20.4319 355.265 20.7976 355.787 20.1928C356.672 19.1656 357.458 18.0351 358.145 16.8012C358.471 16.2141 359.132 15.8819 359.735 16.0387L363.184 16.9364C363.56 17.0342 363.738 17.4466 363.54 17.8154C363.301 18.26 363.558 18.7904 364.036 18.7904H371.933ZM323.226 46.7099C323.168 47.3738 322.595 47.912 321.947 47.912H307.49C306.842 47.912 306.365 47.3738 306.424 46.7099C306.483 46.046 307.056 45.5078 307.703 45.5078H322.16C322.808 45.5078 323.285 46.046 323.226 46.7099ZM310.957 33.5645C311.002 33.0505 311.446 32.6338 311.948 32.6338H319.706C320.207 32.6338 320.577 33.0505 320.531 33.5645C320.486 34.0784 320.042 34.4951 319.541 34.4951H311.783C311.281 34.4951 310.911 34.0784 310.957 33.5645ZM324.291 38.6055C324.998 38.6055 325.624 38.0177 325.688 37.2925L326.349 29.8364C326.413 29.1113 325.892 28.5234 325.184 28.5234H307.5C306.793 28.5234 306.167 29.1113 306.103 29.8364L305.442 37.2925C305.378 38.0177 305.899 38.6055 306.607 38.6055H310.718C311.337 38.6055 311.776 39.0966 311.588 39.7157C311.449 40.1745 310.994 40.5831 310.536 40.5831H302.912C302.204 40.5831 301.579 41.1709 301.514 41.8961L300.558 52.6871C300.494 53.4122 301.015 54 301.723 54H305.21C305.524 54 305.801 53.7396 305.829 53.4183C305.858 53.0971 306.135 52.8367 306.448 52.8367H322.116C322.429 52.8367 322.66 53.0971 322.632 53.4183C322.603 53.7396 322.835 54 323.148 54H326.938C327.645 54 328.271 53.4122 328.335 52.6871L329.292 41.8961C329.356 41.1709 328.834 40.5831 328.127 40.5831H318.455C317.767 40.5831 317.508 39.6354 317.847 38.992C318.035 38.6339 318.294 38.6055 318.677 38.6055H324.291ZM331.442 22.3191C330.364 22.3191 329.867 21.0256 330.604 20.1525C330.738 19.9938 330.878 19.8273 331.025 19.6531C331.642 18.9219 331.396 17.8515 330.553 17.5925L327.486 16.65C326.859 16.4575 326.152 16.8076 325.83 17.4383C325.053 18.9585 324.119 20.443 323.028 21.8918C322.825 22.1613 322.512 22.3191 322.194 22.3191H319.551C318.977 22.3191 318.908 21.5007 319.466 21.2992C319.743 21.1989 319.908 20.8933 319.818 20.6244C319.458 19.5373 318.859 18.2543 318.024 16.7755C317.749 16.2891 317.166 16.0907 316.609 16.2809L314.032 17.1604C313.221 17.4372 312.813 18.3962 313.155 19.1392C313.472 19.8306 313.751 20.5246 313.992 21.2212C314.172 21.7449 313.737 22.3191 313.178 22.3191H310.422C310.153 22.3191 310.112 21.94 310.37 21.834C310.5 21.7806 310.573 21.6338 310.529 21.5069C310.112 20.2975 309.342 18.9395 308.217 17.433C307.902 17.0097 307.332 16.8791 306.811 17.0941L304.167 18.1867C303.374 18.5144 303.025 19.4865 303.433 20.1857C303.474 20.2566 303.514 20.3268 303.554 20.3964C304.035 21.233 303.338 22.3191 302.351 22.3191H301.541C300.833 22.3191 300.208 22.9069 300.143 23.632L299.589 29.8861C299.525 30.6112 300.046 31.199 300.754 31.199H303.3C304.008 31.199 304.634 30.6112 304.698 29.8861L304.823 28.4792C304.887 27.7541 305.513 27.1662 306.22 27.1662H326.705C327.412 27.1662 327.934 27.7541 327.87 28.4792L327.745 29.8861C327.681 30.6112 328.202 31.199 328.91 31.199H331.797C332.504 31.199 333.13 30.6112 333.194 29.8861L333.749 23.632C333.813 22.9069 333.291 22.3191 332.584 22.3191H331.442ZM286.984 45.5023C287.048 44.7772 287.674 44.1894 288.381 44.1894H292.328C293.035 44.1894 293.661 43.6016 293.726 42.8764L293.94 40.4613C294.004 39.7362 293.482 39.1484 292.775 39.1484H288.828C288.12 39.1484 287.599 38.5605 287.663 37.8354L287.798 36.3121C287.862 35.587 287.341 34.9992 286.633 34.9992H283.671C282.963 34.9992 282.337 35.587 282.273 36.3121L282.138 37.8354C282.074 38.5605 281.448 39.1484 280.74 39.1484H277.172C276.465 39.1484 275.839 39.7362 275.775 40.4613L275.56 42.8764C275.496 43.6016 276.018 44.1894 276.725 44.1894H280.294C281.001 44.1894 281.523 44.7772 281.458 45.5023L281.368 46.5215C281.304 47.2466 280.678 47.8344 279.97 47.8344H274.17C273.462 47.8344 272.836 48.4223 272.772 49.1474L272.558 51.5625C272.494 52.2876 273.015 52.8755 273.723 52.8755H293.148C293.855 52.8755 294.481 52.2876 294.545 51.5625L294.759 49.1474C294.823 48.4223 294.302 47.8344 293.594 47.8344H288.058C287.351 47.8344 286.829 47.2466 286.893 46.5215L286.984 45.5023ZM286.275 22.7844C287.303 22.7844 287.796 23.9562 287.062 24.7619C286.835 25.0108 286.606 25.2516 286.375 25.4845C285.875 25.9887 285.107 25.9989 284.689 25.5015C284.485 25.2594 284.286 25.0072 284.092 24.7449C283.5 23.9461 284.199 22.7844 285.223 22.7844H286.275ZM268.726 33.1849C268.101 33.2123 267.769 32.5108 268.191 32.0028C268.566 31.5523 269.262 31.5724 269.441 32.0897L269.456 32.1335C269.622 32.6158 269.242 33.1623 268.726 33.1849ZM293.45 17.8358C293.212 17.7253 292.938 17.6982 292.669 17.7584L292.181 17.8672C292.088 17.888 291.994 17.8985 291.901 17.8985H277.655C276.948 17.8985 276.322 18.4863 276.257 19.2114L275.999 22.1254C275.967 22.4894 276.229 22.7844 276.584 22.7844H277.96C278.44 22.7844 278.487 23.4749 278.017 23.6287C277.758 23.7137 277.617 24.0132 277.729 24.2483C278.394 25.634 279.179 26.9404 280.083 28.1676C280.563 28.8188 280.332 29.8256 279.551 30.1999C278.088 30.9003 276.561 31.4756 274.968 31.9255C274.35 32.0999 273.755 31.7749 273.544 31.193C273.356 30.6716 273.157 30.1596 272.949 29.6569C272.809 29.3202 272.427 29.1776 272.073 29.3236C271.375 29.6114 270.822 28.8029 271.296 28.1929C272.203 27.0266 273.161 25.7659 274.17 24.4106C274.668 23.7412 274.495 22.8296 273.809 22.4935L271.858 21.5372C271.25 21.2392 270.476 21.5171 270.106 22.1561C269.264 23.6097 268.396 25.0077 267.504 26.3501C267.271 26.7012 266.777 26.714 266.548 26.402C266.404 26.2053 266.408 25.9307 266.559 25.7117C267.456 24.4084 268.791 22.2979 270.563 19.38C270.988 18.6788 270.74 17.8104 270.037 17.5367L267.938 16.7198C267.26 16.4561 266.455 16.8601 266.159 17.5873C265.509 19.1875 264.731 20.808 263.826 22.4488C263.692 22.6927 263.374 22.7507 263.2 22.565C263.04 22.3955 262.756 22.4266 262.603 22.6305L260.577 25.3239C260.181 25.8511 260.191 26.5578 260.585 27.0142C261.66 28.2603 262.577 29.5064 263.336 30.7526C263.609 31.2014 263.538 31.8048 263.175 32.2457C262.994 32.4659 262.808 32.6909 262.617 32.9207C262.358 33.2308 261.987 33.418 261.606 33.433L260.614 33.4719C259.873 33.5011 259.253 34.1629 259.261 34.9166L259.285 37.2315C259.292 37.9337 259.845 38.4538 260.536 38.4092L263.533 38.2157C264.167 38.1748 264.654 38.6873 264.597 39.3341C264.535 40.0278 263.88 40.5549 263.223 40.439L261.455 40.1273C260.72 39.9976 259.979 40.5568 259.839 41.3295C259.37 43.9242 258.797 46.0452 258.122 47.6922C257.821 48.4277 258.092 49.2554 258.759 49.5617C259.287 49.8041 259.808 50.0735 260.324 50.37C260.982 50.748 261.882 50.4667 262.198 49.7054C263.019 47.7249 263.731 45.2528 264.335 42.2893L263.424 52.5707C263.36 53.2958 263.881 53.8837 264.589 53.8837H266.908C267.616 53.8837 268.242 53.2958 268.306 52.5707L268.747 47.5914C268.825 46.7149 270.054 46.8651 270.173 47.7186C270.237 48.1758 270.641 48.1185 271.086 47.9603L273.391 47.1417C274.023 46.9176 274.434 46.2594 274.318 45.618C274.059 44.1929 273.652 42.5411 273.096 40.6625C272.907 40.025 272.248 39.6981 271.593 39.908L270.988 40.1017C270.186 40.3588 269.441 39.7631 269.515 38.924L269.553 38.4964C269.588 38.0973 269.916 37.7643 270.307 37.7292C270.661 37.6974 270.969 37.9197 271.018 38.2713C271.022 38.2981 271.026 38.3251 271.029 38.3524C271.105 38.9201 271.668 39.2579 272.207 39.0181L274.799 37.865C275.051 37.753 275.213 37.4875 275.18 37.2219C275.174 37.1748 275.168 37.1271 275.162 37.079C275.074 36.4252 275.849 36.0467 276.089 36.6463C276.192 36.9027 276.467 37.0304 276.741 36.9424C279.576 36.033 282.124 34.9149 284.385 33.588C284.84 33.3206 285.382 33.3215 285.791 33.5872C287.587 34.7531 289.686 35.7309 292.089 36.5206C292.648 36.7041 293.285 36.432 293.652 35.91C293.988 35.4322 294.377 34.9218 294.819 34.3788C294.899 34.2781 294.978 34.1797 295.057 34.0836C295.757 33.2277 295.482 31.8467 294.506 31.5507C293.378 31.2082 292.314 30.8123 291.315 30.3629C290.547 30.0173 290.47 28.9612 291.091 28.2836C293.164 26.0213 294.866 23.414 296.198 20.4617C296.485 19.8267 296.237 19.127 295.655 18.8571L293.45 17.8358ZM385.955 42.1066C385.89 41.3219 385.152 40.8401 384.39 41.0847L383.933 41.2317C383.081 41.5051 382.29 40.8729 382.369 39.9821L382.701 36.2346C382.765 35.5095 383.391 34.9217 384.098 34.9217H384.79C385.498 34.9217 386.124 34.3338 386.188 33.6087L386.423 30.9609C386.487 30.2358 385.965 29.648 385.258 29.648H384.566C383.858 29.648 383.336 29.0601 383.401 28.335L383.708 24.8729C383.772 24.1478 384.398 23.56 385.105 23.56H386.478C387.186 23.56 387.812 22.9721 387.876 22.247L388.114 19.5604C388.178 18.8353 387.657 18.2475 386.949 18.2475H376.229C375.521 18.2475 374.895 18.8353 374.831 19.5604L374.593 22.247C374.529 22.9721 375.05 23.56 375.758 23.56H377.169C377.876 23.56 378.398 24.1478 378.334 24.8729L378.027 28.335C377.963 29.0601 377.337 29.648 376.629 29.648H375.559C374.851 29.648 374.225 30.2358 374.161 30.9609L373.927 33.6087C373.862 34.3338 374.384 34.9217 375.092 34.9217H376.162C376.869 34.9217 377.391 35.5095 377.327 36.2346L376.779 42.4126C376.727 43.0039 376.294 43.5226 375.724 43.6788C374.757 43.9435 373.984 44.1544 373.405 44.3116C372.696 44.5039 372.188 45.2431 372.278 45.9604L372.668 49.0936C372.763 49.8521 373.489 50.3017 374.231 50.0616C379.542 48.3424 383.204 47.1503 385.216 46.4854C385.835 46.2809 386.25 45.6568 386.197 45.0183L385.955 42.1066ZM393.409 30.6949C393.468 30.031 394.041 29.4929 394.689 29.4929H395.257C395.905 29.4929 396.382 30.031 396.323 30.6949C396.265 31.3588 395.692 31.897 395.044 31.897H394.476C393.828 31.897 393.351 31.3588 393.409 30.6949ZM394.021 23.7926C394.08 23.1287 394.653 22.5905 395.301 22.5905H395.868C396.516 22.5905 396.994 23.1287 396.935 23.7926C396.876 24.4565 396.303 24.9947 395.655 24.9947H395.088C394.44 24.9947 393.962 24.4565 394.021 23.7926ZM404.239 23.7926C404.18 24.4565 403.607 24.9947 402.959 24.9947H402.694C402.046 24.9947 401.569 24.4565 401.628 23.7926C401.687 23.1287 402.259 22.5905 402.907 22.5905H403.172C403.82 22.5905 404.298 23.1287 404.239 23.7926ZM403.627 30.6949C403.568 31.3588 402.995 31.897 402.348 31.897H402.083C401.435 31.897 400.957 31.3588 401.016 30.6949C401.075 30.031 401.648 29.4929 402.296 29.4929H402.561C403.209 29.4929 403.686 30.031 403.627 30.6949ZM401.343 47.4467C400.635 47.4467 400.113 46.8588 400.178 46.1337L400.196 45.9289C400.26 45.2038 400.886 44.6159 401.593 44.6159H406.827C407.534 44.6159 408.16 44.0281 408.224 43.303L408.449 40.7715C408.513 40.0464 407.991 39.4586 407.284 39.4586H402.051C401.343 39.4586 400.821 38.8708 400.886 38.1456L400.893 38.0571C400.958 37.332 401.583 36.7442 402.291 36.7442H407.146C407.853 36.7442 408.479 36.1564 408.543 35.4312L409.995 19.0563C410.059 18.3312 409.537 17.7434 408.83 17.7434H390.767C390.06 17.7434 389.434 18.3312 389.37 19.0563L387.919 35.4312C387.854 36.1564 388.376 36.7442 389.084 36.7442H393.938C394.646 36.7442 395.168 37.332 395.103 38.0571L395.095 38.1456C395.031 38.8708 394.405 39.4586 393.698 39.4586H388.73C388.022 39.4586 387.396 40.0464 387.332 40.7715L387.107 43.303C387.043 44.0281 387.565 44.6159 388.272 44.6159H393.241C393.948 44.6159 394.47 45.2038 394.406 45.9289L394.388 46.1337C394.323 46.8588 393.697 47.4467 392.99 47.4467H385.448C384.741 47.4467 384.115 48.0345 384.051 48.7596L383.819 51.3686C383.755 52.0938 384.277 52.6816 384.984 52.6816H407.361C408.068 52.6816 408.694 52.0938 408.758 51.3686L408.99 48.7596C409.054 48.0345 408.532 47.4467 407.825 47.4467H401.343Z" fill="white"/>
</svg>
