<svg width="113" height="33" viewBox="0 0 113 33" fill="none" xmlns="http://www.w3.org/2000/svg">
<path d="M27.4615 0H4.84615C2.1697 0 0 2.1697 0 4.84615V27.4615C0 30.138 2.1697 32.3077 4.84615 32.3077H27.4615C30.138 32.3077 32.3077 30.138 32.3077 27.4615V4.84615C32.3077 2.1697 30.138 0 27.4615 0Z" fill="#1DD1A1"/>
<path d="M21.2705 25.8462H11.0354C10.6789 25.8462 10.3371 25.6875 10.085 25.4051C9.833 25.1227 9.69141 24.7397 9.69141 24.3403V7.96456C9.69207 7.56568 9.83396 7.18339 10.0859 6.9016C10.3379 6.61981 10.6794 6.46155 11.0354 6.46155H12.4972C12.8532 6.46155 13.1947 6.61981 13.4466 6.9016C13.6986 7.18339 13.8405 7.56568 13.8411 7.96456V12.8809C13.8408 12.8985 13.8436 12.916 13.8494 12.9323C13.8551 12.9487 13.8638 12.9636 13.8748 12.9761C13.8857 12.9887 13.8988 12.9987 13.9133 13.0055C13.9278 13.0123 13.9433 13.0158 13.959 13.0158H18.3469C18.3628 13.0162 18.3786 13.013 18.3934 13.0063C18.4081 12.9997 18.4215 12.9898 18.4328 12.9771C18.444 12.9646 18.4529 12.9495 18.4588 12.933C18.4647 12.9165 18.4676 12.8988 18.4673 12.8809V7.96456C18.4679 7.56568 18.6098 7.18339 18.8618 6.9016C19.1138 6.61981 19.4552 6.46155 19.8112 6.46155H21.273C21.6286 6.46229 21.9694 6.62088 22.2208 6.90259C22.4723 7.1843 22.6138 7.56616 22.6145 7.96456V24.3516C22.6118 24.749 22.4691 25.1291 22.2173 25.4091C21.9656 25.6891 21.6252 25.8462 21.2705 25.8462ZM10.9125 23.3992V24.3516C10.9122 24.3694 10.915 24.3871 10.921 24.4036C10.9269 24.4202 10.9357 24.4352 10.947 24.4478C10.9582 24.4604 10.9716 24.4703 10.9864 24.4769C11.0012 24.4836 11.017 24.4868 11.0329 24.4864H21.2705C21.3024 24.4864 21.3331 24.4722 21.3556 24.4469C21.3782 24.4216 21.3909 24.3873 21.3909 24.3516V23.3992H19.8112C19.649 23.3992 19.4934 23.327 19.3786 23.1984C19.2639 23.0699 19.1994 22.8955 19.1994 22.7137C19.1994 22.5319 19.2639 22.3575 19.3786 22.229C19.4934 22.1005 19.649 22.0282 19.8112 22.0282H21.3909V7.96456C21.3902 7.92928 21.3773 7.8957 21.3547 7.87102C21.3323 7.84633 21.302 7.83251 21.2705 7.83252H19.8112C19.7955 7.83214 19.78 7.83528 19.7654 7.84175C19.7508 7.84822 19.7375 7.85789 19.7263 7.87018C19.7151 7.88248 19.7062 7.89716 19.7001 7.91337C19.694 7.92958 19.6909 7.94698 19.6909 7.96456V12.8809C19.6902 13.2801 19.5484 13.6627 19.2965 13.9449C19.0446 14.2271 18.7032 14.386 18.3469 14.3868H13.9565C13.6005 14.386 13.2593 14.2271 13.0078 13.9447C12.7563 13.6624 12.615 13.2798 12.615 12.8809V7.96456C12.6144 7.92928 12.6014 7.8957 12.5789 7.87102C12.5564 7.84633 12.5262 7.83251 12.4947 7.83252H11.0354C11.0197 7.83214 11.0041 7.83528 10.9895 7.84175C10.9749 7.84822 10.9616 7.85789 10.9504 7.87018C10.9392 7.88248 10.9303 7.89716 10.9242 7.91337C10.9181 7.92958 10.915 7.94698 10.915 7.96456V22.0282H17.6148C17.777 22.0282 17.9326 22.1005 18.0474 22.229C18.1621 22.3575 18.2266 22.5319 18.2266 22.7137C18.2266 22.8955 18.1621 23.0699 18.0474 23.1984C17.9326 23.327 17.777 23.3992 17.6148 23.3992H10.9125ZM15.4885 20.1488C15.3234 20.1488 15.1649 20.0761 15.0472 19.9465L13.6681 18.4042C13.5499 18.2702 13.4833 18.0897 13.4826 17.9013C13.4826 17.7128 13.5494 17.532 13.6684 17.3987C13.7873 17.2654 13.9487 17.1905 14.1169 17.1905C14.2003 17.19 14.283 17.2081 14.3601 17.2438C14.4371 17.2795 14.5071 17.332 14.5658 17.3984L15.4885 18.4323L17.7451 15.9038C17.8032 15.8335 17.8733 15.777 17.9512 15.7378C18.0292 15.6986 18.1135 15.6775 18.1989 15.6756C18.2844 15.6738 18.3693 15.6914 18.4486 15.7273C18.5278 15.7632 18.5998 15.8166 18.6602 15.8844C18.7205 15.9522 18.768 16.033 18.7998 16.1219C18.8316 16.2108 18.847 16.306 18.8452 16.4018C18.8433 16.4975 18.8242 16.5918 18.789 16.6791C18.7538 16.7664 18.7032 16.8448 18.6403 16.9096L15.9373 19.9465C15.8781 20.0117 15.808 20.0632 15.7309 20.0979C15.6539 20.1326 15.5715 20.1499 15.4885 20.1488Z" fill="white"/>
<path d="M44.3865 13.9539L44.225 15.7422C44.2169 15.841 44.2299 15.9403 44.2629 16.0339C44.2959 16.1276 44.3483 16.2135 44.4168 16.2865C44.4854 16.3594 44.5686 16.4177 44.6612 16.4579C44.7539 16.4979 44.854 16.5189 44.9553 16.5195H53.1955C53.3246 16.5187 53.4517 16.5511 53.5639 16.6134C53.6762 16.6757 53.7697 16.7658 53.8351 16.8746C53.9006 16.9834 53.9357 17.1071 53.9368 17.2333C53.938 17.3595 53.9052 17.4838 53.8418 17.5937C53.5717 18.0821 53.2298 18.5292 52.8271 18.9207C52.1887 19.5481 51.4428 20.0614 50.6233 20.4373C49.8735 20.7816 49.0923 21.0566 48.2902 21.2588C47.7 21.4334 47.1002 21.5748 46.4935 21.6821H46.3383C46.174 21.702 46.0212 21.775 45.9041 21.8895C45.7871 22.004 45.7124 22.1533 45.6921 22.314L45.5176 24.3172C45.5039 24.4249 45.5156 24.5343 45.5517 24.6369C45.5879 24.7396 45.6475 24.8329 45.726 24.9096C45.8044 24.9864 45.8998 25.0446 46.0049 25.0799C46.1098 25.1153 46.2217 25.1267 46.3319 25.1134C46.9136 25.0375 47.6826 24.8985 48.6262 24.69C49.6712 24.4491 50.6889 24.1061 51.6638 23.6663C52.8282 23.1306 53.9148 22.4464 54.8953 21.6316C56.0175 20.7017 56.9157 19.5407 57.5257 18.2319C58.1288 16.9367 58.5213 15.5572 58.689 14.1435C58.7038 14.0418 58.6962 13.9383 58.6666 13.8398C58.637 13.7412 58.5863 13.65 58.5178 13.5722C58.4492 13.4944 58.3645 13.4319 58.2691 13.3887C58.1738 13.3455 58.0702 13.3228 57.9652 13.322H45.1168C44.9369 13.3209 44.7628 13.3847 44.628 13.5014C44.4932 13.618 44.4072 13.7792 44.3865 13.9539Z" fill="white"/>
<path d="M45.477 8.72799L45.3154 10.5163C45.3064 10.6152 45.3186 10.7149 45.3513 10.809C45.384 10.9031 45.4363 10.9894 45.505 11.0626C45.5738 11.1357 45.6574 11.1941 45.7505 11.2338C45.8436 11.2736 45.9441 11.2939 46.0457 11.2935H57.3171C57.4971 11.2947 57.6712 11.2308 57.806 11.1142C57.9407 10.9976 58.0268 10.8364 58.0474 10.6616L58.209 8.87333C58.217 8.77456 58.2041 8.67529 58.1711 8.58164C58.138 8.48799 58.0856 8.40205 58.0171 8.32907C57.9486 8.25615 57.8654 8.19782 57.7728 8.1577C57.6801 8.11763 57.58 8.09665 57.4787 8.09609H46.2073C46.0273 8.09489 45.8533 8.15877 45.7184 8.27536C45.5837 8.39201 45.4977 8.55321 45.477 8.72799Z" fill="white"/>
<path d="M70.7461 7.32307C70.6653 7.28282 70.5761 7.25988 70.4849 7.25571L68.2875 7.24939C68.1525 7.25255 68.0219 7.29691 67.9146 7.37621C67.8067 7.45558 67.7272 7.56585 67.6865 7.69172C67.4267 8.56799 67.0738 9.41518 66.633 10.2193C66.22 10.9547 65.7534 11.66 65.237 12.3299C64.8803 12.791 64.4751 13.2146 64.0285 13.5937L63.7053 13.8402C63.6381 13.8927 63.5825 13.9577 63.5418 14.0314C63.5004 14.1052 63.4746 14.1863 63.4662 14.2698L63.1172 18.1687C63.4358 18.0157 63.7383 17.8337 64.022 17.6253C64.7937 17.0893 65.5221 16.4957 66.2 15.8496C67.1507 14.9598 68.0161 13.9868 68.7852 12.9428C68.8453 12.8664 68.9229 12.8044 69.0114 12.7617C69.0999 12.719 69.1969 12.6967 69.2958 12.6964H73.3093C73.4081 12.6999 73.5051 12.7257 73.5917 12.7715C73.6789 12.8174 73.7539 12.8822 73.8114 12.961C73.8689 13.0397 73.9071 13.1303 73.9232 13.2258C73.9394 13.3212 73.9323 13.419 73.9038 13.5116C73.6369 14.6219 73.2013 15.6869 72.6113 16.6711C71.9624 17.7105 71.1435 18.639 70.1877 19.4199C69.3539 20.1227 68.4304 20.7174 67.4409 21.1892C66.7435 21.5192 66.0197 21.7919 65.2758 22.0044L64.8169 22.1181C64.6916 22.1517 64.5791 22.2216 64.4951 22.3185C64.4111 22.4155 64.3587 22.535 64.3451 22.6615L64.1448 24.8985C64.1435 24.9919 64.1629 25.0846 64.2023 25.1698C64.2417 25.2549 64.2999 25.3305 64.3729 25.3909C64.446 25.4513 64.5319 25.4952 64.6243 25.5193C64.7168 25.5435 64.8131 25.5473 64.9074 25.5304C65.6565 25.3485 66.3907 25.1141 67.1048 24.829C68.1053 24.4496 69.0773 24.0019 70.0132 23.4893C71.1403 22.869 72.1879 22.1203 73.1348 21.2587C74.2432 20.2413 75.1751 19.0547 75.8944 17.7453C76.7391 16.1951 77.3156 14.519 77.6007 12.7849V12.7217L77.8333 10.1182C77.8398 10.0316 77.8275 9.94465 77.7978 9.86282C77.768 9.78099 77.7215 9.70598 77.6608 9.64254C77.6 9.5791 77.527 9.52854 77.4455 9.49404C77.3635 9.4596 77.2756 9.44191 77.187 9.4421H71.4867C71.3885 9.43894 71.2928 9.41411 71.2062 9.36937C71.1196 9.32463 71.0446 9.26118 70.9865 9.18384C70.9283 9.10656 70.8895 9.0174 70.8721 8.92305C70.8546 8.82877 70.8592 8.73184 70.8857 8.63958C70.918 8.55111 70.9761 8.45633 70.9761 8.36154L71.0925 7.98872C71.1073 7.90076 71.1028 7.81084 71.0795 7.72471C71.0556 7.63858 71.0143 7.55833 70.9567 7.48907C70.8992 7.41988 70.8275 7.36326 70.7461 7.32307Z" fill="white"/>
<path d="M95.1315 24.355L95.306 22.4214L95.2802 22.3772C95.2828 22.2149 95.2285 22.0567 95.1264 21.9291C95.0236 21.8014 94.8795 21.7119 94.7179 21.6757C92.4785 21.2752 90.2081 21.0637 87.9318 21.0438H82.3349C82.1559 21.0428 81.9827 21.1069 81.8489 21.2236C81.7151 21.3404 81.6304 21.5015 81.611 21.6757L81.4365 23.6536C81.4275 23.7512 81.4398 23.8495 81.4714 23.9424C81.5031 24.0353 81.5548 24.1206 81.622 24.1931C81.6892 24.2655 81.7713 24.3235 81.8631 24.3634C81.9549 24.4032 82.0538 24.424 82.1539 24.4245H87.628C88.8974 24.4164 90.1654 24.4755 91.4283 24.6015C92.3525 24.6899 93.2767 24.8226 94.2913 24.9869C94.3896 25.003 94.4898 24.9991 94.5861 24.9755C94.683 24.9519 94.7735 24.9091 94.8523 24.8499C94.9312 24.7906 94.9964 24.716 95.0443 24.6309C95.0927 24.5457 95.1225 24.4518 95.1315 24.355Z" fill="white"/>
<path d="M94.6356 17.7833L94.8101 15.8813V15.837C94.8179 15.6725 94.7662 15.5105 94.6647 15.379C94.5632 15.2475 94.4185 15.1547 94.2543 15.1166C92.0078 14.707 89.7277 14.4955 87.4424 14.4847H83.9007C83.7223 14.4853 83.551 14.5501 83.4185 14.6667C83.286 14.7833 83.2027 14.9434 83.1833 15.1166L83.0023 17.0945C82.9946 17.1895 83.0062 17.2851 83.0372 17.3755C83.0676 17.466 83.1167 17.5494 83.1813 17.6208C83.246 17.6922 83.3248 17.7501 83.4127 17.7911C83.5006 17.832 83.5963 17.8552 83.6939 17.8591H87.1063C88.3814 17.852 89.6566 17.909 90.9259 18.0297C91.8501 18.1245 92.7743 18.2509 93.789 18.4152C93.8872 18.4312 93.988 18.4274 94.085 18.4039C94.1819 18.3804 94.2731 18.3377 94.3519 18.2784C94.4314 18.2192 94.4973 18.1447 94.5464 18.0596C94.5949 17.9744 94.6253 17.8803 94.6356 17.7833Z" fill="white"/>
<path d="M95.8768 11.5969L96.0513 9.65698V9.61275C96.059 9.44365 96.0047 9.27733 95.8981 9.144C95.7914 9.01067 95.6396 8.9191 95.4696 8.88605C93.2211 8.4889 90.9423 8.27753 88.6576 8.25415H83.9009C83.7225 8.25472 83.5513 8.31949 83.4188 8.43608C83.2863 8.55266 83.2029 8.71285 83.1835 8.88605L83.0026 10.8639C82.989 10.9639 82.9967 11.0657 83.0265 11.1624C83.0562 11.2591 83.1066 11.3485 83.1751 11.4245C83.243 11.5004 83.3263 11.5613 83.4207 11.6031C83.5144 11.6448 83.6165 11.6664 83.7199 11.6664H88.3474C89.7777 11.6833 91.0509 11.7443 92.167 11.8497C93.0634 11.9382 94.0199 12.0645 95.0366 12.2288C95.1342 12.243 95.2343 12.2378 95.33 12.2135C95.4256 12.1891 95.5155 12.1462 95.5937 12.0872C95.6725 12.0283 95.7378 11.9545 95.7863 11.8702C95.8347 11.786 95.8658 11.693 95.8768 11.5969Z" fill="white"/>
<path d="M100.462 15.167L100.281 17.1259V17.0816C100.266 17.1846 100.274 17.2896 100.304 17.3893C100.334 17.4891 100.386 17.5813 100.456 17.6598C100.526 17.7382 100.612 17.8012 100.709 17.8442C100.806 17.8873 100.911 17.9095 101.018 17.9094H111.701C111.881 17.9106 112.055 17.8467 112.189 17.7301C112.325 17.6135 112.41 17.4523 112.431 17.2775L112.606 15.3186C112.615 15.2191 112.604 15.1188 112.572 15.024C112.54 14.9292 112.487 14.842 112.419 14.7682C112.35 14.6943 112.266 14.6354 112.172 14.5952C112.079 14.5551 111.977 14.5345 111.875 14.535H101.192C101.012 14.5339 100.838 14.5977 100.703 14.7144C100.568 14.831 100.482 14.9922 100.462 15.167Z" fill="white"/>
</svg>
