<svg width="456" height="68" viewBox="0 0 456 68" fill="none" xmlns="http://www.w3.org/2000/svg">
<path d="M69.4245 11.1974C69.213 11.0895 68.9796 11.0281 68.741 11.0169L62.9891 11C62.6356 11.0085 62.2939 11.1273 62.013 11.3397C61.7305 11.5524 61.5224 11.8477 61.4159 12.1849C60.7358 14.5323 59.8121 16.8019 58.6583 18.9561C57.5773 20.926 56.3559 22.8155 55.0042 24.61C54.0704 25.8452 53.0096 26.9799 51.8407 27.9956L50.9948 28.6557C50.8189 28.7964 50.6734 28.9706 50.5668 29.1682C50.4585 29.3659 50.3908 29.5831 50.3688 29.8068L49.4553 40.2513C50.2893 39.8415 51.0811 39.354 51.8237 38.7955C53.8437 37.3599 55.7502 35.7695 57.5249 34.0388C60.0134 31.655 62.2786 29.0486 64.2918 26.252C64.4491 26.0472 64.6521 25.8811 64.8839 25.7667C65.1157 25.6522 65.3694 25.5925 65.6283 25.5918H76.1339C76.3927 25.6013 76.6465 25.6702 76.8732 25.7931C77.1016 25.916 77.2978 26.0897 77.4484 26.3006C77.5989 26.5115 77.6987 26.7542 77.741 27.0099C77.7833 27.2656 77.7647 27.5275 77.6903 27.7755C76.9916 30.7501 75.8514 33.6029 74.3068 36.2394C72.6083 39.0239 70.4649 41.5113 67.9628 43.603C65.7805 45.4859 63.363 47.079 60.773 48.3428C58.9476 49.2268 57.0529 49.9572 55.1057 50.5265L53.9046 50.8312C53.5764 50.9213 53.282 51.1085 53.0621 51.3682C52.8422 51.628 52.7051 51.9481 52.6696 52.287L52.1452 58.2795C52.1418 58.5298 52.1925 58.7782 52.2957 59.0062C52.3989 59.2344 52.5512 59.4367 52.7423 59.5987C52.9335 59.7605 53.1585 59.878 53.4004 59.9426C53.6423 60.0073 53.8944 60.0175 54.1414 59.9723C56.1021 59.4849 58.0239 58.8571 59.8933 58.0933C62.5121 57.0771 65.0565 55.8778 67.5061 54.5046C70.4565 52.8428 73.1987 50.837 75.6771 48.529C78.5784 45.8035 81.0179 42.6248 82.9008 39.1172C85.1119 34.9644 86.6209 30.4743 87.367 25.8288V25.6595L87.976 18.6852C87.9929 18.4532 87.9608 18.2202 87.883 18.001C87.8052 17.7818 87.6833 17.5809 87.5243 17.4109C87.3653 17.241 87.1741 17.1055 86.961 17.0131C86.7461 16.9209 86.5161 16.8735 86.2843 16.874H71.3632C71.1061 16.8655 70.8557 16.799 70.629 16.6791C70.4023 16.5593 70.2061 16.3893 70.0538 16.1821C69.9016 15.9751 69.8001 15.7362 69.7544 15.4835C69.7087 15.2309 69.7206 14.9713 69.7899 14.7241C69.8139 14.6568 69.8434 14.5881 69.8733 14.5185C69.9487 14.3429 70.0267 14.1611 70.0267 13.9793L70.3313 12.9806C70.3702 12.7449 70.3583 12.504 70.2974 12.2733C70.2348 12.0426 70.1266 11.8276 69.976 11.6421C69.8254 11.4567 69.6376 11.305 69.4245 11.1974Z" fill="#1DD1A1"/>
<path d="M2.86506 19.7517L3.288 14.9611C3.34213 14.4929 3.56729 14.061 3.92002 13.7486C4.27292 13.4362 4.7285 13.2651 5.19964 13.2683H34.7034C34.9687 13.2698 35.2306 13.326 35.4732 13.4334C35.7156 13.5409 35.9333 13.6971 36.1128 13.8924C36.2921 14.088 36.4293 14.3182 36.5158 14.5691C36.6022 14.8199 36.6361 15.0859 36.6151 15.3504L36.1921 20.141C36.138 20.6093 35.9128 21.0411 35.5601 21.3534C35.2072 21.6659 34.7516 21.8369 34.2805 21.8338H4.77671C4.51077 21.8348 4.24754 21.7803 4.00393 21.6738C3.76015 21.5674 3.54141 21.4111 3.36141 21.2151C3.18158 21.0191 3.04455 20.7878 2.95895 20.5358C2.87352 20.2837 2.84155 20.0168 2.86506 19.7517Z" fill="#1DD1A1"/>
<path d="M0.00603636 33.751L0.428969 28.9605C0.483104 28.4922 0.708267 28.0604 1.06099 27.7481C1.41389 27.4356 1.86947 27.2646 2.34062 27.2677H35.9722C36.2471 27.2697 36.5183 27.3307 36.7678 27.4463C37.0174 27.5619 37.2392 27.7295 37.4186 27.9379C37.598 28.1462 37.7308 28.3905 37.8083 28.6546C37.8856 28.9185 37.9055 29.1959 37.867 29.4683C37.428 33.2554 36.4006 36.9507 34.8218 40.4206C33.2252 43.9267 30.874 47.0367 27.9365 49.5278C25.37 51.7106 22.5257 53.5434 19.4779 54.9786C16.9259 56.1566 14.2621 57.0754 11.5267 57.7209C9.05679 58.2795 7.04364 58.6519 5.52108 58.855C5.23264 58.8908 4.93979 58.8601 4.66506 58.7655C4.39015 58.6709 4.14046 58.5148 3.93509 58.3091C3.72954 58.1036 3.57356 57.8538 3.47899 57.5787C3.38442 57.3038 3.3538 57.0107 3.3895 56.7221L3.84626 51.356C3.89955 50.9255 4.09494 50.5254 4.40132 50.2186C4.70786 49.9121 5.10778 49.7165 5.53799 49.6632H5.94401C7.53221 49.3756 9.1023 48.9969 10.647 48.5291C12.7468 47.9875 14.7914 47.2508 16.7542 46.3284C18.8993 45.3214 20.8517 43.9465 22.523 42.2658C23.5769 41.2169 24.4718 40.0193 25.179 38.7109C25.3449 38.4164 25.4307 38.0834 25.4277 37.7453C25.4246 37.4073 25.3328 37.0758 25.1614 36.7845C24.9902 36.493 24.7454 36.2518 24.4515 36.0849C24.1577 35.9178 23.8251 35.8311 23.4872 35.8332H1.91769C1.65259 35.8316 1.39056 35.7754 1.14796 35.6681C0.905534 35.5606 0.687802 35.4044 0.50831 35.209C0.328985 35.0135 0.19179 34.7833 0.105343 34.5324C0.018896 34.2816 -0.0149405 34.0156 0.00603636 33.751Z" fill="#1DD1A1"/>
<path d="M133.72 51.6438L133.264 56.8237C133.24 57.083 133.162 57.3346 133.035 57.5628C132.91 57.7908 132.739 57.9905 132.533 58.1493C132.326 58.3081 132.09 58.4227 131.836 58.4858C131.584 58.5492 131.322 58.5595 131.064 58.5165C128.408 58.0764 125.989 57.7209 123.57 57.4839C120.264 57.1465 116.945 56.9882 113.623 57.0099H99.2937C99.0315 57.0085 98.7726 56.9529 98.5324 56.846C98.2922 56.7394 98.0773 56.584 97.9014 56.3898C97.7255 56.1958 97.5901 55.9671 97.5072 55.7183C97.4243 55.4695 97.3922 55.2061 97.4159 54.9447L97.8726 49.6463C97.9234 49.1794 98.145 48.7479 98.4952 48.4351C98.8454 48.1224 99.2988 47.9508 99.7674 47.9535H114.418C120.376 48.0068 126.319 48.5732 132.181 49.6463C132.604 49.7433 132.981 49.9828 133.25 50.3249C133.517 50.6669 133.659 51.0907 133.653 51.5253L133.72 51.6438Z" fill="#1DD1A1"/>
<path d="M131.961 39.2187L132.418 34.1234V34.0049C132.438 33.5641 132.303 33.1303 132.037 32.778C131.772 32.4257 131.393 32.1771 130.963 32.0752C125.082 30.9779 119.114 30.4113 113.132 30.3824H103.861C103.394 30.3839 102.946 30.5574 102.599 30.8697C102.253 31.1821 102.034 31.6112 101.984 32.0752L101.51 37.3736C101.49 37.628 101.52 37.8841 101.601 38.1264C101.681 38.3688 101.809 38.5922 101.978 38.7835C102.148 38.9748 102.354 39.1298 102.584 39.2395C102.814 39.3492 103.065 39.4114 103.32 39.4219H112.252C115.59 39.4029 118.928 39.5554 122.25 39.8789C124.67 40.1328 127.089 40.4714 129.745 40.9115C130.002 40.9545 130.266 40.9442 130.52 40.8812C130.773 40.8182 131.012 40.7038 131.218 40.5452C131.426 40.3866 131.599 40.187 131.728 39.9588C131.854 39.7308 131.934 39.4787 131.961 39.2187Z" fill="#1DD1A1"/>
<path d="M135.666 17.4495L135.209 22.6464C135.18 22.9038 135.099 23.1528 134.972 23.3785C134.845 23.6041 134.674 23.8018 134.468 23.9598C134.263 24.1177 134.028 24.2328 133.778 24.298C133.528 24.3632 133.265 24.3771 133.01 24.3391C130.349 23.899 127.845 23.5605 125.499 23.3235C122.577 23.0413 119.244 22.8778 115.5 22.8326H103.388C103.117 22.8326 102.85 22.7747 102.604 22.6629C102.357 22.5511 102.139 22.3879 101.962 22.1844C101.782 21.9807 101.65 21.7414 101.572 21.4824C101.495 21.2234 101.474 20.9507 101.51 20.6827L101.984 15.3843C102.034 14.9203 102.253 14.4912 102.599 14.1789C102.946 13.8666 103.394 13.693 103.861 13.6915H116.312C122.293 13.7542 128.258 14.3204 134.143 15.3843C134.588 15.4728 134.986 15.7181 135.265 16.0753C135.544 16.4325 135.686 16.878 135.666 17.331V17.4495Z" fill="#1DD1A1"/>
<path d="M147.203 32.2106L146.73 37.4582V37.3397C146.691 37.6157 146.711 37.8968 146.791 38.1639C146.87 38.4312 147.006 38.6782 147.188 38.8885C147.371 39.0987 147.598 39.2673 147.851 39.3826C148.105 39.498 148.379 39.5576 148.658 39.5573H176.623C177.093 39.5603 177.55 39.3893 177.902 39.0769C178.255 38.7645 178.48 38.3327 178.534 37.8645L178.991 32.6168C179.016 32.3504 178.988 32.0816 178.903 31.8275C178.819 31.5736 178.682 31.34 178.502 31.1423C178.321 30.9444 178.101 30.7866 177.856 30.6789C177.612 30.5715 177.347 30.5164 177.079 30.5178H149.115C148.645 30.5147 148.188 30.6857 147.836 30.9982C147.483 31.3105 147.258 31.7424 147.203 32.2106Z" fill="#1DD1A1"/>
<rect width="0.936446" height="66.956" transform="matrix(1 0 -0.0908064 0.995869 222.035 0.660156)" fill="#B5B5C3"/>
<path fill-rule="evenodd" clip-rule="evenodd" d="M404.543 48.0109C404.577 47.6263 404.294 47.3145 403.91 47.3145H390.785C390.401 47.3145 390.061 47.6263 390.026 48.0109C389.991 48.3955 390.275 48.7073 390.659 48.7073H403.783C404.168 48.7073 404.508 48.3955 404.543 48.0109ZM402.164 36.9678C402.198 36.5942 401.923 36.2913 401.549 36.2913H391.766C391.392 36.2913 391.062 36.5942 391.028 36.9678C390.994 37.3414 391.27 37.6443 391.643 37.6443H401.427C401.8 37.6443 402.13 37.3414 402.164 36.9678ZM391.248 41.783C390.885 41.783 390.565 42.077 390.532 42.4396C390.499 42.8022 390.766 43.0962 391.128 43.0962H409.583C410.318 43.0962 410.86 43.6928 410.793 44.4287L410.049 52.6277C409.983 53.3636 409.332 53.9602 408.597 53.9602H404.48C404.216 53.9602 404.022 53.7464 404.046 53.4827C404.07 53.2189 403.876 53.0051 403.612 53.0051H390.05C389.787 53.0051 389.554 53.2189 389.53 53.4827C389.506 53.7464 389.273 53.9602 389.009 53.9602H385.171C384.435 53.9602 383.893 53.3636 383.96 52.6277L385.701 33.4453C385.767 32.7094 386.418 32.1128 387.153 32.1128H407.199C407.934 32.1128 408.476 32.7094 408.41 33.4453L407.774 40.4505C407.707 41.1864 407.057 41.783 406.321 41.783H391.248ZM416.008 17.8663C416.744 17.8663 417.286 18.4628 417.219 19.1988L417.042 21.1499C416.975 21.8859 416.325 22.4825 415.589 22.4825H412.916C412.236 22.4825 412.03 23.7492 412.339 24.3257C412.608 24.828 412.004 24.9896 411.417 25.1431L408.166 25.9947C407.496 26.1702 406.843 25.8263 406.571 25.2322C406.29 24.6187 405.904 23.8929 405.412 23.0548C405.2 22.6946 404.81 22.4825 404.375 22.4825H403.833C403.433 22.4825 403.038 22.6641 402.752 22.9702C401.903 23.8779 401.126 24.614 400.422 25.1784C400.415 25.1841 400.405 25.1837 400.399 25.1775C400.39 25.1669 400.371 25.1744 400.37 25.1894L400.286 26.1055C400.267 26.3243 400.428 26.5017 400.647 26.5017H414.429C415.165 26.5017 415.707 27.0983 415.64 27.8343L415.12 33.5659C415.053 34.3019 414.403 34.8985 413.667 34.8985H410.524C409.789 34.8985 409.247 34.3019 409.313 33.5659L409.436 32.2117C409.503 31.4758 408.961 30.8792 408.226 30.8792H386.231C385.496 30.8792 384.845 31.4758 384.779 32.2117L384.656 33.5659C384.589 34.3019 383.938 34.8985 383.203 34.8985H380.338C379.603 34.8985 379.061 34.3019 379.128 33.5659L379.648 27.8343C379.714 27.0983 380.365 26.5017 381.1 26.5017H393.231C393.945 26.5017 394.576 25.9227 394.641 25.2084L394.693 24.6288C394.729 24.2346 395.078 23.9151 395.472 23.9151C396.215 23.9151 396.542 22.9355 395.892 22.6306C395.825 22.5994 395.761 22.57 395.7 22.5424C395.611 22.5022 395.512 22.4825 395.411 22.4825H393.906C393.215 22.4825 392.773 23.3566 393.019 23.9788C393.206 24.4532 392.841 24.8761 392.321 25.021L389.133 25.9094C388.425 26.1066 387.735 25.7214 387.497 25.068C387.234 24.347 386.864 23.4914 386.386 22.5014C386.381 22.4898 386.369 22.4825 386.356 22.4825C386.344 22.4825 386.333 22.4877 386.325 22.4967C385.442 23.5011 384.581 24.4209 383.741 25.2563C383.229 25.7658 382.446 25.8057 381.933 25.39C381.302 24.879 380.665 24.411 380.021 23.986C379.242 23.4716 379.231 22.2615 379.98 21.5714C380.716 20.8922 381.434 20.1347 382.132 19.2989C383.09 18.1598 383.908 17.0051 384.587 15.8348C384.938 15.231 385.643 14.8963 386.275 15.0748L389.85 16.0851C390.202 16.1845 390.217 16.8291 390.028 17.1681C389.791 17.5913 390.201 17.8663 390.668 17.8663H396.841C397.334 17.8663 397.697 18.2659 397.652 18.7589C397.58 19.5509 398.477 19.9261 399.025 19.3055C399.958 18.2481 400.787 17.0841 401.51 15.8133C401.849 15.2173 402.535 14.8802 403.162 15.0393L406.799 15.9637C407.194 16.064 407.381 16.4873 407.173 16.8657C406.922 17.322 407.193 17.8663 407.694 17.8663H416.008ZM363.746 43.9717C364.02 43.9717 364.223 44.1944 364.198 44.4691C364.173 44.7439 363.93 44.9666 363.655 44.9666H348.662C348.387 44.9666 348.185 44.7439 348.21 44.4691C348.235 44.1944 348.478 43.9717 348.752 43.9717H363.746ZM348.288 49.3042C348.003 49.3042 347.792 49.0726 347.818 48.7869C347.844 48.5012 348.096 48.2695 348.382 48.2695H363.336C363.621 48.2695 363.832 48.5012 363.806 48.7869C363.78 49.0726 363.527 49.3042 363.242 49.3042H348.288ZM341.779 52.6675C341.712 53.4034 342.254 54 342.989 54H346.808C347.105 54 347.367 53.7595 347.394 53.4628C347.421 53.1661 347.683 52.9255 347.979 52.9255H362.893C363.19 52.9255 363.408 53.1661 363.381 53.4628C363.355 53.7595 363.573 54 363.87 54H367.967C368.702 54 369.352 53.4034 369.419 52.6675L370.412 41.7227C370.479 40.9867 369.937 40.3902 369.202 40.3902H344.225C343.489 40.3902 342.839 40.9867 342.772 41.7227L341.779 52.6675ZM360.483 26.2431C360.508 25.9684 360.75 25.7456 361.025 25.7456H365.32C365.595 25.7456 365.797 25.9684 365.772 26.2431C365.747 26.5178 365.504 26.7405 365.23 26.7405H360.935C360.66 26.7405 360.458 26.5178 360.483 26.2431ZM360.936 21.2488C360.96 20.9851 361.193 20.7713 361.456 20.7713H365.791C366.055 20.7713 366.249 20.9851 366.225 21.2488C366.201 21.5126 365.968 21.7264 365.705 21.7264H361.37C361.106 21.7264 360.912 21.5126 360.936 21.2488ZM369.938 30.0833C370.674 30.0833 371.324 29.4867 371.391 28.7508L371.543 27.0782C371.609 26.3422 372.26 25.7456 372.995 25.7456H374.905C375.641 25.7456 376.291 25.1491 376.358 24.4131L376.481 23.0589C376.548 22.323 376.006 21.7264 375.27 21.7264H373.36C372.625 21.7264 372.082 21.1298 372.149 20.3938L372.297 18.761C372.364 18.0251 371.822 17.4285 371.087 17.4285H362.496C361.826 17.4285 361.332 16.8851 361.393 16.2148C361.454 15.5444 360.96 15.001 360.29 15.001H356.711C356.041 15.001 355.448 15.5444 355.387 16.2148C355.327 16.8851 354.734 17.4285 354.064 17.4285H345.394C344.658 17.4285 344.008 18.0251 343.941 18.761L343.879 19.4388C343.813 20.1747 344.355 20.7713 345.09 20.7713H354.497C354.76 20.7713 354.954 20.9851 354.931 21.2488C354.907 21.5126 354.674 21.7264 354.41 21.7264H340.867C340.132 21.7264 339.482 22.323 339.415 23.0589L339.292 24.4131C339.225 25.1491 339.767 25.7456 340.503 25.7456H354.025C354.3 25.7456 354.502 25.9684 354.477 26.2431C354.452 26.5178 354.21 26.7405 353.935 26.7405H344.071C343.336 26.7405 342.685 27.3371 342.619 28.073L342.557 28.7508C342.49 29.4867 343.032 30.0833 343.768 30.0833H353.652C353.915 30.0833 354.109 30.2971 354.085 30.5608C354.062 30.8246 353.828 31.0384 353.565 31.0384H342.926C342.19 31.0384 341.54 31.635 341.473 32.3709L341.401 33.168C341.334 33.9039 341.876 34.5005 342.611 34.5005H353.251C353.514 34.5005 353.709 34.7143 353.685 34.9781C353.661 35.2418 353.428 35.4556 353.164 35.4556H339.582C338.846 35.4556 338.196 36.0522 338.129 36.7881L338.006 38.1424C337.939 38.8783 338.481 39.4749 339.217 39.4749H373.62C374.355 39.4749 375.006 38.8783 375.072 38.1424L375.195 36.7881C375.262 36.0522 374.72 35.4556 373.985 35.4556H360.124C359.86 35.4556 359.666 35.2418 359.69 34.9781C359.714 34.7143 359.947 34.5005 360.211 34.5005H370.929C371.665 34.5005 372.315 33.9039 372.382 33.168L372.454 32.3709C372.521 31.635 371.979 31.0384 371.244 31.0384H360.525C360.261 31.0384 360.067 30.8246 360.091 30.5608C360.115 30.2971 360.348 30.0833 360.611 30.0833H369.938ZM309.221 38.1161C309.973 37.7045 310.858 38.0304 311.077 38.8027L311.916 41.7551C312.079 42.3317 311.814 42.9816 311.271 43.3235C308.144 45.2927 304.666 47.3546 300.837 49.5091C300.204 49.8657 299.445 49.6929 299.102 49.1162L297.225 45.9608C296.826 45.2901 297.152 44.3675 297.911 44.0008C301.095 42.4627 304.865 40.5012 309.221 38.1161ZM301.402 31.775C300.89 31.1752 301.063 30.2076 301.781 29.7335L304.291 28.0764C304.838 27.7151 305.532 27.7623 305.948 28.1966C307.854 30.1899 309.265 31.913 310.183 33.3659C310.536 33.9257 310.31 34.6934 309.715 35.1005L306.907 37.0232C306.211 37.4991 305.308 37.2899 304.924 36.6163C304.106 35.1799 302.932 33.5662 301.402 31.775ZM328.938 28.0877C329.427 27.468 330.296 27.3015 330.874 27.7368L333.591 29.7831C334.198 30.2405 334.222 31.1611 333.635 31.7479C331.614 33.7644 329.537 35.6856 327.402 37.5115C326.822 38.0078 326.695 38.8435 327.15 39.3726C329.139 41.6863 331.373 43.5568 333.851 44.9838C334.666 45.4533 334.741 46.6756 334.025 47.4073C333.719 47.7207 333.402 48.0612 333.075 48.4287C332.518 49.0405 332.024 49.6199 331.593 50.1667C331.127 50.7585 330.312 50.9774 329.733 50.5985C326.715 48.6241 324.104 46.0042 321.902 42.7386C321.177 41.6632 319.242 42.2145 319.119 43.5689L318.822 46.8369C318.673 48.4818 318.373 49.7419 317.923 50.6174C317.469 51.5195 316.756 52.2225 315.782 52.7266C314.397 53.4699 311.972 53.8556 308.508 53.8838C307.85 53.8891 307.347 53.3989 307.272 52.755C307.158 51.759 306.957 50.7629 306.67 49.7669C306.395 48.8117 307.2 47.7323 308.218 47.7563C309.226 47.7801 310.345 47.792 311.577 47.792C312.266 47.792 312.641 47.4604 312.701 46.7971L314.404 28.0332C314.471 27.2973 313.929 26.7007 313.193 26.7007H300.863C300.128 26.7007 299.586 26.1041 299.653 25.3682L299.931 22.3028C299.997 21.5668 300.648 20.9703 301.383 20.9703H313.713C314.449 20.9703 315.099 20.3737 315.166 19.6377L315.444 16.5723C315.511 15.8364 316.161 15.2398 316.897 15.2398H320.358C321.094 15.2398 321.636 15.8364 321.569 16.5723L321.291 19.6377C321.224 20.3737 321.766 20.9703 322.502 20.9703H323.91C324.97 20.9703 325.471 19.6481 324.577 19.1547C323.975 18.8226 323.881 17.9728 324.414 17.4484L326.429 15.4642C326.855 15.0447 327.48 14.9189 327.977 15.1574C330.458 16.3469 332.352 17.4043 333.661 18.3295C334.05 18.6048 334.055 19.1795 333.692 19.5518C333.154 20.1019 333.466 20.9703 334.2 20.9703H335.241C335.97 20.9703 336.507 21.5617 336.441 22.2913L336.162 25.3682C336.095 26.1041 335.445 26.7007 334.709 26.7007H321.115C320.858 26.7007 320.631 26.9089 320.608 27.1657C320.602 27.2266 320.609 27.287 320.627 27.3431C321.25 29.2721 321.935 31.0212 322.681 32.5905C323.034 33.3344 324.034 33.448 324.673 32.8225C326.225 31.3033 327.647 29.7251 328.938 28.0877ZM272.432 16.3541C273.168 16.3541 273.71 16.9506 273.643 17.6866L273.484 19.4388C273.417 20.1747 272.767 20.7713 272.031 20.7713H262.406C261.67 20.7713 261.128 20.1747 261.195 19.4388L261.354 17.6866C261.421 16.9506 262.071 16.3541 262.806 16.3541H272.432ZM266.306 45.0654C266.373 44.3295 265.831 43.7329 265.095 43.7329H265.015C264.279 43.7329 263.629 44.3295 263.562 45.0654L263.49 45.8626C263.423 46.5985 263.965 47.1951 264.7 47.1951H264.781C265.517 47.1951 266.167 46.5985 266.234 45.8626L266.306 45.0654ZM270.522 39.1565C271.257 39.1565 271.799 39.7531 271.733 40.489L270.826 50.4788C270.759 51.2147 270.109 51.8113 269.373 51.8113H263.686C263.279 51.8113 262.92 52.1409 262.883 52.5475C262.846 52.9541 262.487 53.2837 262.08 53.2837H259.216C258.481 53.2837 257.939 52.6871 258.006 51.9512L259.046 40.489C259.113 39.7531 259.763 39.1565 260.498 39.1565H270.522ZM260.741 37.8035C260.005 37.8035 259.463 37.2069 259.53 36.471L259.689 34.7188C259.756 33.9828 260.406 33.3863 261.141 33.3863H270.966C271.701 33.3863 272.243 33.9828 272.177 34.7188L272.018 36.471C271.951 37.2069 271.301 37.8035 270.565 37.8035H260.741ZM271.475 27.7752C272.211 27.7752 272.753 28.3718 272.686 29.1077L272.531 30.8201C272.464 31.556 271.813 32.1526 271.078 32.1526H261.253C260.518 32.1526 259.976 31.556 260.043 30.8201L260.198 29.1077C260.265 28.3718 260.915 27.7752 261.651 27.7752H271.475ZM259.814 26.5415C259.078 26.5415 258.536 25.945 258.603 25.209L258.78 23.2579C258.847 22.5219 259.497 21.9253 260.233 21.9253H273.358C274.094 21.9253 274.636 22.5219 274.569 23.2579L274.392 25.209C274.325 25.9449 273.675 26.5415 272.939 26.5415H259.814ZM280.985 41.9621C280.952 42.3247 281.219 42.6187 281.581 42.6187H287.229C287.591 42.6187 287.912 42.3247 287.945 41.9621C287.978 41.5994 287.71 41.3054 287.348 41.3054H281.701C281.338 41.3054 281.018 41.5994 280.985 41.9621ZM288.398 36.9678C288.428 36.6381 288.185 36.3709 287.855 36.3709H282.089C281.759 36.3709 281.468 36.6381 281.438 36.9678C281.408 37.2975 281.651 37.5647 281.98 37.5647H287.747C288.077 37.5647 288.368 37.2975 288.398 36.9678ZM292.981 32.272C293.716 32.272 294.258 32.8686 294.191 33.6045L292.832 48.5879C292.721 49.8083 292.49 50.7501 292.138 51.4133C291.784 52.1031 291.22 52.6204 290.446 52.9653C289.462 53.4253 287.738 53.6859 285.276 53.7471C284.599 53.764 284.082 53.2534 283.989 52.5952C283.923 52.1273 283.825 51.6378 283.695 51.1269C283.454 50.1746 284.259 49.0982 285.265 49.1027C285.656 49.1044 286.095 49.1052 286.581 49.1052C287.058 49.1052 287.314 48.9063 287.351 48.5083L287.425 47.6919C287.491 46.956 286.949 46.3594 286.214 46.3594H281.917C281.182 46.3594 280.532 46.956 280.465 47.6919L280.028 52.5083C279.961 53.2442 279.311 53.8408 278.575 53.8408H275.79C275.054 53.8408 274.512 53.2442 274.579 52.5083L276.295 33.6045C276.361 32.8686 277.012 32.272 277.747 32.272H292.981ZM288.352 26.5216C288.327 26.7964 288.529 27.0191 288.804 27.0191H295.525C296.261 27.0191 296.803 27.6157 296.736 28.3516L296.599 29.865C296.532 30.6009 295.882 31.1975 295.146 31.1975H275.26C274.524 31.1975 273.982 30.601 274.049 29.865L274.186 28.3516C274.253 27.6157 274.903 27.0191 275.639 27.0191H282.241C282.516 27.0191 282.759 26.7964 282.784 26.5216C282.809 26.2469 282.606 26.0242 282.332 26.0242H277.678C276.942 26.0242 276.4 25.4276 276.467 24.6917L276.576 23.4966C276.642 22.7607 277.293 22.1641 278.028 22.1641H282.702C282.966 22.1641 283.199 21.9503 283.223 21.6866C283.246 21.4228 283.052 21.209 282.789 21.209H277.121C276.385 21.209 275.843 20.6124 275.91 19.8765L276.04 18.4427C276.107 17.7067 276.757 17.1102 277.493 17.1102H282.663C283.202 17.1102 283.677 16.6736 283.726 16.1352C283.775 15.5967 284.251 15.1602 284.789 15.1602H288.408C288.946 15.1602 289.343 15.5967 289.294 16.1352C289.245 16.6736 289.642 17.1102 290.18 17.1102H295.749C296.484 17.1102 297.026 17.7067 296.959 18.4427L296.829 19.8765C296.762 20.6124 296.112 21.209 295.377 21.209H289.311C289.047 21.209 288.814 21.4228 288.79 21.6866C288.766 21.9503 288.961 22.1641 289.224 22.1641H294.614C295.349 22.1641 295.891 22.7607 295.825 23.4966L295.716 24.6917C295.649 25.4276 294.999 26.0242 294.264 26.0242H288.894C288.619 26.0242 288.377 26.2469 288.352 26.5216ZM430.728 41.7776C430.66 40.9812 429.893 40.4922 429.102 40.7405L428.584 40.9028C427.699 41.1804 426.876 40.5387 426.959 39.6346L427.311 35.7534C427.378 35.0175 428.028 34.4209 428.763 34.4209H429.52C430.256 34.4209 430.906 33.8243 430.973 33.0884L431.222 30.3413C431.289 29.6054 430.747 29.0088 430.011 29.0088H429.255C428.519 29.0088 427.977 28.4122 428.044 27.6763L428.369 24.0936C428.436 23.3576 429.086 22.761 429.822 22.761H431.294C432.03 22.761 432.68 22.1644 432.747 21.4285L433 18.6417C433.067 17.9057 432.525 17.3091 431.789 17.3091H420.493C419.758 17.3091 419.107 17.9057 419.04 18.6417L418.787 21.4285C418.721 22.1644 419.263 22.761 419.998 22.761H421.511C422.246 22.761 422.788 23.3576 422.722 24.0936L422.396 27.6763C422.33 28.4122 421.679 29.0088 420.944 29.0088H419.789C419.054 29.0088 418.403 29.6054 418.337 30.3413L418.087 33.0884C418.02 33.8243 418.563 34.4209 419.298 34.4209H420.453C421.188 34.4209 421.73 35.0175 421.663 35.7534L421.086 42.1198C421.031 42.72 420.582 43.2464 419.989 43.4049C418.959 43.6802 418.138 43.899 417.526 44.0612C416.789 44.2563 416.261 45.0066 416.354 45.7346L416.768 48.9809C416.867 49.7507 417.621 50.2071 418.392 49.9633C423.994 48.1928 427.852 46.9664 429.966 46.2842C430.608 46.0767 431.04 45.4431 430.985 44.7951L430.728 41.7776ZM438.563 30.0833C438.625 29.402 439.227 28.8496 439.908 28.8496H440.505C441.186 28.8496 441.688 29.402 441.626 30.0833C441.564 30.7646 440.962 31.3169 440.281 31.3169H439.684C439.003 31.3169 438.502 30.7646 438.563 30.0833ZM439.206 22.9998C439.268 22.3185 439.87 21.7662 440.551 21.7662H441.148C441.829 21.7662 442.33 22.3185 442.269 22.9998C442.207 23.6811 441.605 24.2334 440.924 24.2334H440.327C439.646 24.2334 439.144 23.6811 439.206 22.9998ZM449.944 22.9998C449.882 23.6811 449.28 24.2334 448.599 24.2334H448.321C447.64 24.2334 447.138 23.6811 447.2 22.9998C447.262 22.3185 447.864 21.7662 448.545 21.7662H448.823C449.504 21.7662 450.006 22.3185 449.944 22.9998ZM449.301 30.0833C449.24 30.7646 448.638 31.3169 447.957 31.3169H447.678C446.997 31.3169 446.495 30.7646 446.557 30.0833C446.619 29.402 447.221 28.8496 447.902 28.8496H448.181C448.861 28.8496 449.363 29.402 449.301 30.0833ZM446.886 47.2747C446.15 47.2747 445.608 46.6781 445.675 45.9421L445.697 45.7022C445.763 44.9662 446.414 44.3696 447.149 44.3696H452.679C453.414 44.3696 454.065 43.7731 454.131 43.0371L454.37 40.4094C454.437 39.6735 453.894 39.0769 453.159 39.0769H447.63C446.894 39.0769 446.352 38.4803 446.419 37.7444L446.43 37.6238C446.497 36.8879 447.147 36.2913 447.882 36.2913H453.014C453.75 36.2913 454.4 35.6947 454.467 34.9588L455.994 18.1243C456.061 17.3884 455.519 16.7918 454.784 16.7918H435.772C435.037 16.7918 434.386 17.3884 434.319 18.1243L432.792 34.9588C432.725 35.6947 433.267 36.2913 434.002 36.2913H439.134C439.87 36.2913 440.412 36.8879 440.345 37.6238L440.334 37.7444C440.267 38.4803 439.617 39.0769 438.881 39.0769H433.63C432.895 39.0769 432.245 39.6735 432.178 40.4094L431.939 43.0371C431.872 43.7731 432.415 44.3696 433.15 44.3696H438.401C439.136 44.3696 439.679 44.9662 439.612 45.7022L439.59 45.9421C439.523 46.6781 438.873 47.2747 438.137 47.2747H430.182C429.447 47.2747 428.796 47.8713 428.729 48.6072L428.484 51.3145C428.417 52.0504 428.959 52.647 429.694 52.647H453.24C453.975 52.647 454.626 52.0504 454.693 51.3145L454.938 48.6072C455.005 47.8713 454.463 47.2747 453.727 47.2747H446.886Z" fill="white"/>
</svg>
