<svg width="113" height="34" viewBox="0 0 113 34" fill="none" xmlns="http://www.w3.org/2000/svg">
<rect y="0.846191" width="32.3077" height="32.3077" rx="4.84615" fill="#1DD1A1"/>
<path d="M21.2705 26.6924H11.0354C10.6789 26.6924 10.3371 26.5337 10.085 26.2513C9.833 25.9689 9.69141 25.5859 9.69141 25.1865V8.81075C9.69207 8.41187 9.83396 8.02958 10.0859 7.74779C10.3379 7.466 10.6794 7.30774 11.0354 7.30774H12.4972C12.8532 7.30774 13.1947 7.466 13.4466 7.74779C13.6986 8.02958 13.8405 8.41187 13.8411 8.81075V13.7271C13.8408 13.7447 13.8436 13.7622 13.8494 13.7785C13.8551 13.7949 13.8638 13.8098 13.8748 13.8223C13.8857 13.8349 13.8988 13.8448 13.9133 13.8517C13.9278 13.8585 13.9433 13.862 13.959 13.862H18.3469C18.3628 13.8624 18.3786 13.8591 18.3934 13.8525C18.4081 13.8459 18.4215 13.8359 18.4328 13.8233C18.444 13.8107 18.4529 13.7957 18.4588 13.7792C18.4647 13.7626 18.4676 13.7449 18.4673 13.7271V8.81075C18.4679 8.41187 18.6098 8.02958 18.8618 7.74779C19.1138 7.466 19.4552 7.30774 19.8112 7.30774H21.273C21.6286 7.30848 21.9694 7.46707 22.2208 7.74878C22.4723 8.03049 22.6138 8.41235 22.6145 8.81075V25.1978C22.6118 25.5952 22.4691 25.9753 22.2173 26.2553C21.9656 26.5353 21.6252 26.6924 21.2705 26.6924ZM10.9125 24.2454V25.1978C10.9122 25.2156 10.915 25.2333 10.921 25.2498C10.9269 25.2663 10.9357 25.2814 10.947 25.294C10.9582 25.3066 10.9716 25.3165 10.9864 25.3231C11.0012 25.3298 11.017 25.333 11.0329 25.3326H21.2705C21.3024 25.3326 21.3331 25.3184 21.3556 25.2931C21.3782 25.2678 21.3909 25.2335 21.3909 25.1978V24.2454H19.8112C19.649 24.2454 19.4934 24.1732 19.3786 24.0446C19.2639 23.9161 19.1994 23.7417 19.1994 23.5599C19.1994 23.3781 19.2639 23.2037 19.3786 23.0752C19.4934 22.9467 19.649 22.8744 19.8112 22.8744H21.3909V8.81075C21.3902 8.77547 21.3773 8.74189 21.3547 8.71721C21.3323 8.69252 21.302 8.6787 21.2705 8.67871H19.8112C19.7955 8.67834 19.78 8.68147 19.7654 8.68794C19.7508 8.69441 19.7375 8.70408 19.7263 8.71637C19.7151 8.72867 19.7062 8.74336 19.7001 8.75956C19.694 8.77577 19.6909 8.79317 19.6909 8.81075V13.7271C19.6902 14.1263 19.5484 14.5088 19.2965 14.7911C19.0446 15.0733 18.7032 15.2322 18.3469 15.233H13.9565C13.6005 15.2322 13.2593 15.0732 13.0078 14.7909C12.7563 14.5086 12.615 14.126 12.615 13.7271V8.81075C12.6144 8.77547 12.6014 8.74189 12.5789 8.71721C12.5564 8.69252 12.5262 8.6787 12.4947 8.67871H11.0354C11.0197 8.67834 11.0041 8.68147 10.9895 8.68794C10.9749 8.69441 10.9616 8.70408 10.9504 8.71637C10.9392 8.72867 10.9303 8.74336 10.9242 8.75956C10.9181 8.77577 10.915 8.79317 10.915 8.81075V22.8744H17.6148C17.777 22.8744 17.9326 22.9467 18.0474 23.0752C18.1621 23.2037 18.2266 23.3781 18.2266 23.5599C18.2266 23.7417 18.1621 23.9161 18.0474 24.0446C17.9326 24.1732 17.777 24.2454 17.6148 24.2454H10.9125ZM15.4885 20.995C15.3234 20.995 15.1649 20.9223 15.0472 20.7927L13.6681 19.2503C13.5499 19.1164 13.4833 18.9359 13.4826 18.7475C13.4826 18.559 13.5494 18.3782 13.6684 18.2449C13.7873 18.1116 13.9487 18.0367 14.1169 18.0367C14.2003 18.0362 14.283 18.0543 14.3601 18.09C14.4371 18.1257 14.5071 18.1782 14.5658 18.2446L15.4885 19.2784L17.7451 16.75C17.8032 16.6797 17.8733 16.6232 17.9512 16.584C18.0292 16.5448 18.1135 16.5237 18.1989 16.5218C18.2844 16.52 18.3693 16.5376 18.4486 16.5735C18.5278 16.6093 18.5998 16.6628 18.6602 16.7306C18.7205 16.7984 18.768 16.8792 18.7998 16.9681C18.8316 17.057 18.847 17.1522 18.8452 17.2479C18.8433 17.3437 18.8242 17.438 18.789 17.5253C18.7538 17.6125 18.7032 17.691 18.6403 17.7558L15.9373 20.7927C15.8781 20.8579 15.808 20.9094 15.7309 20.9441C15.6539 20.9788 15.5715 20.9961 15.4885 20.995Z" fill="white"/>
<path d="M44.3865 14.8001L44.225 16.5884C44.2169 16.6872 44.2299 16.7865 44.2629 16.8801C44.2959 16.9738 44.3483 17.0597 44.4168 17.1327C44.4854 17.2056 44.5686 17.2639 44.6612 17.3041C44.7539 17.3441 44.854 17.3651 44.9553 17.3657H53.1955C53.3246 17.3649 53.4517 17.3973 53.5639 17.4596C53.6762 17.5219 53.7697 17.612 53.8351 17.7208C53.9006 17.8295 53.9357 17.9533 53.9368 18.0795C53.938 18.2057 53.9052 18.33 53.8418 18.4399C53.5717 18.9283 53.2298 19.3754 52.8271 19.7669C52.1887 20.3943 51.4428 20.9076 50.6233 21.2835C49.8735 21.6278 49.0923 21.9028 48.2902 22.1049C47.7 22.2796 47.1002 22.421 46.4935 22.5283H46.3383C46.174 22.5482 46.0212 22.6212 45.9041 22.7357C45.7871 22.8502 45.7124 22.9995 45.6921 23.1602L45.5176 25.1634C45.5039 25.2711 45.5156 25.3805 45.5517 25.4831C45.5879 25.5858 45.6475 25.6791 45.726 25.7558C45.8044 25.8326 45.8998 25.8908 46.0049 25.9261C46.1098 25.9615 46.2217 25.9729 46.3319 25.9596C46.9136 25.8837 47.6826 25.7447 48.6262 25.5362C49.6712 25.2952 50.6889 24.9522 51.6638 24.5125C52.8282 23.9768 53.9148 23.2926 54.8953 22.4778C56.0175 21.5479 56.9157 20.3869 57.5257 19.0781C58.1288 17.7828 58.5213 16.4034 58.689 14.9897C58.7038 14.888 58.6962 14.7845 58.6666 14.6859C58.637 14.5874 58.5863 14.4962 58.5178 14.4184C58.4492 14.3406 58.3645 14.2781 58.2691 14.2349C58.1738 14.1917 58.0702 14.169 57.9652 14.1682H45.1168C44.9369 14.1671 44.7628 14.2309 44.628 14.3476C44.4932 14.4641 44.4072 14.6253 44.3865 14.8001Z" fill="white"/>
<path d="M45.4769 9.57418L45.3154 11.3625C45.3064 11.4614 45.3186 11.5611 45.3512 11.6552C45.3839 11.7493 45.4363 11.8356 45.505 11.9088C45.5737 11.9819 45.6573 12.0403 45.7504 12.08C45.8435 12.1197 45.9441 12.1401 46.0457 12.1397H57.3171C57.4971 12.1408 57.6711 12.077 57.8059 11.9604C57.9407 11.8438 58.0267 11.6826 58.0474 11.5078L58.209 9.71952C58.217 9.62075 58.204 9.52148 58.171 9.42783C58.138 9.33418 58.0856 9.24825 58.0171 9.17526C57.9485 9.10234 57.8653 9.04401 57.7727 9.00389C57.68 8.96383 57.58 8.94285 57.4786 8.94228H46.2072C46.0273 8.94108 45.8532 9.00496 45.7184 9.12155C45.5836 9.2382 45.4976 9.3994 45.4769 9.57418Z" fill="white"/>
<path d="M70.7461 8.16926C70.6653 8.12901 70.5761 8.10607 70.4849 8.1019L68.2875 8.09558C68.1525 8.09874 68.0219 8.1431 67.9146 8.2224C67.8067 8.30177 67.7272 8.41204 67.6865 8.53791C67.4267 9.41418 67.0738 10.2614 66.633 11.0655C66.22 11.8009 65.7534 12.5062 65.237 13.1761C64.8803 13.6372 64.4751 14.0608 64.0285 14.4399L63.7053 14.6863C63.6381 14.7389 63.5825 14.8039 63.5418 14.8776C63.5004 14.9514 63.4746 15.0325 63.4662 15.116L63.1172 19.0149C63.4358 18.8619 63.7383 18.6799 64.022 18.4715C64.7937 17.9355 65.5221 17.3419 66.2 16.6958C67.1507 15.806 68.0161 14.833 68.7852 13.789C68.8453 13.7126 68.9229 13.6506 69.0114 13.6079C69.0999 13.5652 69.1969 13.5429 69.2958 13.5426H73.3093C73.4081 13.5461 73.5051 13.5719 73.5917 13.6177C73.6789 13.6636 73.7539 13.7284 73.8114 13.8072C73.8689 13.8859 73.9071 13.9765 73.9232 14.0719C73.9394 14.1674 73.9323 14.2652 73.9038 14.3578C73.6369 15.4681 73.2013 16.5331 72.6113 17.5173C71.9624 18.5567 71.1435 19.4852 70.1877 20.2661C69.3539 20.9689 68.4304 21.5636 67.4409 22.0354C66.7435 22.3654 66.0197 22.638 65.2758 22.8506L64.8169 22.9643C64.6916 22.9979 64.5791 23.0678 64.4951 23.1647C64.4111 23.2617 64.3587 23.3812 64.3451 23.5077L64.1448 25.7447C64.1435 25.8381 64.1629 25.9308 64.2023 26.016C64.2417 26.1011 64.2999 26.1766 64.3729 26.2371C64.446 26.2975 64.5319 26.3414 64.6243 26.3655C64.7168 26.3897 64.8131 26.3935 64.9074 26.3766C65.6565 26.1947 66.3907 25.9603 67.1048 25.6752C68.1053 25.2958 69.0773 24.8481 70.0132 24.3355C71.1403 23.7152 72.1879 22.9664 73.1348 22.1049C74.2432 21.0875 75.1751 19.9009 75.8944 18.5915C76.7391 17.0413 77.3156 15.3652 77.6007 13.6311V13.5679L77.8333 10.9644C77.8398 10.8778 77.8275 10.7908 77.7978 10.709C77.768 10.6272 77.7215 10.5522 77.6608 10.4887C77.6 10.4253 77.527 10.3747 77.4455 10.3402C77.3635 10.3058 77.2756 10.2881 77.187 10.2883H71.4867C71.3885 10.2851 71.2928 10.2603 71.2062 10.2156C71.1196 10.1708 71.0446 10.1074 70.9865 10.03C70.9283 9.95275 70.8895 9.86359 70.8721 9.76924C70.8546 9.67496 70.8592 9.57803 70.8857 9.48577C70.918 9.3973 70.9761 9.30252 70.9761 9.20773L71.0925 8.83491C71.1073 8.74695 71.1028 8.65703 71.0795 8.5709C71.0556 8.48477 71.0143 8.40452 70.9567 8.33526C70.8992 8.26607 70.8275 8.20945 70.7461 8.16926Z" fill="white"/>
<path d="M95.1354 25.2012L95.3099 23.2676L95.284 23.2233C95.2866 23.0611 95.2323 22.9029 95.1302 22.7753C95.0274 22.6476 94.8833 22.5581 94.7218 22.5219C92.4823 22.1214 90.2119 21.9099 87.9357 21.89H82.3387C82.1597 21.889 81.9865 21.9531 81.8527 22.0698C81.719 22.1866 81.6343 22.3477 81.6149 22.5219L81.4404 24.4998C81.4313 24.5974 81.4436 24.6957 81.4753 24.7886C81.507 24.8815 81.5587 24.9668 81.6259 25.0392C81.6931 25.1117 81.7752 25.1697 81.867 25.2095C81.9587 25.2494 82.0576 25.2702 82.1578 25.2707H87.6319C88.9012 25.2626 90.1692 25.3217 91.4321 25.4476C92.3563 25.5361 93.2805 25.6688 94.2952 25.8331C94.3934 25.8492 94.4936 25.8453 94.5899 25.8217C94.6868 25.7981 94.7773 25.7553 94.8562 25.696C94.935 25.6368 95.0003 25.5622 95.0481 25.4771C95.0966 25.3919 95.1263 25.298 95.1354 25.2012Z" fill="white"/>
<path d="M94.6356 18.6295L94.8101 16.7274V16.6832C94.8179 16.5187 94.7662 16.3567 94.6647 16.2252C94.5632 16.0937 94.4185 16.0009 94.2543 15.9628C92.0078 15.5532 89.7277 15.3417 87.4424 15.3309H83.9007C83.7223 15.3315 83.551 15.3963 83.4185 15.5129C83.286 15.6294 83.2027 15.7896 83.1833 15.9628L83.0023 17.9407C82.9946 18.0357 83.0062 18.1313 83.0372 18.2217C83.0676 18.3122 83.1167 18.3956 83.1813 18.467C83.246 18.5384 83.3248 18.5963 83.4127 18.6372C83.5006 18.6782 83.5963 18.7014 83.6939 18.7053H87.1063C88.3814 18.6982 89.6566 18.7552 90.9259 18.8759C91.8501 18.9707 92.7743 19.0971 93.789 19.2614C93.8872 19.2774 93.988 19.2736 94.085 19.2501C94.1819 19.2266 94.2731 19.1838 94.3519 19.1246C94.4314 19.0654 94.4973 18.9909 94.5464 18.9057C94.5949 18.8206 94.6253 18.7265 94.6356 18.6295Z" fill="white"/>
<path d="M95.8768 12.4431L96.0513 10.5032V10.4589C96.059 10.2898 96.0047 10.1235 95.8981 9.99019C95.7914 9.85686 95.6396 9.7653 95.4696 9.73225C93.2211 9.33509 90.9423 9.12372 88.6576 9.10034H83.9009C83.7225 9.10091 83.5513 9.16568 83.4188 9.28227C83.2863 9.39885 83.2029 9.55904 83.1835 9.73225L83.0026 11.7101C82.989 11.8101 82.9967 11.9119 83.0265 12.0086C83.0562 12.1053 83.1066 12.1947 83.1751 12.2707C83.243 12.3466 83.3263 12.4075 83.4207 12.4493C83.5144 12.491 83.6165 12.5126 83.7199 12.5126H88.3474C89.7777 12.5295 91.0509 12.5905 92.167 12.6959C93.0634 12.7843 94.0199 12.9107 95.0366 13.075C95.1342 13.0892 95.2343 13.084 95.33 13.0597C95.4256 13.0353 95.5155 12.9924 95.5937 12.9334C95.6725 12.8745 95.7378 12.8006 95.7863 12.7164C95.8347 12.6322 95.8658 12.5392 95.8768 12.4431Z" fill="white"/>
<path d="M100.462 16.0131L100.281 17.972V17.9278C100.266 18.0308 100.274 18.1358 100.304 18.2355C100.334 18.3353 100.386 18.4275 100.456 18.5059C100.526 18.5844 100.612 18.6474 100.709 18.6904C100.806 18.7335 100.911 18.7557 101.018 18.7556H111.701C111.88 18.7567 112.055 18.6929 112.189 18.5763C112.324 18.4597 112.41 18.2985 112.431 18.1237L112.606 16.1648C112.615 16.0653 112.604 15.965 112.572 15.8701C112.54 15.7754 112.487 15.6882 112.419 15.6144C112.35 15.5405 112.266 15.4816 112.172 15.4414C112.079 15.4013 111.977 15.3807 111.875 15.3812H101.192C101.012 15.3801 100.838 15.4439 100.703 15.5606C100.568 15.6772 100.482 15.8384 100.462 16.0131Z" fill="white"/>
</svg>
