<svg width="616" height="113" viewBox="0 0 616 113" fill="none" xmlns="http://www.w3.org/2000/svg">
<path fill-rule="evenodd" clip-rule="evenodd" d="M9.07816 86.1801C8.14009 96.2979 15.7541 104.5 26.0846 104.5H581.519C591.849 104.5 600.984 96.2979 601.922 86.1801L607.379 27.32C608.317 17.2021 600.703 9 590.373 9H34.9388C24.6084 9 15.4734 17.2021 14.5354 27.32L9.07816 86.1801Z" fill="#F2F4F8" style="fill:#F2F4F8;fill:color(display-p3 0.9490 0.9569 0.9725);fill-opacity:1;"/>
<path fill-rule="evenodd" clip-rule="evenodd" d="M26.0849 112.87C10.9773 112.87 -0.662573 100.581 0.744222 85.4073L6.20141 26.5472C7.54905 12.0118 20.3996 0.629883 34.9392 0.629883H590.373C605.481 0.629883 617.121 12.9192 615.714 28.0926L610.257 86.9527C608.909 101.488 596.058 112.87 581.519 112.87H26.0849ZM26.0849 104.5C15.7544 104.5 8.14041 96.2978 9.07848 86.18L14.5357 27.3199C15.4737 17.202 24.6087 8.99988 34.9392 8.99988H590.373C600.704 8.99988 608.318 17.202 607.38 27.3199L601.922 86.18C600.984 96.2978 591.849 104.5 581.519 104.5H26.0849Z" fill="white" style="fill:white;fill-opacity:1;"/>
<path fill-rule="evenodd" clip-rule="evenodd" d="M268.568 86.5841C267.64 96.7549 262.976 105 273.194 105H581.708C591.926 105 600.961 96.7549 601.888 86.5841L607.286 27.4159C608.214 17.2451 600.683 9 590.465 9H283.329C273.112 9 274.893 17.2451 273.965 27.4159L268.568 86.5841Z" fill="#F2F4F8" style="fill:#F2F4F8;fill:color(display-p3 0.9490 0.9569 0.9725);fill-opacity:1;"/>
<path fill-rule="evenodd" clip-rule="evenodd" d="M9.07857 86.5775C8.13566 96.7474 15.7889 104.992 26.1726 104.992H276.978C287.362 104.992 296.544 96.7474 297.487 86.5775L302.972 27.4143C303.915 17.2444 296.262 9 285.878 9H35.0724C24.6887 9 15.5068 17.2444 14.5639 27.4143L9.07857 86.5775Z" fill="#1DD1A1" style="fill:#1DD1A1;fill:color(display-p3 0.1137 0.8196 0.6314);fill-opacity:1;"/>
<path fill-rule="evenodd" clip-rule="evenodd" d="M491.29 77.4511C491.341 76.8969 490.927 76.4477 490.366 76.4477H471.199C470.638 76.4477 470.142 76.8969 470.091 77.4511C470.04 78.0053 470.453 78.4545 471.015 78.4545H490.181C490.743 78.4545 491.239 78.0053 491.29 77.4511ZM487.817 61.5398C487.866 61.0015 487.464 60.565 486.919 60.565H472.631C472.086 60.565 471.604 61.0015 471.554 61.5398C471.505 62.0781 471.907 62.5145 472.452 62.5145H486.74C487.285 62.5145 487.767 62.0781 487.817 61.5398ZM471.874 68.4777C471.345 68.4777 470.877 68.9013 470.829 69.4238C470.781 69.9463 471.171 70.3699 471.7 70.3699H498.65C499.724 70.3699 500.516 71.2294 500.419 72.2898L499.332 84.1032C499.234 85.1636 498.285 86.0231 497.211 86.0231H491.198C490.813 86.0231 490.53 85.7151 490.565 85.3351C490.6 84.9551 490.316 84.647 489.931 84.647H470.126C469.741 84.647 469.4 84.9551 469.365 85.3351C469.33 85.7151 468.99 86.0231 468.605 86.0231H462.999C461.925 86.0231 461.134 85.1636 461.231 84.1032L463.774 56.4645C463.871 55.4041 464.821 54.5445 465.895 54.5445H495.169C496.243 54.5445 497.035 55.4041 496.937 56.4645L496.009 66.5577C495.911 67.6181 494.962 68.4777 493.888 68.4777H471.874ZM508.034 34.0175C509.109 34.0175 509.9 34.8771 509.803 35.9375L509.544 38.7488C509.447 39.8091 508.497 40.6687 507.423 40.6687H503.518C502.525 40.6687 502.224 42.4939 502.676 43.3245C503.069 44.0483 502.186 44.2811 501.33 44.5024L496.581 45.7294C495.603 45.9822 494.65 45.4867 494.253 44.6307C493.843 43.7467 493.278 42.7009 492.559 41.4934C492.25 40.9744 491.681 40.6687 491.046 40.6687H490.254C489.669 40.6687 489.093 40.9305 488.675 41.3715C487.434 42.6794 486.3 43.7399 485.273 44.5531C485.262 44.5614 485.248 44.5608 485.239 44.5518C485.225 44.5365 485.198 44.5473 485.196 44.5689L485.074 45.8889C485.045 46.2042 485.281 46.4599 485.6 46.4599H505.728C506.803 46.4599 507.594 47.3195 507.497 48.3798L506.737 56.6383C506.639 57.6986 505.69 58.5582 504.616 58.5582H500.025C498.951 58.5582 498.16 57.6986 498.257 56.6383L498.437 54.687C498.534 53.6267 497.743 52.7671 496.669 52.7671H464.548C463.474 52.7671 462.524 53.6267 462.427 54.687L462.247 56.6383C462.15 57.6986 461.2 58.5582 460.126 58.5582H455.943C454.868 58.5582 454.077 57.6986 454.174 56.6383L454.934 48.3798C455.031 47.3195 455.981 46.4599 457.055 46.4599H474.771C475.813 46.4599 476.735 45.6256 476.83 44.5964L476.907 43.7613C476.959 43.1933 477.468 42.7329 478.043 42.7329C479.128 42.7329 479.607 41.3215 478.657 40.8822C478.559 40.8372 478.466 40.7948 478.376 40.7551C478.246 40.6972 478.102 40.6687 477.954 40.6687H475.757C474.747 40.6687 474.102 41.9282 474.461 42.8247C474.735 43.5082 474.201 44.1175 473.442 44.3263L468.786 45.6063C467.752 45.8905 466.744 45.3355 466.396 44.394C466.013 43.3552 465.472 42.1225 464.775 40.696C464.767 40.6792 464.75 40.6687 464.73 40.6687C464.714 40.6687 464.697 40.6763 464.685 40.6893C463.396 42.1364 462.138 43.4618 460.912 44.6654C460.164 45.3995 459.021 45.457 458.271 44.858C457.35 44.1217 456.419 43.4474 455.479 42.8351C454.342 42.0939 454.326 40.3504 455.419 39.356C456.494 38.3775 457.542 37.286 458.563 36.0817C459.96 34.4404 461.155 32.7767 462.148 31.0905C462.66 30.2206 463.69 29.7382 464.612 29.9954L469.833 31.4511C470.347 31.5943 470.37 32.5232 470.093 33.0115C469.747 33.6213 470.346 34.0175 471.028 34.0175H480.043C480.762 34.0175 481.293 34.5934 481.227 35.3037C481.122 36.4448 482.432 36.9855 483.232 36.0912C484.595 34.5678 485.805 32.8905 486.861 31.0595C487.356 30.2008 488.359 29.715 489.274 29.9444L494.586 31.2762C495.163 31.4207 495.435 32.0306 495.131 32.5758C494.765 33.2333 495.16 34.0175 495.893 34.0175H508.034ZM414.43 37.6737C415.091 36.8689 415.066 35.7503 414.301 35.1755C412.314 33.683 409.57 32.2421 406.067 30.8528C405.293 30.5456 404.359 30.8158 403.783 31.498L401.105 34.6688C400.27 35.6572 400.518 37.0717 401.582 37.6235C402.836 38.2738 404.107 39.0022 405.395 39.8087C406.527 40.4952 407.497 41.1515 408.305 41.7778C409.197 42.4693 410.602 42.3406 411.381 41.3907L414.43 37.6737ZM408.725 53.2766C409.369 52.4401 409.293 51.3081 408.491 50.7564C406.38 49.3044 403.597 47.9245 400.14 46.6165C399.339 46.3134 398.384 46.6207 397.824 47.3447L395.267 50.6519C394.489 51.6572 394.783 53.0278 395.855 53.5274C398.709 54.8576 401.013 56.1877 402.767 57.5178C403.666 58.2003 405.064 58.0312 405.813 57.0589L408.725 53.2766ZM408.688 62.8763C407.821 62.0279 406.293 62.2948 405.587 63.4062C402.299 68.5821 398.839 73.4645 395.209 78.0534C394.544 78.8931 394.603 80.0407 395.354 80.6749L399.2 83.9222C400.052 84.6414 401.423 84.4019 402.114 83.408C405.76 78.1651 409.07 73.1058 412.044 68.2299C412.512 67.4624 412.422 66.5284 411.829 65.9485L408.688 62.8763ZM435.908 75.8743C434.834 75.8743 434.042 75.0147 434.14 73.9544L434.583 69.1362C434.681 68.0759 435.63 67.2163 436.704 67.2163H443.792C444.866 67.2163 445.816 66.3567 445.913 65.2963L446.309 60.9942C446.407 59.9338 445.615 59.0743 444.541 59.0743H437.453C436.379 59.0743 435.588 58.2147 435.685 57.1543L436.065 53.0242C436.163 51.9639 437.112 51.1043 438.186 51.1043H447.481C448.555 51.1043 449.505 50.2447 449.603 49.1843L449.993 44.9395C450.09 43.8792 449.299 43.0196 448.225 43.0196H440.863C439.266 43.0196 438.556 41.1881 439.679 39.9682C440.384 39.2025 440.409 38.0781 439.676 37.4676C438.45 36.4451 436.894 35.3524 435.01 34.1895C432.853 32.825 430.734 31.6317 428.652 30.6097C427.904 30.242 426.953 30.454 426.334 31.1076L422.81 34.8255C421.92 35.7642 422.074 37.1948 423.108 37.7909C424.291 38.4734 425.403 39.1539 426.444 39.8324C427.929 40.7999 426.996 43.0196 425.143 43.0196H417.266C416.192 43.0196 415.242 43.8792 415.145 44.9395L414.754 49.1843C414.657 50.2447 415.448 51.1043 416.523 51.1043H425.236C426.31 51.1043 427.102 51.9639 427.005 53.0242L426.625 57.1543C426.527 58.2147 425.577 59.0743 424.503 59.0743H417.88C416.806 59.0743 415.856 59.9338 415.759 60.9942L415.363 65.2963C415.266 66.3567 416.057 67.2163 417.131 67.2163H423.754C424.828 67.2163 425.62 68.0759 425.523 69.1362L425.079 73.9544C424.982 75.0147 424.032 75.8743 422.958 75.8743H412.037C410.963 75.8743 410.013 76.7339 409.916 77.7943L409.525 82.039C409.428 83.0994 410.219 83.959 411.293 83.959H445.679C446.753 83.959 447.703 83.0994 447.8 82.039L448.191 77.7943C448.288 76.7339 447.496 75.8743 446.422 75.8743H435.908ZM365.769 61.1106C365.671 62.171 364.722 63.0306 363.648 63.0306H361.845C360.771 63.0306 359.98 62.171 360.077 61.1106L360.225 59.5034C360.322 58.4431 361.272 57.5835 362.346 57.5835H364.149C365.223 57.5835 366.014 58.4431 365.917 59.5034L365.769 61.1106ZM379.128 57.5835C379.435 57.5835 379.707 57.3377 379.735 57.0344C379.777 56.5791 380.331 56.3196 380.68 56.5868C381.952 57.5604 383.249 58.4148 384.573 59.1499C385.417 59.6185 386.534 59.274 387.172 58.4505C387.773 57.6746 388.463 56.8504 389.241 55.978C389.634 55.5494 390.016 55.1474 390.384 54.772C391.441 53.695 391.273 51.8967 390.04 51.2449C389.022 50.707 388.022 50.1069 387.038 49.4444C385.995 48.7414 386.147 47.1723 387.261 46.3753C388.371 45.5814 389.485 44.747 390.602 43.8722C391.629 43.0682 391.669 41.5986 390.704 40.8929L388.062 38.9593C387.296 38.399 386.172 38.5404 385.425 39.2561C384.325 40.3093 383.068 41.4237 381.655 42.5992C381.016 43.1302 380.24 43.2521 379.778 42.6519C379.286 42.0134 379.403 40.8929 380.124 40.3827C381.386 39.4893 382.748 38.4727 384.211 37.333C385.243 36.5284 385.297 35.0507 384.333 34.3365L381.64 32.3411C380.832 31.7425 379.625 31.9322 378.855 32.7122C378.467 33.105 378.038 33.5215 377.568 33.9616C376.593 34.8743 375.091 34.6373 374.655 33.4886C374.441 32.9258 374.241 32.3595 374.056 31.7898C373.752 30.8569 372.774 30.332 371.766 30.6073L367.642 31.7327C366.526 32.0374 365.821 33.193 366.144 34.231C367.551 38.7585 369.321 42.7563 371.452 46.2246C372.275 47.5634 371.165 49.4988 369.512 49.4988H359.424C357.757 49.4988 357.009 47.5333 358.093 46.1881C360.554 43.1343 362.623 39.7917 364.301 36.1605C364.727 35.2407 364.362 34.2293 363.494 33.8274L359.994 32.2058C359.639 32.0416 359.231 31.9955 358.826 32.074L358.162 32.2028C358.034 32.2275 357.906 32.24 357.777 32.24H345.104C344.03 32.24 343.08 33.0996 342.983 34.16L342.666 37.602C342.569 38.6624 343.36 39.522 344.435 39.522H350.058C351.387 39.522 352.189 40.7555 351.32 41.824C350.678 42.613 349.395 42.8957 348.681 42.2941C348.011 41.7294 347.32 41.1769 346.606 40.6365C345.948 40.1378 344.989 40.1843 344.272 40.7298L341.631 42.7374C340.618 43.5077 340.491 44.9343 341.357 45.7115C341.937 46.2328 342.456 46.7086 342.914 47.139C343.716 47.8924 343.552 49.2251 342.553 49.898C341.125 50.8607 339.619 51.7345 338.036 52.5193C336.726 53.1693 336.258 54.8909 337.089 55.9441C337.327 56.2452 337.568 56.5623 337.813 56.8954C338.284 57.5345 338.694 58.1343 339.043 58.6949C339.56 59.5259 340.646 59.8778 341.6 59.4C343.379 58.5082 345.058 57.5436 346.637 56.506C347.066 56.224 347.607 56.5045 347.562 56.9924C347.532 57.3188 347.776 57.5835 348.106 57.5835H349.861C350.935 57.5835 351.727 58.4431 351.629 59.5034L351.481 61.1106C351.384 62.171 350.434 63.0306 349.36 63.0306H341.052C339.978 63.0306 339.029 63.8902 338.931 64.9505L338.567 68.9086C338.469 69.969 339.261 70.8286 340.335 70.8286H345.989C347.434 70.8286 348.194 72.3215 347.142 73.3953C345.256 75.3223 342.678 76.9283 339.41 78.2133C337.941 78.7906 337.3 80.733 338.16 81.9043C338.32 82.1216 338.481 82.3477 338.645 82.5829C339.219 83.3758 339.703 84.1052 340.096 84.7713C340.55 85.5409 341.487 85.9345 342.398 85.6121C350.2 82.8514 355.362 78.4122 357.885 72.2944C358.235 71.4451 359.066 70.8286 359.968 70.8286H362.93C364.004 70.8286 364.796 71.6881 364.698 72.7485L364.448 75.4729C364.093 79.3337 364.45 81.9713 365.521 83.3856C366.626 84.8382 368.96 85.5644 372.522 85.5644H378.33C381.195 85.5644 383.337 84.7999 384.756 83.2709C385.991 82.0041 386.972 79.854 387.699 76.8207C387.929 75.8588 387.347 74.9804 386.425 74.714C385.403 74.419 384.459 74.0738 383.593 73.6784C382.221 73.0526 380.306 73.9557 379.98 75.4881C379.846 76.1176 379.716 76.5904 379.591 76.9064C379.327 77.6709 378.847 78.0532 378.15 78.0532H374.839C374.104 78.0532 373.671 77.9194 373.54 77.6518C373.414 77.346 373.405 76.6006 373.514 75.4156L373.759 72.7485C373.857 71.6881 374.806 70.8286 375.88 70.8286H383.897C384.971 70.8286 385.921 69.969 386.019 68.9086L386.383 64.9505C386.48 63.8902 385.689 63.0306 384.615 63.0306H376.598C375.524 63.0306 374.732 62.171 374.829 61.1106L374.977 59.5034C375.075 58.4431 376.025 57.5835 377.099 57.5835H379.128ZM529.531 68.47C529.431 67.3224 528.312 66.6179 527.156 66.9756L526.4 67.2095C525.107 67.6094 523.906 66.6849 524.026 65.3823L524.54 59.7901C524.638 58.7297 525.588 57.8702 526.662 57.8702H527.767C528.841 57.8702 529.791 57.0106 529.888 55.9502L530.252 51.9921C530.35 50.9318 529.558 50.0722 528.484 50.0722H527.379C526.305 50.0722 525.513 49.2126 525.611 48.1522L526.086 42.9901C526.183 41.9297 527.133 41.0701 528.207 41.0701H530.358C531.432 41.0701 532.382 40.2105 532.479 39.1501L532.848 35.1347C532.946 34.0744 532.154 33.2148 531.08 33.2148H514.584C513.51 33.2148 512.56 34.0744 512.462 35.1347L512.093 39.1501C511.995 40.2105 512.787 41.0701 513.861 41.0701H516.07C517.144 41.0701 517.936 41.9297 517.838 42.9901L517.363 48.1522C517.266 49.2126 516.316 50.0722 515.242 50.0722H513.556C512.482 50.0722 511.532 50.9318 511.434 51.9921L511.07 55.9502C510.973 57.0106 511.764 57.8702 512.839 57.8702H514.525C515.599 57.8702 516.39 58.7297 516.293 59.7901L515.449 68.963C515.37 69.8278 514.713 70.5862 513.847 70.8146C512.344 71.2113 511.145 71.5265 510.25 71.7603C509.175 72.0414 508.404 73.1224 508.539 74.1713L509.144 78.8487C509.288 79.9579 510.39 80.6155 511.516 80.2643C519.696 77.7133 525.33 75.9462 528.417 74.9632C529.356 74.6642 529.987 73.7514 529.906 72.8177L529.531 68.47ZM540.973 51.6203C541.064 50.6386 541.943 49.8428 542.937 49.8428H543.809C544.803 49.8428 545.536 50.6386 545.446 51.6203C545.355 52.602 544.476 53.3978 543.482 53.3978H542.61C541.616 53.3978 540.883 52.602 540.973 51.6203ZM541.912 41.4141C542.003 40.4325 542.882 39.6366 543.876 39.6366H544.747C545.742 39.6366 546.475 40.4325 546.384 41.4141C546.294 42.3958 545.415 43.1916 544.42 43.1916H543.549C542.555 43.1916 541.822 42.3958 541.912 41.4141ZM557.594 41.4141C557.504 42.3958 556.624 43.1916 555.63 43.1916H555.223C554.229 43.1916 553.496 42.3958 553.586 41.4141C553.677 40.4325 554.556 39.6366 555.55 39.6366H555.957C556.951 39.6366 557.684 40.4325 557.594 41.4141ZM556.655 51.6203C556.565 52.602 555.686 53.3978 554.691 53.3978H554.285C553.29 53.3978 552.557 52.602 552.648 51.6203C552.738 50.6386 553.617 49.8428 554.612 49.8428H555.018C556.013 49.8428 556.745 50.6386 556.655 51.6203ZM553.127 76.3903C552.053 76.3903 551.261 75.5308 551.359 74.4704L551.391 74.1246C551.488 73.0643 552.438 72.2047 553.512 72.2047H561.587C562.661 72.2047 563.611 71.3451 563.708 70.2847L564.057 66.4987C564.154 65.4383 563.363 64.5787 562.289 64.5787H554.214C553.139 64.5787 552.348 63.7191 552.445 62.6588L552.461 62.485C552.559 61.4246 553.509 60.565 554.583 60.565H562.077C563.151 60.565 564.101 59.7055 564.198 58.6451L566.429 34.3893C566.527 33.329 565.735 32.4694 564.661 32.4694H536.897C535.823 32.4694 534.873 33.329 534.776 34.3893L532.545 58.6451C532.447 59.7055 533.239 60.565 534.313 60.565H541.807C542.881 60.565 543.673 61.4246 543.575 62.485L543.559 62.6588C543.462 63.7191 542.512 64.5787 541.438 64.5787H533.769C532.695 64.5787 531.745 65.4383 531.648 66.4987L531.3 70.2847C531.202 71.3451 531.994 72.2047 533.068 72.2047H540.736C541.81 72.2047 542.602 73.0643 542.504 74.1246L542.473 74.4704C542.375 75.5308 541.425 76.3903 540.351 76.3903H528.733C527.659 76.3903 526.71 77.2499 526.612 78.3103L526.253 82.211C526.156 83.2714 526.947 84.131 528.021 84.131H562.407C563.481 84.131 564.431 83.2714 564.528 82.211L564.887 78.3103C564.984 77.2499 564.193 76.3903 563.119 76.3903H553.127Z" fill="#464E5F" style="fill:#464E5F;fill:color(display-p3 0.2745 0.3059 0.3725);fill-opacity:1;"/>
<path d="M131.415 28.5405C131.151 28.4101 130.86 28.3357 130.562 28.3222L123.389 28.3018C122.948 28.312 122.521 28.4557 122.171 28.7126C121.819 28.9697 121.559 29.327 121.426 29.7348C120.578 32.5736 119.426 35.3182 117.987 37.9234C116.639 40.3057 115.116 42.5907 113.43 44.7609C112.265 46.2547 110.942 47.6269 109.484 48.8552L108.429 49.6536C108.21 49.8237 108.028 50.0343 107.895 50.2732C107.76 50.5124 107.676 50.775 107.648 51.0456L106.509 63.6766C107.549 63.181 108.537 62.5914 109.463 61.916C111.982 60.1798 114.36 58.2565 116.573 56.1635C119.677 53.2807 122.502 50.1287 125.013 46.7466C125.209 46.4989 125.463 46.2981 125.752 46.1597C126.041 46.0213 126.357 45.949 126.68 45.9482H139.783C140.106 45.9597 140.422 46.043 140.705 46.1916C140.99 46.3403 141.234 46.5503 141.422 46.8054C141.61 47.0604 141.734 47.354 141.787 47.6631C141.84 47.9725 141.817 48.2891 141.724 48.5891C140.853 52.1863 139.43 55.6364 137.504 58.8248C135.386 62.1922 132.712 65.2003 129.592 67.7299C126.87 70.007 123.855 71.9336 120.625 73.462C118.348 74.531 115.985 75.4143 113.556 76.1028L112.058 76.4713C111.649 76.5802 111.282 76.8066 111.007 77.1206C110.733 77.4349 110.562 77.822 110.518 78.2318L109.864 85.4788C109.86 85.7815 109.923 86.0818 110.052 86.3576C110.18 86.6336 110.37 86.8782 110.609 87.0741C110.847 87.2698 111.128 87.4119 111.429 87.4901C111.731 87.5683 112.046 87.5806 112.354 87.5259C114.799 86.9365 117.196 86.1772 119.527 85.2536C122.794 84.0247 125.967 82.5743 129.022 80.9136C132.702 78.9039 136.122 76.4782 139.213 73.6872C142.832 70.391 145.874 66.5469 148.223 62.305C150.98 57.2829 152.862 51.8528 153.793 46.2348V46.0301L154.552 37.5958C154.573 37.3152 154.533 37.0335 154.436 36.7684C154.339 36.5033 154.187 36.2603 153.989 36.0547C153.791 35.8492 153.552 35.6854 153.286 35.5737C153.018 35.4621 152.731 35.4048 152.442 35.4054H133.833C133.512 35.3951 133.2 35.3147 132.917 35.1698C132.634 35.0248 132.39 34.8193 132.2 34.5687C132.01 34.3183 131.883 34.0295 131.826 33.7238C131.769 33.4184 131.784 33.1044 131.871 32.8055C131.9 32.7243 131.937 32.6414 131.974 32.5573L131.975 32.5568L131.975 32.5567C132.069 32.3444 132.166 32.1246 132.166 31.9047L132.546 30.6969C132.594 30.412 132.579 30.1207 132.504 29.8416C132.425 29.5626 132.29 29.3026 132.103 29.0782C131.915 28.8541 131.681 28.6707 131.415 28.5405Z" fill="white" style="fill:white;fill-opacity:1;"/>
<path d="M48.4014 38.8855L48.9289 33.0921C48.9965 32.5258 49.2773 32.0036 49.7172 31.6257C50.1573 31.248 50.7255 31.041 51.3132 31.0449H88.1104C88.4413 31.0468 88.7679 31.1147 89.0705 31.2445C89.3728 31.3745 89.6444 31.5635 89.8682 31.7997C90.0919 32.0362 90.263 32.3146 90.3708 32.618C90.4786 32.9213 90.5208 33.243 90.4947 33.5629L89.9672 39.3564C89.8997 39.9226 89.6188 40.4448 89.1789 40.8225C88.7388 41.2004 88.1706 41.4072 87.583 41.4035H50.7857C50.454 41.4048 50.1257 41.3388 49.8218 41.2101C49.5178 41.0813 49.245 40.8924 49.0205 40.6553C48.7962 40.4182 48.6253 40.1386 48.5185 39.8338C48.412 39.5289 48.3721 39.2061 48.4014 38.8855Z" fill="white" style="fill:white;fill-opacity:1;"/>
<path d="M44.8357 55.8155L45.3631 50.0221C45.4307 49.4558 45.7115 48.9336 46.1514 48.5559C46.5915 48.178 47.1597 47.9712 47.7474 47.9749H89.6929C90.0358 47.9774 90.374 48.0511 90.6852 48.1909C90.9964 48.3307 91.273 48.5334 91.4969 48.7854C91.7205 49.0374 91.8862 49.3328 91.9828 49.6522C92.0792 49.9713 92.1041 50.3068 92.056 50.6362C91.5085 55.2161 90.2271 59.6851 88.2581 63.8813C86.2668 68.1214 83.3344 71.8824 79.6707 74.895C76.4697 77.5348 72.9223 79.7513 69.121 81.4868C65.9382 82.9114 62.6159 84.0226 59.2043 84.8032C56.1238 85.4788 53.613 85.9291 51.7141 86.1748C51.3543 86.218 50.9891 86.181 50.6464 86.0665C50.3035 85.9521 49.9921 85.7633 49.736 85.5146C49.4796 85.2661 49.2851 84.9639 49.1671 84.6312C49.0492 84.2988 49.011 83.9444 49.0555 83.5954L49.6252 77.1059C49.6917 76.5853 49.9354 76.1014 50.3175 75.7304C50.6998 75.3597 51.1986 75.1233 51.7351 75.0588H52.2415C54.2223 74.711 56.1806 74.253 58.1072 73.6872C60.726 73.0323 63.2761 72.1414 65.724 71.0259C68.3994 69.808 70.8345 68.1453 72.9189 66.1127C74.2334 64.8443 75.3495 63.3959 76.2315 61.8137C76.4385 61.4575 76.5455 61.0548 76.5417 60.646C76.5379 60.2372 76.4233 59.8363 76.2096 59.484C75.996 59.1315 75.6907 58.8398 75.3242 58.6379C74.9577 58.4359 74.5429 58.3311 74.1216 58.3335H47.2199C46.8893 58.3317 46.5624 58.2637 46.2599 58.1339C45.9575 58.0039 45.686 57.815 45.4621 57.5787C45.2384 57.3423 45.0673 57.0639 44.9595 56.7605C44.8517 56.4571 44.8095 56.1355 44.8357 55.8155Z" fill="white" style="fill:white;fill-opacity:1;"/>
<path d="M211.605 77.4539L211.035 83.7182C211.006 84.0318 210.909 84.336 210.75 84.612C210.594 84.8878 210.381 85.1293 210.124 85.3213C209.866 85.5134 209.571 85.652 209.255 85.7283C208.94 85.8049 208.613 85.8174 208.292 85.7654C204.98 85.2331 201.963 84.8032 198.945 84.5166C194.823 84.1086 190.683 83.9172 186.539 83.9434H168.668C168.341 83.9418 168.018 83.8744 167.718 83.7452C167.419 83.6163 167.151 83.4283 166.931 83.1935C166.712 82.9589 166.543 82.6824 166.44 82.3814C166.336 82.0805 166.296 81.762 166.326 81.4459L166.895 75.0383C166.959 74.4737 167.235 73.9519 167.672 73.5735C168.109 73.1954 168.674 72.9879 169.259 72.9911H187.531C194.962 73.0556 202.374 73.7406 209.685 75.0383C210.212 75.1556 210.683 75.4453 211.018 75.859C211.352 76.2725 211.529 76.7851 211.521 77.3106L211.605 77.4539Z" fill="white" style="fill:white;fill-opacity:1;"/>
<path d="M209.411 62.4278L209.98 56.2659V56.1226C210.006 55.5895 209.837 55.0648 209.506 54.6388C209.174 54.2128 208.702 53.9121 208.166 53.7888C200.832 52.4618 193.388 51.7767 185.927 51.7417H174.365C173.782 51.7435 173.223 51.9533 172.791 52.331C172.358 52.7087 172.086 53.2277 172.023 53.7888L171.432 60.1964C171.407 60.5041 171.444 60.8138 171.546 61.1068C171.645 61.3999 171.805 61.6701 172.016 61.9015C172.227 62.1328 172.485 62.3203 172.772 62.453C173.059 62.5856 173.371 62.6608 173.689 62.6735H184.83C188.993 62.6505 193.156 62.835 197.3 63.2262C200.317 63.5333 203.334 63.9427 206.647 64.475C206.967 64.527 207.296 64.5145 207.613 64.4383C207.929 64.3622 208.227 64.2238 208.484 64.032C208.744 63.8401 208.959 63.5988 209.119 63.3228C209.278 63.0471 209.377 62.7422 209.411 62.4278Z" fill="white" style="fill:white;fill-opacity:1;"/>
<path d="M214.031 36.1014L213.462 42.3862C213.426 42.6975 213.325 42.9987 213.166 43.2716C213.008 43.5444 212.795 43.7836 212.538 43.9746C212.282 44.1656 211.989 44.3048 211.677 44.3836C211.364 44.4624 211.037 44.4792 210.719 44.4333C207.4 43.9011 204.277 43.4916 201.351 43.205C197.707 42.8638 193.55 42.666 188.881 42.6114H173.774C173.436 42.6114 173.103 42.5413 172.797 42.4062C172.489 42.2709 172.217 42.0736 171.995 41.8275C171.772 41.5812 171.607 41.2918 171.51 40.9785C171.413 40.6653 171.388 40.3355 171.432 40.0115L172.023 33.6039C172.086 33.0428 172.358 32.5238 172.791 32.1461C173.223 31.7684 173.782 31.5586 174.365 31.5567H189.894C197.352 31.6325 204.792 32.3172 212.132 33.6039C212.687 33.7109 213.183 34.0076 213.531 34.4395C213.88 34.8715 214.057 35.4103 214.031 35.9581V36.1014Z" fill="white" style="fill:white;fill-opacity:1;"/>
<path d="M228.421 53.9526L227.83 60.2988V60.1555C227.782 60.4891 227.807 60.8292 227.906 61.1522C228.006 61.4755 228.174 61.7741 228.402 62.0284C228.63 62.2827 228.913 62.4865 229.229 62.626C229.546 62.7656 229.888 62.8376 230.236 62.8372H265.113C265.7 62.8409 266.269 62.6342 266.708 62.2562C267.149 61.8785 267.43 61.3563 267.497 60.7901L268.067 54.4439C268.099 54.1217 268.063 53.7966 267.957 53.4893C267.852 53.1822 267.681 52.8997 267.457 52.6606C267.231 52.4213 266.957 52.2305 266.651 52.1003C266.347 51.9703 266.016 51.9038 265.683 51.9054H230.805C230.219 51.9017 229.649 52.1085 229.21 52.4864C228.769 52.8641 228.489 53.3863 228.421 53.9526Z" fill="white" style="fill:white;fill-opacity:1;"/>
</svg>
